<svg xmlns="http://www.w3.org/2000/svg" width="307" height="35" fill="none">
  <mask id="a" width="307" height="35" x="0" y="0" maskUnits="userSpaceOnUse" style="mask-type:luminance">
    <path fill="#fff" d="M0 0h306.6v35H0V0Z"/>
  </mask>
  <g mask="url(#a)">
    <path fill="#c4c29e" fill-rule="evenodd" d="M87.1.2v.3a103.4 103.4 0 0 0 6.3 8.6 41.7 41.7 0 0 0 3.7 3.6l2.7 1.8c.8.5 1.7.8 2.6 1 1 .4 2.2.6 3.3.9a32.5 32.5 0 0 0 6.4 2.7A191.2 191.2 0 0 0 94 19a27.9 27.9 0 0 1-4.5-1.7l-.9-.4c-.7-1-1.2-2.3-1.9-3.3-.3-.5-.7-1-1.2-1.4a9.3 9.3 0 0 0-4.1-2.1L78 9.5 74.7 9l-.4.3c0 .2.1.4.3.4a17.7 17.7 0 0 0 5.7 6 16.2 16.2 0 0 0 7.5 2.1 13.4 13.4 0 0 0 3.6 1.5 84.2 84.2 0 0 0-3.3.5 115.3 115.3 0 0 1-16.5-1 299.6 299.6 0 0 1-17.2-2.5c-.7-.4-1.3-1-1.9-1.5-1.2-1.1-2.3-2.5-3.4-3.8a23.2 23.2 0 0 0-3.8-3.7c-1.6-1.2-3.5-2-5.3-2.4-2.8-.7-5.8-.8-8.6-1-.2-.1-.4 0-.4.2s.1.4.3.4l4 3.9 1 1c.9 1 1.8 2 2.8 2.8l2 1.7a15.2 15.2 0 0 0 7.5 3l5.1.3a44.5 44.5 0 0 0 5.4 1.2l-12.8.7a376.9 376.9 0 0 1-15.3.3 15.8 15.8 0 0 0-1.8-2c-1.5-1-3.1-1.8-4.8-2.2-1.6-.4-3.2-.5-4.8-.5a44.6 44.6 0 0 0-7.2.5 87.9 87.9 0 0 0-12 2.1c-.2 0-.3.3-.3.4 0 .2.2.4.4.3 1 .6 2.1 1.1 3.2 1.5 1.8.7 3.7 1.1 5.5 1.6a52.5 52.5 0 0 0 10.7 1.2c3.5 0 6.9-.6 10.1-1.9a128.5 128.5 0 0 0 16.4-.2l8.2-.6a17 17 0 0 0-3 1.4 11 11 0 0 0-3 .2c-1 .2-1.7.6-2.5 1.2a21.7 21.7 0 0 0-4.3 3.8l-1.1 1.3-.7.8-.3.2-.2.2a.6.6 0 0 0 0 .8l.4.2h.5l.6-.1 2.3-.4c2-.3 4-.7 5.8-1.8a8 8 0 0 0 3.6-4.3l.4-1.6a24 24 0 0 1 5-2.2l4.5-.4 1.5.2a250.7 250.7 0 0 0 12.4 1.3l8 .2-3.4 1.1-.3.1c-2 .5-4.1.6-6.2 1a17 17 0 0 0-4.8 2c-1 .6-2 1.4-3 2.3-1 1-2 2.3-3 3.5l-2.5 3.8v.5h.4a28.6 28.6 0 0 0 8.4-1.5 22.9 22.9 0 0 0 4.2-2.1 11.3 11.3 0 0 0 4-4.5c.4-1 1-2 1.6-2.8.3-.5.7-1 1.2-1.4 1.3-.4 2.6-.8 4-1a55 55 0 0 1 9.5-1.4c2-.1 4-.3 6.1-.3 5-.2 9.8 0 14.8 0l1.6.3a18.8 18.8 0 0 0-1.5.5h-2.9a7.2 7.2 0 0 0-4.5 1.7c-.5.4-1 .9-1.3 1.4L105 26l-1.3 1.6-.5.7v.5s.2.2.4.1l3.5-.4c1.2 0 2.4-.2 3.5-.5a7.8 7.8 0 0 0 3-1.5l.9-1.1 1-1.9a16 16 0 0 1 1.3-2.2 14.8 14.8 0 0 1 2.5-.7c3 .3 6 .4 9 .2 3.2-.3 6.5-1.2 9.7-1.6a20.3 20.3 0 0 1 7.7.4c.8.2 1.5.6 2.1 1.1.6.5 1.1 1 1.5 1.6.4.7.6 1.4.7 2.1 0 1.4-.4 2.8-1.3 3.8s-2.2 1.5-3.6 1c-.5 0-1-.3-1.5-.6a3 3 0 0 1-1-1.3c-.2-.7 0-1.4.4-1.8.5-.5 1.2-.8 1.9-.7.1 0 .2 0 .2-.2 0-.1 0-.2-.2-.2-.8-.1-1.7.2-2.2.7-.6.6-.9 1.4-.6 2.4.3.6.6 1.1 1.1 1.6l1.7.8c1.7.5 3.3 0 4.4-1.2a6 6 0 0 0 1.6-4.3c0-1-.4-1.8-.8-2.5-.4-.8-1-1.4-1.7-2-.7-.6-1.5-1-2.3-1.3a21 21 0 0 0-8.2-.6c-3.2.4-6.5 1.4-9.7 1.6A43.7 43.7 0 0 1 107 16a16 16 0 0 1-2.8-4l-1.9-3.5a12 12 0 0 0-3.6-3.7l-3-1.7c-2.6-1.2-5.5-2-8-3-.2-.1-.4 0-.5.1ZM199.7 16l-4 1.6c-5.5 2-11.7 2.5-17.4 2-3.3-.2-6.5-1.2-9.7-1.6a21 21 0 0 0-8.2.6 7.8 7.8 0 0 0-4 3.3c-.5.7-.8 1.6-.8 2.5a6 6 0 0 0 1.6 4.3c1.1 1.1 2.6 1.7 4.4 1.2l1.6-.8c.5-.5 1-1 1.1-1.6.4-1 0-1.8-.5-2.4-.5-.5-1.4-.8-2.3-.7 0 0-.2.1-.1.2 0 .1 0 .2.2.2.7 0 1.4.2 1.9.7.4.4.6 1 .3 1.8-.2.5-.5 1-1 1.3l-1.4.7c-1.5.4-2.7-.1-3.6-1.1-1-1-1.4-2.4-1.3-3.8 0-.7.3-1.4.7-2a6.4 6.4 0 0 1 3.5-2.8 20.3 20.3 0 0 1 7.7-.4c3.3.4 6.5 1.3 9.8 1.6 3 .2 6 .1 9-.2a18.3 18.3 0 0 1 2.5.7 14 14 0 0 1 1.4 2.2c.3.6.5 1.3 1 1.9.2.4.5.8.9 1a7.3 7.3 0 0 0 2.8 1.6c1.2.3 2.4.4 3.6.5l3.5.4.4-.1v-.5l-.6-.7-1.2-1.6-1.8-2.2-1.3-1.4a8.7 8.7 0 0 0-2.9-1.5l-1.6-.3H191a11.9 11.9 0 0 0-1.5-.4l1.6-.3a268.6 268.6 0 0 1 20.9.3 99.3 99.3 0 0 1 9.6 1.3l3.8 1.1 1.3 1.4 1.7 2.8a11.2 11.2 0 0 0 3.9 4.5 19 19 0 0 0 4.2 2 23.1 23.1 0 0 0 8.3 1.6h.4c.2-.1.2-.3.1-.5a61.5 61.5 0 0 0-5.6-7.3 18 18 0 0 0-5.1-3.5 17 17 0 0 0-2.7-.8c-2-.4-4-.5-6-1h-.5c-1-.5-2.2-.9-3.4-1.2a125.5 125.5 0 0 0 20.5-1.5l1.5-.2a662.2 662.2 0 0 1 4.5.4 25.6 25.6 0 0 1 5 2.2 16.3 16.3 0 0 0 1 3 8.1 8.1 0 0 0 3 3 16 16 0 0 0 5.8 1.7l2.3.4.6.1h.4l.4-.2.2-.4-.2-.4s-.2 0-.2-.2l-.2-.2-.7-.8-1.1-1.3a36 36 0 0 0-4.3-3.8c-.8-.6-1.6-1-2.5-1.2-.6-.2-1.2-.2-1.8-.2H255a11.7 11.7 0 0 0-3-1.4 479.1 479.1 0 0 0 19.7 1l4.9-.2c3.2 1.3 6.6 1.9 10 2a38.6 38.6 0 0 0 10.8-1.3c1.8-.5 3.7-.9 5.4-1.6 1.2-.4 2.2-.9 3.2-1.5.2 0 .4 0 .5-.3l-.3-.4a91.3 91.3 0 0 0-19.3-2.6c-1.6 0-3.2.1-4.7.5a12.3 12.3 0 0 0-5.7 3.1l-1 1.1a164.8 164.8 0 0 1-15.3-.3l-12.8-.7a70 70 0 0 0 5.5-1.2c1.8 0 3.4 0 5-.3 1.2-.2 2.4-.4 3.6-.9a15.3 15.3 0 0 0 6-3.8l2.8-2.8 1-1 4-3.9c.2 0 .3-.2.3-.4s-.2-.3-.4-.3c-2.9.3-5.8.4-8.6 1-1.9.5-3.7 1.3-5.4 2.5-1.4 1-2.6 2.4-3.7 3.7-1.1 1.3-2.2 2.7-3.4 3.8-.6.6-1.2 1.1-1.9 1.5a50.9 50.9 0 0 1-9.8 1.7 300 300 0 0 1-14.9 1.6c-3 .2-6 .3-9 .2a95.7 95.7 0 0 0-3.4-.4 17.4 17.4 0 0 0 3.6-1.6 16 16 0 0 0 13.5-8.5c0-.2-.2-.3-.4-.3l-3.2.5-3.4.7c-.7.2-1.5.4-2.2.8a7.6 7.6 0 0 0-3.2 2.7c-.6 1-1.1 2.2-1.9 3.3l-.8.4a30 30 0 0 1-4.5 1.7h-.5a191.5 191.5 0 0 0-17.6 0 33.6 33.6 0 0 0 6.4-2.7l3.3-.8a13.1 13.1 0 0 0 5.2-2.9 35.7 35.7 0 0 0 7.1-7.7 102.6 102.6 0 0 0 3-4.8c-.1-.1-.3-.2-.5-.1-2.6 1-5.4 1.8-8 3a20.7 20.7 0 0 0-5 3.2l-1.6 2.2c-.7 1-1.3 2.3-2 3.5a20.6 20.6 0 0 1-2.7 4ZM78.6 22.9c-1.3.3-2.5.5-3.7.9a16.2 16.2 0 0 0-7.3 4.1c-2 2-3.9 4.2-5.5 6.5a30 30 0 0 0 11.6-4.1l1.8-1.5c1.5-1.5 2.4-3.6 3.7-5.3l.2-.1c-2.1.9-4.1 2.1-6 3.8h-.3v-.3c1.7-1.7 3.5-3 5.5-4Zm149.4 0c2 1 3.8 2.3 5.4 4v.3h-.3a21.7 21.7 0 0 0-5.7-3.7c1.3 1.7 2.2 3.8 3.6 5.3l1.9 1.5a19.4 19.4 0 0 0 4 2 25.7 25.7 0 0 0 7.6 2A41.5 41.5 0 0 0 239 28a20.4 20.4 0 0 0-4.9-3.2l-2.4-1-3.7-.8ZM40.6 29.4l-.2.1.2-.1Zm225.4 0c0 .1 0 .2.2.1l-.2-.1Zm.8-.9Zm-227 0h-.1Zm11.1-7h-.5c-.6 0-1.1.2-1.6.3-.8.3-1.6.7-2.2 1.2a22.2 22.2 0 0 0-4 4l-1 1.2-.2.1 1.7-.2c2-.2 3.9-.6 5.5-1.5a7.3 7.3 0 0 0 3.6-4.6 23 23 0 0 0-2 1.2l-2 1.4c-.1.1-.3.1-.4 0v-.3a21.4 21.4 0 0 1 3.1-2.8Zm204.8 0a11.4 11.4 0 0 1 1.3 1l1.7 1.8v.3h-.3a24.9 24.9 0 0 0-4-2.6 13 13 0 0 0 .8 2c.7 1.2 1.7 2 2.7 2.6 1.7.9 3.6 1.3 5.6 1.5l1.6.2a84.8 84.8 0 0 0-5-5.3c-.8-.5-1.5-.9-2.3-1.2l-1.6-.3h-.5Zm-63 0a15 15 0 0 1 2.6 1.7l1.8 1.6v.3h-.3a29.9 29.9 0 0 0-4.6-2.6l-1.1-.6-.4-.1.2.2.8 1.1 1.1 1.7.8.8 1.2.8 1.3.5 3.4.7c.9 0 1.7.2 2.6.4l-1.3-1.5a23.2 23.2 0 0 0-4.6-4.1 7.3 7.3 0 0 0-3.5-1Zm-78.8 0a17.6 17.6 0 0 0-2.5.4 7.7 7.7 0 0 0-2.5 1.5c-1.1.9-2.1 2-3 3.1l-1.4 1.5 2.6-.4a20.5 20.5 0 0 0 4.6-1.2 7 7 0 0 0 1.2-.8l.8-.8 1.1-1.7.9-1c0-.2 0-.3.2-.3l-.4.1-1.1.6a81.2 81.2 0 0 0-5 2.6l.1-.3a23.7 23.7 0 0 1 4.4-3.4Zm-83.6-2.1a14.4 14.4 0 0 0-1.5-1.4c-1.4-1-3-1.6-4.6-1.9l-4.5-.3a53 53 0 0 0-7.1.5 148.7 148.7 0 0 0-11.3 1.6l2.6 1a49.8 49.8 0 0 0 10.5 2 66.1 66.1 0 0 0 7.6.3c2-.1 4-.4 6-.9a144.2 144.2 0 0 1-12.2-1.6.2.2 0 0 1-.1-.2c0-.1 0-.2.2-.2a99.1 99.1 0 0 0 14.4 1.1Zm275-1.5a98.3 98.3 0 0 0-22.9-1.8 11.8 11.8 0 0 0-5.5 2.6l-.7.7a132 132 0 0 0 14.7-1c0 .2 0 .3-.2.3a92.4 92.4 0 0 1-12 1.6 30 30 0 0 0 11.2.8 66.2 66.2 0 0 0 15.4-3.2Zm-74-8-2.6.6a34.2 34.2 0 0 0-5.2 1.5l-1.8 1.1-1.1 1.1-1.7 2.3.4-.2a26 26 0 0 0 3.2-2h.3v.3l-2 1.8-.6.4a17 17 0 0 0 5.4-2.2 25 25 0 0 0 5.7-4.7Zm-156 0a19.2 19.2 0 0 0 4.3 3.8 24.8 24.8 0 0 0 4.2 2.4l2.5.7-.5-.4c-.7-.5-1.4-1.1-2-1.8v-.3h.3a23.8 23.8 0 0 0 3.5 2.2L86 14.2c-.4-.4-.7-.8-1.2-1.1a15.5 15.5 0 0 0-3.8-1.9 34 34 0 0 0-3.1-.7l-2.6-.6Zm199.1-5.3c-2.5.3-5 .6-7.5 1.3a15.3 15.3 0 0 0-7.6 4.7l-3.8 3.9-1.8 1.4a24.4 24.4 0 0 0 9.9-5.3h.3v.3a24.8 24.8 0 0 1-8.4 5.4A26.3 26.3 0 0 0 261 15a15 15 0 0 0 3.7-2l2-1.6 2.8-2.7 1.6-1.4c1-1 2.2-1.8 3.2-2.7Zm-242.2 0 3.1 2.7L37 8.7l2.8 2.7 2 1.6a15.1 15.1 0 0 0 7 3l2.3.3-.6-.3a24.8 24.8 0 0 1-7.8-5c0-.1-.1-.3 0-.4h.3a24.5 24.5 0 0 0 9.9 5.3c-.7-.4-1.2-.9-1.8-1.4l-3.8-4c-.8-.8-1.7-1.6-2.6-2.2a15.2 15.2 0 0 0-5-2.4c-2.4-.7-5-1-7.5-1.3ZM88 1a115 115 0 0 0 7.6 8.8 32 32 0 0 0 4.7 3.9l2.3 1 .8.3a26 26 0 0 1-7.2-7.3.3.3 0 0 1 0-.5l.5.1c2.3 3.4 5.4 6 8.8 8l-.6-.8-1.5-2.1-2-3.3A11.1 11.1 0 0 0 98 5.8L95 4c-2.3-1.2-4.8-2-7.1-3Zm130.6 0-7.1 3.1a22.3 22.3 0 0 0-4.6 3c-.7.6-1.2 1.3-1.6 2-.8 1-1.4 2.2-2.1 3.3a20.7 20.7 0 0 1-2.2 2.9c3.5-2 6.5-4.6 8.9-8 0-.1.3-.2.4 0 .2 0 .2.2.1.4a26 26 0 0 1-7.3 7.3l.8-.3a12.5 12.5 0 0 0 4.4-2.4 33.7 33.7 0 0 0 4.4-4.3 85 85 0 0 0 5.9-7Z" clip-rule="evenodd"/>
  </g>
  <path fill="#c4c29e" fill-rule="evenodd" d="M274.6 29.4c.4 0 .8.4.8.8s-.4.8-.8.8a.8.8 0 0 1-.8-.8c0-.4.4-.8.8-.8Zm-3-1c.5 0 .8.3.8.8 0 .4-.3.7-.7.7a.8.8 0 0 1-.8-.7c0-.5.3-.8.8-.8Zm4.8-1.6c.5 0 .8.3.8.7 0 .5-.3.8-.8.8a.8.8 0 0 1-.7-.8c0-.4.3-.8.7-.8Zm-2.6-.2a.8.8 0 0 1 0 1.6.8.8 0 0 1-.7-.8c0-.4.3-.8.7-.8Zm-2-1.7c.4 0 .7.4.7.8s-.3.8-.8.8a.8.8 0 0 1-.8-.8c0-.4.4-.8.8-.8Zm3-1c.5 0 .9.4.9.8s-.4.8-.8.8a.8.8 0 0 1-.8-.8c0-.4.3-.8.8-.8ZM32 29.4c-.5 0-.8.4-.8.8s.3.8.8.8c.4 0 .8-.4.8-.8s-.4-.8-.8-.8Zm3-1c-.5 0-.9.3-.9.8 0 .4.4.7.8.7s.8-.3.8-.7c0-.5-.4-.8-.8-.8ZM30 26.8c-.4 0-.7.3-.7.7 0 .5.3.8.7.8.5 0 .8-.3.8-.8 0-.4-.3-.8-.8-.8Zm2.6-.2a.8.8 0 0 0 0 1.6c.5 0 .8-.4.8-.8s-.3-.8-.8-.8Zm2.1-1.7c-.4 0-.7.4-.7.8s.3.8.7.8c.5 0 .8-.4.8-.8s-.3-.8-.8-.8Zm-3.1-1c-.4 0-.8.4-.8.8s.4.8.8.8.8-.4.8-.8-.4-.8-.8-.8ZM245 13.4c.5 0 .8.4.8.8 0 .5-.3.8-.8.8a.8.8 0 0 1-.8-.8c0-.4.4-.8.8-.8Zm-3-1c.5 0 .9.3.9.8 0 .4-.4.8-.8.8a.8.8 0 0 1-.8-.8c0-.5.3-.8.8-.8Zm4.9-1.6c.4 0 .7.3.7.8 0 .4-.3.8-.7.8a.8.8 0 0 1-.8-.8c0-.5.3-.8.8-.8Zm-2.6-.2a.8.8 0 0 1 0 1.6.8.8 0 0 1-.8-.8c0-.4.3-.8.8-.8ZM242.2 9c.4 0 .7.4.7.8 0 .5-.3.8-.7.8a.8.8 0 0 1-.8-.8c0-.4.3-.8.8-.8Zm3.1-1c.4 0 .8.4.8.8 0 .5-.4.8-.8.8a.8.8 0 0 1-.8-.8c0-.4.4-.8.8-.8ZM61.6 13.4c-.5 0-.8.4-.8.8 0 .5.3.8.8.8.4 0 .7-.3.7-.8 0-.4-.3-.8-.7-.8Zm2.9-1c-.4 0-.8.3-.8.8 0 .4.4.8.8.8s.8-.4.8-.8c0-.5-.4-.8-.8-.8Zm-4.8-1.6c-.4 0-.8.3-.8.8 0 .4.4.8.8.8s.8-.4.8-.8c0-.5-.4-.8-.8-.8Zm2.6-.2a.8.8 0 0 0 0 1.6c.4 0 .8-.3.8-.8 0-.4-.4-.8-.8-.8ZM64.4 9c-.4 0-.8.4-.8.8 0 .5.4.8.8.8s.8-.3.8-.8c0-.4-.4-.8-.8-.8Zm-3.1-1c-.5 0-.8.4-.8.8 0 .5.3.8.8.8.4 0 .8-.3.8-.8 0-.4-.4-.8-.8-.8ZM216.8 29c.5 0 .8.3.8.7 0 .5-.3.8-.8.8a.8.8 0 0 1-.7-.8c0-.4.3-.8.7-.8Zm-2.9-1c.4 0 .8.3.8.7 0 .4-.4.8-.8.8a.8.8 0 0 1-.8-.8c0-.4.4-.8.8-.8Zm4.8-1.7c.4 0 .8.4.8.8s-.4.8-.8.8a.8.8 0 0 1-.8-.8c0-.4.4-.8.8-.8Zm-2.6-.1a.8.8 0 0 1 0 1.5.8.8 0 0 1-.8-.8c0-.4.4-.7.8-.7Zm-2.1-1.7c.4 0 .8.3.8.8 0 .4-.4.7-.8.7a.8.8 0 0 1-.8-.7c0-.5.3-.8.8-.8Zm3.1-1c.5 0 .8.3.8.8 0 .4-.3.7-.8.7a.8.8 0 0 1-.8-.8c0-.4.4-.7.8-.7ZM89.7 29c-.4 0-.8.3-.8.7 0 .5.4.8.8.8.5 0 .8-.3.8-.8 0-.4-.3-.8-.8-.8Zm3-1c-.5 0-.8.3-.8.7 0 .4.3.8.8.8.4 0 .7-.4.7-.8s-.3-.8-.7-.8Zm-4.8-1.7c-.4 0-.8.4-.8.8s.4.8.8.8.8-.4.8-.8-.4-.8-.8-.8Zm2.6-.1a.8.8 0 0 0 0 1.5c.4 0 .8-.3.8-.8 0-.4-.4-.7-.8-.7Zm2-1.7c-.3 0-.7.3-.7.8 0 .4.4.7.8.7s.8-.3.8-.7c0-.5-.4-.8-.8-.8Zm-3-1c-.5 0-.8.3-.8.8 0 .4.3.7.7.7.5 0 .8-.3.8-.8 0-.4-.3-.7-.8-.7ZM165.3 13.4c.4 0 .8.4.8.8s-.4.8-.8.8a.8.8 0 0 1-.8-.8c0-.4.4-.8.8-.8Zm-3-1c.5 0 .8.3.8.8 0 .4-.3.7-.7.7a.8.8 0 0 1-.8-.7c0-.5.3-.8.8-.8Zm4.8-1.6c.5 0 .8.3.8.8 0 .4-.3.7-.8.7a.8.8 0 0 1-.7-.7c0-.5.3-.8.7-.8Zm-2.5-.2c.4 0 .7.4.7.8s-.3.8-.7.8a.8.8 0 0 1-.8-.8c0-.4.3-.8.8-.8ZM162.4 9c.5 0 .8.4.8.8 0 .5-.3.8-.8.8a.8.8 0 0 1-.7-.8c0-.4.3-.8.7-.8Zm3.2-1c.4 0 .8.4.8.8s-.4.8-.8.8a.8.8 0 0 1-.8-.8c0-.4.4-.8.8-.8ZM141.3 13.4c-.5 0-.8.4-.8.8s.3.8.8.8c.4 0 .7-.4.7-.8s-.3-.8-.7-.8Zm2.9-1c-.4 0-.8.3-.8.8 0 .4.4.7.8.7s.8-.3.8-.7c0-.5-.4-.8-.8-.8Zm-4.8-1.6c-.4 0-.8.3-.8.8 0 .4.4.7.8.7.5 0 .8-.3.8-.7 0-.5-.3-.8-.8-.8Zm2.6-.2c-.4 0-.8.4-.8.8s.4.8.8.8.8-.4.8-.8-.4-.8-.8-.8Zm2.1-1.7c-.4 0-.7.4-.7.8 0 .5.3.8.7.8.5 0 .8-.3.8-.8 0-.4-.3-.8-.8-.8ZM141 8c-.4 0-.8.4-.8.8s.4.8.8.8.8-.4.8-.8-.4-.8-.8-.8Z" clip-rule="evenodd"/>
</svg>