<svg xmlns="http://www.w3.org/2000/svg" width="308" height="308" fill="none" opacity=".5">
  <mask id="a" width="190" height="249" x="118" y="0" maskUnits="userSpaceOnUse" style="mask-type:luminance">
    <path fill="#fff" d="M118.7.6h188.7v248H118.7V.7Z"/>
  </mask>
  <g mask="url(#a)">
    <path fill="#c4c29e" d="m218.3 118.6-.6-1h-.1l-.3 1.1 1-.1Zm-22.5-30.7-.1 1c0 .1 0 .3.2.3.1.1.3 0 .4 0 .1-.1.1-.3 0-.4 0-.3-.2-.5-.5-.9Zm20.8 30.9c.2-1.9.2-1.9 0-2l-.8 2.3.8-.3Zm-11.4.9h.2a10 10 0 0 0-.2-4.4v4.4Zm.2-47.7c-1.4.8-1 2.2-1 3.4l1-3.4Zm-2.3 46.7c-.5-2.5-.5-2.5-1.5-3.5 0 1.3 1 2.3 1.5 3.5Zm8 2.6c-2.2.8-3.7 2.6-5 4.5l5-4.5ZM301 56.5c-1.7.1-7.4 3-8.2 4l8.2-4Zm-93.4 64c.7-2 1-4 1-6-.4.1-1-.1-1 .5 0 1.5-.3 3-.4 4.4-.1.4-.1.9.4 1.1Zm4.1-7.2h-.3l-1.8 7.9 1-1c.7-1.7 1-3.5 1.2-5.3v-1.6Zm-43.2 116.9h.1l2.5-8.5 2-8.6-.2.1-1.4 5.3-1.4 3.8-1.4 6.6-.2 1.3Zm38-106.4c2.6-2.8 3.8-6.2 3.8-10-.9 0-1 .2-1 1-.1 1.9-.4 3.7-1 5.4 0 .5-.3 1-.6 1.4 0 .2-.4.3-.4.5-.4.5-.6 1.1-.9 1.7Zm4.8-3.4 1-.3.3.5 1.7-.7c.3-.1.7-.3.8-.6l.4-2.7-.2-.6-.2.3-1 3.1c-.2.5-.5.4-.8.2l.8-2.4h-.2l-.4.6-.5 1.4c-.2.4-.4.7-.8.2.7-1.5 1-3 1-4.6l-.3-.9h-.2c-.1 1.2-.2 2.3-.5 3.3-.2 1-.6 2.1-1 3.2Zm-35.4-36.2 1.6.5 5.4 1.6c.9.3 1.9.4 2.7.8 1.8 1 3.8 1.2 5.8 1.5-1.1-1-13.2-4.5-15.5-4.4ZM146 146.8v.6l.5 4.9c.3 2 .6 4.2 1.5 6.2v.3c-.4.6.4 1 .5 1.4 0-.6 0-1.2-.2-1.8l-.7-5-.2-3.5c0-.7-.3-1.4-.3-2 0-1 0-1-1-1.1Zm100.8-70.5.3.1.4-.9.2-4 .2-.8h.2l.3 5 .7-.2v-6A9 9 0 0 0 245 76c.3.2.8.2.9.5v1h.3c-.2-1.5 0-3 .4-4.6h.3v3.5Zm-91 74.1c-1.4 5-1 9.8 0 14.7l.1-.6.2-6v-4.8l.3-2.9-.7-.4Zm-7.8-2.7v3.6l.6 5.4c.5 2.3 1.2 4.5 1.8 6.8l.5.6v-.5l-.4-1.7a207 207 0 0 1-1.4-13c-.1-1-.2-1.1-1-1.2ZM302.1 43.5v-.3h-.5l-5.1.5c-1.5 0-3 .1-4.4.6-.5.1-1.2.4-1.3.8-.3 1-1.1 1.5-1.7 2.2l-1.3 1.6.2.1.4-.2L293 46c2-1.1 4-1.5 6.2-2l2.8-.5ZM153 167h.1l-1.1-6.6-1.2-8.7c-.2-1-.1-2-.2-3 0-.3-.4-.3-.8-.3v2.1c.1 3 .3 6.1 1 9.2.2 1.4.6 2.8 1 4.2.2.6.6 1.1.5 1.6-.2.9.3 1.1.7 1.5Zm25.6 37h.2l-.5 2.3 2-3.9a37.8 37.8 0 0 1 4.3-7.3l2.7-3.2-.1-.1-2 1c-.4.3-.9.8-1.2 1.3l-3.3 5.2c-.6 1-1.4 1.7-1.4 3l-.6-.1c-.8 0-1-.2-.8-1v-4.5c-.1-.3 0-.5 0-.8h-.2c-.5 2.8-.4 5.6.4 8.4l.5-.4ZM140.2 142l-.4.2c0 .6 0 1.2.2 1.7.7 2.8 2 5.3 3.3 7.8.3.8.8 1.5 1.2 2.2 0-.8-.2-1.6-.4-2.4l-.3-.4c-.7 0-.9-.5-1-1l-1.1-4.6-.1-1h.2c1 1.8 1 4 2 6v-.5c0-1.1-.2-2.3-.4-3.4 0-.8.2-1 .7-.9v1c.2 1.3.3 2.7.6 4 .2 1.6.4 3 1.2 4.4v.3c-.3.7.2 1 .5 1.3 0-1-.2-1.9-.3-2.8l-.8-7.2c0-.4-.2-.6-.6-.8-1.5-1-3-2-4.3-3.4l-.2-.5Zm82.7-32.1 1-.5c1-.2 1.7-.7 2.2-1.4l3.5-5 1.7-3.2 1-2.3 1.9-3.2c.8-1.6 1.9-3.2 3-4.6l1.6-1.7a2 2 0 0 0-1 .1c-1.7.7-2.7 2-3.8 3.4a21.7 21.7 0 0 0-3.2 5.8l-1.2 3.5-1 2.2a21.7 21.7 0 0 1-5.7 6.9ZM191 48h.2a83.5 83.5 0 0 1-1.2-26.2 42.5 42.5 0 0 0-2.3 15.4c0 2.4.2 4.8 1.3 7l-.1-3-.3-7.5.2-.8h.2l.2 2.3.7 10.4c0 .6-.1.7-.7.5v.2l1.8 1.7Zm-33 103.6h-.4l-.3.6-.6 5.8-.1 5c0 2.6 0 5.4.9 8 .2.5 0 1 .2 1.5.3.6.8 1 1.2 1.6-.2-2-.5-3.8-.5-5.7l.1-8.3-.1-3.2c0-1.3 0-2.6-.2-3.9 0-.5-.2-1-.3-1.4Zm26-111-.5-5.2v-3.3l.2-3.8c.2-2.2 1.2-4.1 2-6l2.7-5 .5-1.4h-.2c-5.1 5.5-8.2 11.7-7.1 19.5h.2a13381 13381 0 0 1 .8-6.2v.5l-.1 2.4v6.3l.1.4 1.4 1.8ZM151.6 149l-.3 1.5 1 8.4c.3 2.4.7 4.7 1.4 7 .3.8.7 1.6.8 2.5 0 1 .8 1.3 1.3 2.1l-.4-3.7c-.4-2.3-.8-4.5-1-6.7-.3-2.5-.3-5 .1-7.5l.4-2.6-3.3-1ZM305.6 42v-.2l-1.5-.9c-1-.5-1.8-1.1-2.8-1.5l-2.7-.6a11 11 0 0 0-5.7.6c-.9.3-1.2 1-1 2h4v.2h-.4l-3.4.7c-.8.2-1 .7-.8 1.5h.2c1.8-.6 3.7-.7 5.5-.8 2.3 0 4.5-.4 6.8-.7l1.8-.3Zm-90.8 64.7c.2-.4.4-.7.4-1 .2-1 .4-2 .4-2.9 0-.9-.4-1.8-.6-2.7l-1.3-3.3-.4-.6c-1.5-1.2-3-2.3-4.8-3-.7-.3-1.4-.7-2.2-.9-.7-.2-1.5 0-2.3-.2-.9-.2-1.4.3-1.8 1 .1.1.2.3.4.3l3.6 2c.5.3 1 .6 1.3 1.1 1 1.3 1.8 2.7 2.7 4 1 1.8 2.2 3.6 2.7 5.7l.8 2.1h.3l-.6-6.3c.2 0 .3.1.3.2l1 4.5Zm-13.9 6.4v.2c-.2.1-.6.3-.7.2a33 33 0 0 1-2.5-2.4c-1.4-1.4-2.8-2.6-4.8-2.7-.2 0-.3-.2-.5-.3l-1.4.9.6.2c1.5.9 3 1.5 4.4 2.5 2 1.6 4.2 2.4 6.7 2.6h3.4l1.7-.5v-.2c-1.3-.1-2.5-.3-3.5-1.1l-.8-.9c.5-.3.8.1 1 .3.6.3 1 .8 1.6.9h3.3l-.3-.2-3.4-2.5a19.5 19.5 0 0 1-4.7-5.2c-.7-1-1.5-1.8-2.7-2.1l1.9 2c0 .2-.1.2-.2.3l-2.6-2c-.8 1-.8 1 0 1.8l2.5 2.4.4.6-.2.1-.6-.4-2-1.9c-1.4-1-1.4-.7-2.2.2v.2l4.4 4.2 3.6 2.9.5.7-.3.3-.8-.7-2.3-1.9c-2-1.8-3.8-3.6-6.2-5l-1 .9c1.4.4 2.6 1 3.6 2l2.2 2 1.9 1.6Zm-9.2-101h-.3l-1.8 3.4c-1 2-1.7 4.1-2.8 6a20 20 0 0 0-2.5 6l-.3 3.6c-.2 2.1-.3 4.2.2 6.3l.7 4h-.5l4.3 4.5-.1-.6c-.7-1-1-2.2-1.2-3.5a41.7 41.7 0 0 1 .6-15.5l1.1-4.5 2-6.9.6-2.8Zm61.7 63.3.7-.8c1.7-1.3 3.7-2 5.8-2.4l3.8-.8c1.7-.1 3.4 0 5-.2 2-.2 4-.4 6.1-1 2.6-.7 5-1.9 7.5-3l3.8-2.3 3.6-2.2 1.6-1.2-5 2c-2 .8-4.1 1.8-6.3 2.3-4.1 1-8.3 1.6-12.5 2h-.3l-3.6 1.4-4 1.3c-.8.3-1.7.5-2.3 1.3 0 .2-.3.2-.5.2l-.5.1-3 2.1-.8 1.2h.9Zm-63.2-63.1-.6.4c-.8.6-1.5 1.3-2.3 1.7-1.3.7-2.7 1.1-4 1.8-1 .6-2 1.2-2.8 2a14 14 0 0 0-1.9 3.5c-1 2.5-1.9 5.1-1.4 8 .2 1.1.4 2.3 1.4 3.2l.4.5 1.6 2.2v-3c0-2.8.7-5.5 1.7-8 .6-1.8 1.4-3.5 2.7-5 1.4-1.6 2.7-3.4 4-5.2.5-.6 1-1.2 1.2-2.1Zm43.6 104.3v-.3l-.6-.1-.5-.6.8-.1c.9 0 1.7.3 2.6.2 1 0 2.1-.5 3.2-.5h4.8c0-.2-.2-.3-.2-.3l-5.4-.6c-1.9-.2-3.7-.3-5.5 0l-.5-.2c.1-.2.3-.3.5-.3 1.8-.4 3.7-.5 5.6-.2l5.9.7 2 .2c0-.2-.2-.3-.4-.4l-4.2-.9-4.8-1.1c-1.5-.4-3-.8-4.5-1l-4.6.3h-3c-1.7 0-3.4-.1-5 .6-1.4.5-2.8.8-4.3 1-.6 0-1.3.2-2 .4.7 1 1.3 1.8 2.3 2.2.3 0 .7.3 1 .5 2.4 1.5 5 2.1 7.9 2l6.4-.8c.9-.1 1.7-.5 2.5-.7Zm-32.6-20.2-1 1.6c-.2.4-.1.7.2 1a24 24 0 0 1 5.2 5l.5 1-.2.1a22.2 22.2 0 0 0-6.2-5.8l-1.2 2.6c1.3.5 2.2 1.4 3 2.4.5.9 1 1.7 1.6 2.4.8.9 1.8 1.6 2.7 2.5a15 15 0 0 0 5 3.2l.3-.4c1-.3 1.4-1.2 1.8-2 .2-.3.3-.7.2-1-.7-2.2-1.4-4.4-2.3-6.5-.6-1.4-1.6-2.6-2.4-4-.6-.9-1.2-1.9-2.3-2.4l-2.1-1.2-2-.8c-.6 1-.6 1.3 0 2l2.8 2.3c.4.4 1 .8 1.2 1.5l-.1.1-4.7-3.6Zm81.1 2.2V98l-.4-6.4a4 4 0 0 0-.3-1.2c-.2-.6-.4-1.2-.2-1.9l.6-3.3c.1-1-.3-1.4-1-1.8-1.5-.8-3-1.5-4.2-2.4-1.7-1.2-3.5-2-5.5-2.8-1-.4-2-.9-2.8-1.5-1-.7-2-.9-3-1.3h-.2l-3.8.7-1.6.2.3.4 2 .9c.5.2 1.2.4 1.7.8.8.4 1.5 1 2.3 1.5 1.7 1 3.2 2 4.3 3.6.7 1 1.5 1.7 2.2 2.5l2.4 2.7c1 1.2 2.1 2.4 2.8 3.9.4 1 .9 1.9 1.6 2.6 1 1 2 2.1 2.8 3.4Zm-34.9-10.3.2.2-.4.6-1.5 1.3c-.7.6-1.4 1.2-1.9 1.9a35 35 0 0 0-2 3.4c-1.4 2.3-2.7 4.6-3.8 7a19.5 19.5 0 0 1-4.5 5.8l-.4.4c2-.7 4-1.7 5.3-3.4 1.9-2.2 3.2-4.7 4.2-7.3l1.6-4c1-2.2 2.7-3.8 4.7-5.3l-2.3-1-1.2.9c-1.2 1-2.3 2-3.2 3.4-1.3 1.8-2.7 3.6-3.6 5.7l-.7 1.4-.9 1.4-.2-.1c2-5 4.7-9.3 8.5-13-.6 0-1.2.1-1.7.5a22 22 0 0 0-3 2.7c-1.2 1.2-2.1 2.6-3.1 4l-.3.2-.2-.1c.7-1.6 1.9-2.8 2.8-4.2a16 16 0 0 1 3.6-3.6h-2c-.4 0-.6 0-.6.5 0 .2-.3.4-.5.5l-.6.2c-1.4 1.1-2.7 2.4-3.6 4-1.5 2.4-2.8 4.9-4.2 7.3-.7 1.3-1.1 2.7-1.9 4-1.1 1.8-2 3.8-3.6 5.4v.4h.9c1-.4 2-1 2.7-2 1.3-1.6 2-3.6 3-5.4.8-1.3 1.3-2.6 2-3.9.1-.2.4-.2.6-.4l.2.2-2 3.7c-.6 1-1 2.1-1.5 3.1-.7 1.2-1.2 2.5-2.3 3.5l-1.6 1.6c.7 0 1.2 0 1.7-.2s1.2-.4 1.5-.8l2.2-2.9 2-3.5.6-.5.2.2-2.5 4.7a9 9 0 0 0 1.7-1.8l1.5-2.8 5-8.4c.5-1 1-2 1.7-2.9.8-1 1.9-1.7 2.8-2.5h.6ZM278 4.7h-.3l-1.1 6.6c-.4 2.6-.5 5.3-.3 8l.5 5.5c.3 2.2.7 4.3.8 6.5 0 1.2-.3 2.4-.4 3.6-.3 3.5-1.1 6.9-2.2 10.2l-3.4 10.7c-.8 2.8-1.9 5.5-3.4 8l-1.1 2 .3-.1c1.4-.7 2.2-2.1 3.3-3l1-1c1.3-1.9 2.7-3.7 3.7-5.8.7-1.5 1.6-2.9 2.2-4.4 1-2 1.8-4 2.3-6.2.6-2.7.9-5.5 1.2-8.2.2-1.5.2-3.1.3-4.7a26.4 26.4 0 0 0-.5-6.5l-1.3-6.5c-.1-1-.5-1.8-.6-2.7l-.9-6v-6Zm-24 70.8v.2h2.6c2.5.2 5-.4 7.4-.9.8-.1 1.6-.5 2.4-.1l.6-.2c1.2-1 2.6-1.5 4.1-1.5h6.2c2.6 0 5 0 7.6-.7 3.5-1 7-2.3 10-4.5.6-.6 1.4-1 2.1-1.5l3.3-3.1c.7-.7 1.5-1.4 1.7-2.4.1-.9.5-1.5 1.1-2 .3-.2.6-.5.7-.8l1.4-2.8-3.6 1.6-5.4 2.4c-1.6.7-3.2 1.5-4.6 2.6-.5.5-1 .8-1.7 1.2l-6.4 3.8a34.5 34.5 0 0 1-18.1 5.2c-2 .1-3.8.5-5.6 1-2 .5-4 1.3-5.9 2.5ZM168.7 246h.2l1.2-6.2 1.2-5.6 2-10 1.4-6 .8-2.8 1-4a22.7 22.7 0 0 0 .4-8.5l-.2-1.3c0-1-.2-2 0-3 .3-2.6.5-5.2 1-7.7l2.8-10.8 2-7.3 1.6-5.7c1.2-3.6 2.3-7.3 3.7-11 1-2.8 2.4-5.5 3.6-8.3l2.5-4.6 2.7-5.5 1.9-3 1.8-3.2 1.6-2.1 2.2-2.8c.5-.6 1-1 1.2-1.6 0-1 .7-1.9.7-3 0-1.4.4-2.9.6-4.3v-2.9c-.4 0-.5.1-.5.5v3c0 1-.3 2-.7 3l-2 4.8c0 .3-.4.5-.6.8l-.2-.2.3-.7 1.7-4.3c.1-.5.4-1-.2-1.4v-.5l.1-.9-.5-3.9h-.8l.6 4.2c.2 1.2.2 2.4-.4 3.5l-2.8 5.6c-.3.6-.8 1-1.2 1.5l-.2-.2c1.4-2 2.5-4 3.2-6.2l-.6.8-2 3.7-3.5 6c-1.2 2.3-2.2 4.6-3.3 7-1 2.2-2 4.3-2.9 6.6l-2 5.4c-.7 1.8-1.6 3.6-2.2 5.4-.7 2-1.2 4-1.7 6l-1.5 5.5-2.2 7.5-2.4 8.7c-.5 2.1-1.2 4.2-1.6 6.4l-1 7.2c-.1.4-.1.8-.7.8v5.4c0 1.1.2 2.2 0 3.3 0 .6-.4 1.2-.5 1.9l-1.3 6c-.2 1-.6 2.1-1 3.2l-1.6 6.5-1.2 4.5c0 .4 0 .8-.2 1.1l-.7 3.4-.8 4.4c0 .2-.3.4-.5.6-.1-.3-.4-.5-.3-.8l.5-3.4.4-3-1.1 3-.4 2.4c-.5 1.7.3 3 1 4.5l.1.1 4.2-17.5a7 7 0 0 1-.1 1.9l-2 9.4c-.3 1.7-.5 3.5-1 5.2-.1.8.4 1.7-.4 2.4l.1.2.7 1Zm71.7-106-.3.2 1.1 3.7c1 2.8 1.8 5.6 3.4 8.1 1.8 2.8 3.7 5.4 6.6 7.2 2 1.3 4.3 1.8 6.5 2.4 1.8.5 3.6.8 5.5 1.1 1.9.4 3.9.7 5.8 0 2-.6 3.8-1.2 5.7-2.1 1-.6 2-1 2.9-1.9l.1-.3-.4-.2h-3.5c-1.7-.2-3.5-.1-5.2-.5a50.8 50.8 0 0 1-14.4-5.6 52.3 52.3 0 0 1-12-10.2l-1.8-1.9ZM270 66.7h.4l7.8-1c2.1-.2 4-1.1 6-1.8.8-.3 1.6-.8 2.4-1 2.3-.9 4.5-2 6.4-3.4 1.6-1.1 3.2-2 5-2.7 1.6-.7 3.5-1.2 5.2-1.8 1-.4 1.8-.9 2.6-1.4l.1-.5c0-.5.1-1-.5-1.3-.4-.2-.6-.8-.8-1.2l-.5-1.2-1.9.8c-1.3.6-2.5 1.3-3.9 1.7l-8.1 2.3-2 .7h-.5l.3-.4.4-.2 3.1-1 4.4-1.3 4-1.4 4-2c.2 0 .3-.2.4-.3l.6-1.4 1.5-4-2.9.9-3 .7c-1.3.2-2.6.2-3.8.5-2 .6-3.8 1.5-5.5 2.6a98.2 98.2 0 0 0-6 4.4l-1 1.2-.4.5.1.2c3.5-2.5 7.5-4 11.5-5.6a1 1 0 0 1-.5.5c-3 1.3-6 2.6-8.7 4.3-1.8 1-3.5 2.3-5 3.7-.2.3-.4.7-1 .5 0 0-.3 0-.4.2l-1.3 1.7.1.1.6-.3L281 58l4.6-2.2h.5v.2l-1.2.8-3 1.5-2.4 1.5c-1.1.6-2.2 1.2-3.1 2-1.9 1.8-3.7 3.5-5.9 4.7l-.4.3Zm-2.3 0 .1.2 2.5-1.2c1.7-.9 3-2 4.4-3.3l2.9-3c1-1.1 1.8-2.3 2.8-3.3 2.2-2.2 4.3-4.4 6.2-6.8l2.2-2.5c.4-.5.9-1 1-1.5l.4-1.4c.5-1.2.8-2.5 1-3.8.2-1.2.2-2.4.3-3.7 0-1.2-.7-2.3-1-3.4-.4-2.1-1-4.1-2-6.1-.5-1.3-1-2.5-1.8-3.6a34 34 0 0 1-1.2-1.8c-.5-.7-.8-1.5-1.4-2.1a12.7 12.7 0 0 1-3.7-9.4c0-2.2-.7-4.2-1.7-6.3l-.1 1.2v4.7c0 1.4.1 2.8.4 4.2l1.4 6.4c.5 2.1.8 4.3 1.2 6.5.3 1.9.6 3.8.3 5.7l-.2 2.1v.7l-.4 4c0 .5.2 1 .1 1.3a57.1 57.1 0 0 1-1.7 7.9c-.9 2.1-1.7 4.3-3 6.3l-2 4c-1 1.7-2.2 3.2-3.6 4.6l-.7.6h.5c1.6-.8 2.8-2.2 3.9-3.5 1.7-2.3 3.2-4.7 4.7-7.1a35 35 0 0 0 3.4-7.9l1.7-5.7.3-2h.2v.7c-.2 2.5-.8 5-1.7 7.2-1.2 3-2 6-3.6 8.6l-2.8 4.4c-1.2 1.6-2.4 3.1-3.7 4.4-1.2 1-2.6 1.7-3.9 2.6l-1.7 1.1Zm-48.5-52.3h-.1l-.8 2.3-1.6 4.4c-.4 1.4-.9 2.7-1.8 3.7-1.6 1.9-2.5 4-2.8 6.4l-.7 4.9-.5 4.4c0 1.8 0 3.5.2 5.3l.6 7.2c0 1.5.6 2.9.8 4.3l.3.4 1.2-1.5v-.5c-.7-.6-.8-1.6-1-2.4-.4-2.6-.3-5.2-.1-7.8l.2-4.4v-1.4c.2 0 .3.2.3.2v6.3c-.1 2.7-.1 5.4.7 8 0 .3.3.6.5 1l1.2-1.3c-.2-.6-.5-1-.5-1.5L215 50l-.4-4.1-.2-3.2v-1.4h.2v.3l1 7.9c0 1.3.3 2.6 1 3.8l.6-.3 3.7-.8 6.6-1.2c.2 0 .4-.3.4-.5l-1-3.2-.8-2.4c-.5-1.7-.9-3.5-2.4-4.6l-.4-.8-1.4-4.4-2.2-6.6a16 16 0 0 1-1-5.6l.3-5.2.2-3.3Zm-46.4 173.9h.2l-.8 6.5c0 .5 0 1.2-.7 1.4l2.6 8c.2-1 .2-2 .1-2.9v-.9l.2-4.6.1-3.4c0-1.3.2-2.5.3-3.8l.2-6.2.4-4a22 22 0 0 0-.8-7.2c-.2-.9-.7-1.7-1-2.6h-.2v.5l-.2 3.7a160.8 160.8 0 0 1-1.2 10.9l-1 3.9-.3-.1.4-1.6 1-6.7c.2-1.8.5-3.6.5-5.4 0-2.3.2-4.7-.3-7-.2-1-.9-1.4-1.5-2.1.2 7.4-1 14.4-2.6 21.5v-.7l.5-3.6c.6-4 1.4-8 1.3-12.2v-1.9l-.3-3.6c0-.8-.5-1-.9-1.3l-.7 14.6h-.2v-1l.1-7.2c.2-2.5 0-5-.8-7.5l-.5-.9h-.2c.6 4.8.4 9.6-.2 14.3-.1-1.1-.2-2.2 0-3.2.2-3 .1-6-.4-8.8l-.6-3.1c0-.3 0-.8-.3-1-1-1.3-2.2-2.5-3.3-3.7l-2.5-2.4-.2 1.2v1.8l-.1 4.5-.1 7.6c-.1 1.5.2 3 .4 4.4l.6 1.5c.3.5.4.8-.5 1l1.1.7h.3v-15.8h.2c0 .8.3 1.5.3 2.3l.1 10.6.3 3.6c0 .3.2.5 0 .7-.2.6.2.9.8 1.3V172h.3v2.7l.3 3c0 1.5.5 2.8 1.8 3.8.2.1.3.4.4.6a72 72 0 0 0 1.5 3c1.4 2.4 2.6 5 3.5 7.7l.9 2.2h.2l1.5-6.8Zm71.5-121.4a60.4 60.4 0 0 1-5.5 16.4c1.4-1 2.9-2 3.9-3.4v-.2l.4-1.1 1.9-5a7 7 0 0 1 2.2-3.3 21.1 21.1 0 0 0 6.5-7.5v-.6c-.2-.3-.1-.5 0-.8.5-.9 1-1.8 1.2-2.7l.4-3c.1-1 .4-2 .3-2.9 0-1.2 0-2.4.2-3.6l.2-2c0-.6-.2-.8-.8-.6l-1.3.5-4.4 2.2c-.4.2-.6.4-.7 1l-1.5 6.1-1.2 3.2-.7 1.9c1-3.8 2.6-7.4 2.5-11.3l-8.7 1.5c0 .4.3 1 .2 1.4l-1.4 7.4-1.5 5.7-1.6 6c-.1.7-.5 1.3-.6 2-.3 2.3-1.4 4.4-2.6 6.4l-3 4.1-5.3 8.6-1 2.1.1.1 1.3-1.3 3-3.2c.7-.7 1.3-1.4 1.7-2.3l1.5-2.6 3-5a43.3 43.3 0 0 0 3.4-8c.4-1 .6-2 .8-3l1.1-4.7.4-1.7h.2l-.5 3.1a99 99 0 0 1-1 3.9c-.4 1.6-.7 3.2-1.2 4.7-1.1 3.2-2.8 6.2-4.4 9.1l-2.5 4.4c1-.3 1.8-.8 2.6-1.3.3-.1.8-.3.9-.5 0-.6.7-.9 1-1.4.8-1.5 1.8-3 2.4-4.5l2.8-8.4.3-.6c-1 4.8-2.4 9.4-4.6 13.8.6-.3 1.2-.7 1.6-1.1L238 83c.5-.6 1-1.2 1.3-2 .6-1 1.2-2.3 1.6-3.5l3.5-10.6Zm-7.5-24.6.6 1.7c.8 2 1.6 4 2.2 6.2.2.7.4.9 1 .8l3-.4c.5-.1.6-.4.4-.9l-.7-2-2.5-7.2-.6-1.6.2-.1.4.4 1.3 3c1 2.3 1.8 4.6 2.4 7.1 0 .2.3.3.4.5l.2-.6-.5-2.5c-.3-1.3-.5-2.6-.9-3.8a39.2 39.2 0 0 0-6.5-12.1l-.4-.7.3-.2a34.8 34.8 0 0 1 8.6 18.3c.1-3.1-1-6-2.2-8.8l.5.4.3.3c1.1 2.5 2 5 2.3 7.6 0 .7 0 1.2-.8 1.5l.4.6c.3 0 .6-.2.8-.4.2-.2.3-.5.3-.8.4-1.4.3-2.9.1-4.3l-.6-3.2c-.7-2.5-2.1-4.8-4-6.7-1-1.1-1.4-2.5-2-3.8-.8-1.4-1.3-3-2.6-4.1-.9-.8-1.7-1.6-2.7-2.2-1-.8-2.3-1.5-3.4-2.2l-4.8-3c-1.2-1-2.3-2-3-3.4a4 4 0 0 0-1.7-2 15 15 0 0 0-2-.8h-.6l.6.7c.5 2.2 1.6 4.2 3 6a36 36 0 0 0 8 7.8c2 1.3 3.4 3.4 4.7 5.6l.1.5-.3.2-.2-.5-2.3-2.9c-.8-1-1.7-1.8-2.6-2.7-.6-.6-1.5-1-2.1-1.5-1-1-2.1-2-3-3.1-1.9-2-3.7-4.1-4.9-6.7l-.7-1.2v.6c.5 2 1 3.9 1.7 5.7 1 2.8 2 5.5 3.7 8 .2.3.5.6.6 1 .7 2.5 2.1 4.7 2.5 7.2.1 1.3.6 2.5 1 3.7.9 2.6 1.2 5.2 1.6 7.9 0 .7-.2 1-.7 1 0-1 0-2-.2-3-.5-2.6-1-5.3-1.7-7.9-.7-2.4-1.7-4.7-2.5-7l-1-2.6c-.9-1.5-1.8-2.9-2.4-4.5l-2-5.3-1-2.8h-.1l-.3 1.6c-.2 3.7-.2 7.2 1 10.7l2.8 8.4c.3 1 .7 2 1.5 2.8.5.4.7 1 1 1.6l2 5.6.8 2.5.3-.1-1.6-8 .3-.1 2.3 8.5c3-.6 5.8.3 8.7.4v-2l-1.4-4.5c-.3-.7-.8-1.4-.4-2.2ZM204.5 50h.3c.9 3.4 1.3 7 1.3 10.6.1 3.5.5 7.1-.5 10.7.3-.4.6-.9.7-1.3.4-1 1.3-1.9 1-3.2v-2.7c-.2-2.2-.3-4.5-.6-6.7-.2-1.6-.2-3.2 0-4.8.2-1.5.3-3 .3-4.6l-.2-5v-2.5l-1.7-8c-.3-1.9-1-3.5-2.5-4.8-1.7-1.5-2.6-3.6-3.7-5.6-1.3-2.2-2.3-4.6-3.8-6.7-.4-.6-.6-1.4-1-2.1l-1-2.1c-.2.6-.4 1.2-.3 1.7.2 1.5.7 3 1 4.5.5 2.4 1.2 4.8 2.2 7.1l.6 1.9h-.2c-.6-1.1-1.2-2.2-1.6-3.4l-1.9-7-.6-1.8c-.5 1.4-.8 2.8-1 4.1-.4 1.4-.8 2.7-1 4.1-.2 3.2-.7 6.3-.5 9.5l.7 7.8 1.4 9.3 1.5 5.4c.3 1 1 2 1.6 3.1l2.7 5.1c1.6 3 3.1 6.1 4.3 9.3l.7 1.8v-.5l-.4-4.8-.8-14c-.1-2.4-.4-4.9-.8-7.3l-1.5-7.2-.5-3 .3-.1.4 1 .7 3a114.2 114.2 0 0 1 2.5 20.5l.5 9c0 1 .2 2 .4 3 1.3-7.1.7-14.1 0-21.2.8 2 .8 4.2 1 6.3.2 2 .4 4.2.4 6.3l-.2 6.4h.2l.6-3.6v-6.5l-.8-9.3-.2-1.7Zm72.7-46.6-.1-.1-3.4 5.5-2.1 3.3a44 44 0 0 1-4.6 6.3c-1.2 1.3-2.4 2.7-3.3 4.3l-1.8 3.7-1.1 3.3c-1 2.2-1.5 4.7-1.5 7.1 0 1.6.2 3.2.4 4.8.1 1.6.5 3.1.3 4.7l-.3 2.9c-.2 2.9-1.3 5.4-2.7 8-.5 1-1.5 1.9-1.7 3a18 18 0 0 1-4.5 7.5c-.5.6-1.3 1-1.1 2.1.2 1.7.2 3.3.2 5 0 .6.3.7.7.5.2-2 0-4.1.6-6.1h.3v5.8h.3l.4-3 .2-5.4.2-.6.3.6V73.5h.1c.2-.2.6-.5.7-.8l.5-3.6v-4.2c0-.2.2-.3.3-.5l.3.4v7.3c.7 0 .6-.7.6-1l.3-6 .1-2.6.3-.1.2.5V71c1.2-4.2 1.7-8.4 2.1-12.7.5 1.9 0 3.7-.2 5.5l-.6 5.5c.2 0 .3-.1.3-.2 1.3-2.3 1.6-4.9 2.3-7.4.7-2.5 1-5 1.6-7.6 0-.6.3-1 .4-1.6h.2l.2.4c0 .6 0 1.2-.2 1.8L260 64.8c-.3 1.8-.8 3.5-1.6 5v.4h.3c1.4-.6 2-1.9 2.5-3 1-1.8 1.8-3.8 2.5-5.8.6-1.6 1.4-3.3 1.5-5.1l.2-.5h.2c0 2.4-.8 4.5-1.6 6.7-1 2.1-1.8 4.3-2.7 6.4h.2a9 9 0 0 0 4.7-3.4c2.1-2.9 3.6-6.1 4.7-9.6l2.4-7.8 2-6.3a47.3 47.3 0 0 0 1.7-11l-.7-5.7c-.5-3.3-.8-6.6-.6-9.9.1-2.5.5-5 .8-7.6l.7-4.1Zm-10 81.8.2-.2 1 .3c.3.2.5.6 1 .7 1.6.6 2.9 1.8 4 3 1.2 1.2 2 2.4 3 3.6l1.5 1.6a12 12 0 0 0-2.9-5l-4.7-5.3c-.8-1-1.7-1.8-2.6-2.6l-3.7-2.2c-1.5-.9-3-1.8-4.7-2.1v-.4l-6.5-.5h-3.4v.1l2 .6 3.4 1 4.6 1.3c1.4.5 2.6 1.4 3.6 2.4l1.4 1c-.5 0-.9-.3-1.2-.5-1.5-1.1-3-2.1-4.8-2.7l-3.4-1c-1-.3-2.1-.7-3.2-.8l-4-.5c-.2 0-.4 0-.5.2l-2 1.7c-1.9 1.6-3.6 3.4-5.7 4.8-2.5 1.7-5.3 3.2-7.9 4.8-1.4.9-3 1.5-4 2.8l-1.5 1.4-2.7 3.6-2.3 3-2.7 3.8-1.7 2.4c.2 0 .4 0 .6-.2l2.6-2.2a68.2 68.2 0 0 1 5.7-4.2l.6-.2v.2l-.7.7-1.6 1a71.6 71.6 0 0 0-8.5 7.7c-.2.4.1 1-.7.9l-.2.3c-.5.9-1 1.8-1.4 2.9l2.5-.4c2-.2 4-1 5.7-2.2 1.4-1 2.7-2.2 3.9-3.4a12 12 0 0 0 2.3-3c1-1.9 1.7-4 2.5-6l1.4-3.3c1-1.9 2.2-3.7 3.8-5.1.8-.7 1.5-1.6 2.6-1.8a15 15 0 0 0 2.4-.6c1.2-.5 2.5-.6 3.8-.2l3.6 1.1c1.5.5 2.5 1.7 3.8 2.6.5.3 1 .9 1.2 1.5.3 1.4 1.1 2.5 2 3.7l.3.5c1 1.2 1.7 2.5 2.7 3.6.7.8 1.7 1.3 2.6 2 1.2.7 2.3 1.6 3.7 2 1.2.3 2.2.8 3.4 1a11 11 0 0 0 5.4-.8l2.4-1 2.5-1.5c1.2-1 2.4-1.9 4.2-1.8-.7-.8-1.2-1.6-1.9-2.2-.8-.9-1.7-1.5-2.4-2.5s-1.6-1.9-2.4-2.8c-.4-.5-.7-1.2-1.2-1.6-1.4-1.3-2.8-2.6-4.5-3.5-.8-.4-1.5-1-2.2-1.5ZM161 132.7c.3.4.3.4.7.1l1.4-1.1a34 34 0 0 0 7-9l1.5-2.2 3-3.8c1.7-2.1 3.8-3.7 6.4-4.5l7.3-2.6c2.4-.9 4.3-2.4 6.3-4 .5-.3 1-1 1.4-1.5l1-1.9c.4-.4.8-.7 1-1.2l1.2-2.4c1.1-2 2-4.2 2.4-6.6-1-.4-2-1-3-1.3-2.8-1-5.9-1.2-8.9-1.7-1.3-.2-2.5-.4-3.7-1-1-.4-2.2-.7-3.4-1-.2 0-.5.1-.7.3l-1 1.3c-1.2 1.3-2.5 2.6-3.6 4-2 2.4-3.6 5-5 7.7l-.9 1.5h-.2l.2-.7 2.3-4.3c1.3-2.6 3.1-4.7 5-7l2.4-2.7-.2-.2c-3.3 1-5.8 3.4-8.2 6-2.3 2.5-3.7 5.6-5.2 8.7.9-3.2 2.5-6.1 4.6-8.7 2-2.6 4.5-4.8 7.6-6.4-.9-.3-1.5-.2-2.2 0-1.9.5-3.5 1.2-5 2.3l-1 .4-.2-.3c2.2-1.1 4-2.8 6.5-3.2v-.2l-3.6-1v.2l-1 .7a20 20 0 0 0-5.4 3c-1.6 1.3-3 2.8-4.6 4.2l-1 1v-.2c2-2.3 3.9-4.6 6.4-6.4l-2 1-4.2 1.4c-2 .8-4 1.5-6.2 2-.9.3-1.4.7-1.5 1.6l-.6 3.5c-.2.8-.8 1.5-1 2.3l-.7 4c-.6 3.5.5 6.6 2.2 9.6 1.1 2 2.9 3.6 3.8 5.8.6 1.3 1.2 2.6 1.2 4.1l.2 2.5.4 4.7v2.3h.3l.5-1.5c.4-1.5.8-3 1-4.5.3-1.2.2-2.4.2-3.6 0-1.7.1-3.3.3-5l.9-3.8.4-1.8.4-.3c0 .1.2.3.1.5l-.3 1c-.4 2.1-1 4.1-1 6.3 0 2-.2 3.8-.3 5.7l-.2 2-.3 1.9.2-.3c1-2.4 2-4.8 2.7-7.3l.8-3.5a278 278 0 0 1 1.7-6.3l1.3-3.8.8-2.4.2.1c-.3 1.2-.5 2.4-1 3.5a93.6 93.6 0 0 0-3 11.2l-1.1 4.1a88 88 0 0 1-2.2 5.6c-.4 1-1 2-1.6 3.1ZM146.6 68l-.1.1c-.2 0-.4 0-.6-.2l-6.5-2.9c-1.6-.7-3.2-1.6-4.7-2.4-2-1-3.2-2.8-4.5-4.4-.4-.6-.8-1.3-1.3-1.7-1.8-1.6-3.1-3.5-4.3-5.5l-.8-1h-.1c0 1.5-.3 3 0 4.4a14 14 0 0 1-1.4 7.8c-.5 1.1-1.2 2.2-1.6 3.4-.8 2.4-.5 4.8.5 7 .6 0 1.1.1 1.6.4.5.2.9.8 1.4 1l6 2c1.2.4 2.3.8 3.4 1l4.5 1.3c1.6.4 3.3 1 5 1.2 3 .5 6 .8 9.1.8h4.4l5.8.1 1.4.2v.2l-.8.1-3.3-.1h-6.8a84.2 84.2 0 0 1-12.4-1.2c-2.9-.7-5.7-1.6-8.6-2.4l-5.3-1.6-2-.6v.2l.4.3c2.3 1.9 5 2.9 7.9 3.6l2.8.6 4.5 1 3.5 1c0 .2-.1.2-.2.2l-7.4-1.6c-2.8-.8-5.8-1.2-8.4-2.6-1.2-.6-2.3-1.3-3.4-2.1l-2.8-2.2c.2.7.6 1.3 1 2 .7 2 1.9 3.7 3.4 5.1 1.3 1.2 2.5 2.4 4.2 3 1.2.3 2.2 1 3.1 1.7.7.5 1.4.9 2.2 1.2l5 1.7c.6.2 1.2.6 1.8 1 1 .5 1.9 1.2 3 1.2l3.4.2 2.5.1h2c.7.1 1.4.5 2 .4a44 44 0 0 0 11-3.6c2.4-1.1 4.7-2.5 7-3.8l-4.4-.5-4-.2H151l-1.9-.2v-.2l.6-.2h13.9a182.3 182.3 0 0 1 10.5.8l2.4.5 8.2 1.9a43.5 43.5 0 0 1 7.5 2.6c.2 0 .3.4.5.6l.4.3.9-.1 1-.8c-.1-1.7-1.7-3.2-4-3.5l1 .8 2.3 1.6.1.6-.6-.1-2-1.5a24 24 0 0 0-8-3.5c-2.6-.7-5.3-1.2-8-1.2-1 0-1.9-.2-2.8-.3v-.2c5.9 0 11.5.8 17 3.5 0-.2-.1-.3-.2-.3-2.4-1.6-5-3-8-3.5-1.6-.3-3.3-.6-4.8-1.4-1-.4-1.9-.6-2.8-.8l-1.2-.3-3.1-1.2a4 4 0 0 1-1.4-.7 8.1 8.1 0 0 0-4.3-2.2c-.7 0-1.4-.1-2.1-.4l-4.4-1.6a26 26 0 0 0-5-1.6c-.3 0-.4-.2-.6-.3l.6-.4.5.1 2.7 1 3.8 1.3 1.2.5 4.3.8V73l-.6-.6a66.2 66.2 0 0 0-9.6-5.1c-2-1-4.1-1.7-6.2-2.5l-.3-.4L156 67c2.3 1 4.6 2.3 6.9 3.5-.7-1-1.2-2.1-2.2-3-1-.8-2-1.8-3.2-2.4l-7.2-3.6c-2.2-.9-4.5-1.5-6.7-2.3l-5.5-2.2-4.3-2.3-1.3-.6c0-.1 0-.3-.2-.5.2 0 .4-.2.5-.1l2.5 1.3c.8.4 1.5 1 2.3 1.3l6.6 2.7c2.1.8 4.3 1.5 6.4 2.4 2 .8 4 1.8 6 2.8l3.7 2c-.4-.8-.2-1.5-1-2-.6-.4-1-1.2-1.6-1.6l-4.9-3.1-2.7-1.6.1-.3c3.1 1.6 6.1 3.5 9.2 5.3-.4-.6 0-1.7-1-2-.2 0-.2-.2-.3-.3-.9-.8-1.6-1.9-2.6-2.5-2-1.3-4-2.3-6.1-3.4l-1.5-.8v-.2c2 .8 3.9 1.5 5.7 2.4 1.9 1 3.5 2.2 5 3.8L158 57c-.4.4-.6.2-1-.2-.3-.5-.6-1-1.1-1.3l-4.1-2.3-1.8-.8v-.2c2.7 1.1 5.5 2 7.8 4 0-.4 0-.7-.2-1a13.3 13.3 0 0 0-5.4-4.4c-1.5-.9-3.3-1-5-1a4 4 0 0 0-2 .4 21 21 0 0 0-2.8 1.7 11 11 0 0 1-6.9 1.9c-1 0-2.2-.7-3.3-1.1a20 20 0 0 1-5.7-3.3l-2.2-1.4-.2.2.5 1.4c1.2 1.9 2.2 4 3.8 5.6 1.5 1.4 2.7 3 4 4.7 1.3 1.6 3 2.5 4.9 3.4l2.7 1.4 4.8 2.3 1.8.8Zm59.2 23.7v-.4c-.8-1.2-1.6-2.3-2-3.6-1-2.8-1.3-5.6-1.3-8.4l-.1-2.5c-.6-3.7-2-7-3.7-10.4L196 61c-.7-1.4-1.3-2.7-2.1-4-1-1.7-1.7-3.5-2.2-5.3-.3-1-.5-1.9-1-2.6a70.2 70.2 0 0 0-4.4-4.8c-2-2-3.8-4-5.2-6.5-.5-1-1-2-1.7-2.8L176 31l-.5-.4-.2.2a81.3 81.3 0 0 1 12 29.7 6 6 0 0 1-.7-1.5L185 53c-1.5-4.4-3-8.7-5-12.9l-3-5.6-2.1-3.7c-.3-.5-.2-1.1-.5-1.4-.9-1-1.9-1.7-2.8-2.6-.6-.5-1.3-1.1-1.7-1.8l-3.3-5.7c0-.2-.2-.3-.4-.6v.4c.8 1.8 1 3.8 1 5.7v5.5l-.1 4.9c0 1.3 0 2.6.2 3.8l1.4 5.4c.4 1.9 1 3.7 2 5.4l.1.6c-.3-.2-.5-.3-.5-.5l-1.8-3.8-.5-2c-.8-2-1.3-4.2-1.5-6.4v-4.1l.2-7.7c-.1-1.7-.5-3.4-.7-5l-.3-.6h-.2a1286.2 1286.2 0 0 1-.9 4.2l.4.7c0 .6-.2 1.1-.3 1.7l-.3 5.2v4.7c.4 3.7 1.1 7.4 2.7 11l1.5 3.2 2.3 5 .1.7-.2.1-.5-.6-1.9-4a43.8 43.8 0 0 1-4-11.4l-.4-4.6-.3-3.8v-3.6h-.1l-1.4 6.3-.7 6.3h-.2l-.1-.6v-2l.7-5.3.8-3.7.4-1.4.7-2.5c-.9.8-1.8 1.1-2.8 1.4-1 .2-1.7 1-2.2 2-.3.8-.6 1.6-1.1 2.2-.5.9-1 1.8-1 2.8a243.7 243.7 0 0 0 0 8.6l.6 4.2.6 5.4 1.3 7a21.7 21.7 0 0 0 4.4 10.5c1.6 2.1 3.6 3.7 5.5 5.4.5.4 1.1.5 1.7.8l1.5.5 3.9 1.2V77.7c-2.3-2.4-4.6-4.7-6.3-7.5a55.7 55.7 0 0 1-4.3-8.3l-1-3.7c0-.3-.2-.6.2-.8.2 0 .4.5.6.7v.2c.3 1.3.4 2.6.9 3.8.7 2.1 1.6 4.2 3 6l3 4.4c1 1.3 2.2 2.4 3.2 3.6 1 1 1.8 2 3.1 2.4.3 0 .7.2.7.3.1.6.6.6 1 .6 3.2.4 6.1 1.5 8.9 3.2 1.3.8 2.8 1.4 4.3 2.1v-.1c0-.2-.1-.3-.3-.4l-3.4-3.3-2-2c-1.7-1.3-3.5-2.7-5.1-4.2-.9-.7-1.7-1.4-2.4-2.3-1.3-1.7-2.4-3.5-3.6-5.3l-3.2-5c.5-.2.5-.2.8.3l5 7.5c1.7 2.7 4.2 4.8 6.6 6.8l4.5 3.9 3.2 2.9L195 85l-.1-.4-4.5-6-2.5-3c-2.2-2.4-4.5-4.6-6.4-7.2l-5-7c-1-1.3-2-2.7-2.5-4.3v-.8l.7 1c.6 1 1.1 2.2 1.8 3.2l4.6 6.3c1.2 1.6 2.5 3.3 4 4.8l6.1 7c2 2.2 3.9 4.6 5.3 7.3.6 1 .8 2.1.7 3.3 0 .4 0 .5.4.6l2.5.9 1.9.8c-.8-.7-1.7-1.1-2.3-1.9-1-1.5-2-3-2.8-4.7-1-2.3-1.7-4.8-2.7-7.2l-3.3-8.1-.4-1.3h.3l.4.6 1.5 3.2 2.4 6.5c.8 2 1.5 4.1 2.5 6.1A31 31 0 0 0 200 89c.5.7 1.2 1.3 2.1 1.6l-1.8-2.8-1.6-2.8a73.1 73.1 0 0 1-3-6l-1-3h.2l.4.7 3 6.3 1.9 3.3c.8 1.4 1.7 2.7 2.8 3.9l.6.4c-1-2.4-2.2-4.7-3-7-1-2.4-1.6-4.8-2.4-7.2l.3-.1 1.2 3.3c1 2.9 2 5.7 3.4 8.3l2.1 3.5.4.2Zm49.6 27.9-.7-.3a18 18 0 0 0-4.5-2l-4.8-1.2c-1-.2-2 0-3 0l4 1.8 5.4 2.3c.5.2 1 .6 1.4 1l-.1.2-1.5-.8-3-1.2c-1.9-.7-3.6-1.6-5.4-2.1-1.7-.5-3.3-.8-5-1.1l-1 .1v.3l2.4.8 4.2 1.8 1.4.7 4.8 2.7 2.9 1.9 4.6 3.1c1.8 1.5 3.5 3 5.4 4.3l.8.7-.2.2-.7-.3-3.6-2.7c-1.3-1-2.5-2.1-3.9-3-1-.9-2.3-1.6-3.5-2.3l-7.3-4.4c-1.2-.7-2.5-1.1-3.8-1.6-1.1-.5-2.3-.8-3.4-1.1-1-.4-2-.8-3.1-.2-.7.4-1.5.5-2.3.7l-2.3.5-6.1.3h-3l2.4.8c1.6.7 3.4 1 5.2 1.4l3.7.7 5.5.7c1.4.1 3 0 4.3.6l2.6.8 3.8 1.5 1.2.7-.1.2-.7-.2c-2-1-4-1.7-6-2.3-1.7-.4-3.3-.8-5-.8a116.9 116.9 0 0 1-9-1.3l-5-1.1-3.2-1c-.7-.3-1.3-.2-2 .2l3 1c1 .4 2.3.8 3.3 1.4l4.8 3a20 20 0 0 1 5.5 5.5c.9 1.2 1.6 2.5 2.6 3.6 1.3 1.5 2.8 2.7 4.3 4l.2.3 6.8 5.5 2.8 2c.3.2.8.5.5 1-.4.4-.7-.1-1-.3a144 144 0 0 1-10-8l-2.4-2.4c.3.5.4 1.2 1 1.6.6.3.8 1.2 1.2 1.7a58.3 58.3 0 0 0 14.5 12.7c2.6 1.4 5.1 3 8.1 3.6 2.4.6 4.7 1.5 7.2 1.7 2.2.2 4.3.3 6.5.1l.4-.1c-1-.3-2-.4-3-.5-1.7-.4-3.5-.8-5.3-1a15 15 0 0 1-5-1.8l-.4-.4.2-.2.8.3 4.2 1.5c1.5.4 3 .6 4.5.8l4.8.6h.9l-.8.7h-.1l.2.6 1.5-.7c1-.4 2-.9 3-1 1.4-.2 2.7-.1 4-.1l.6-.3-.1-.2c-.5.4-1 .2-1.4-.1l-2.8-1.8-2.6-1.6-5-3.5c-2.4-1.7-4.6-3.5-6.9-5.3l-3.2-3-5.3-5.2-4.6-4.2-1.7-1.5.2-.2.6.3c2.3 1.7 4.3 3.8 6.3 5.8l3.4 3.3a114 114 0 0 0 11.6 9.6c1.4 1.1 3 2 4.5 3l3.8 2.3-4.3-5.2-3.8-4.5-4-4.5c-1-1.1-2.3-2.1-3.5-3.1-1-1-2.3-1.7-3.4-2.5l-.5-.6.1-.2 1 .7c.7.4 1.4.7 2 1.2a46.2 46.2 0 0 1 6.4 5.5l4.4 5.3 6.6 7.5c.5.6 1.2 1 1.8 1.6v-.4l-2.2-3.8-.7-1.2c-1.2-2.3-2-4.7-3.7-6.7-1-1.2-1.7-2.8-2.4-4.3a140 140 0 0 1-3.4-7.9c-.6-1.4-1-3-1.8-4.3-1-1.4-2.1-2.7-3.6-3.9-1.6-1.2-3.3-2-5.2-2.5l-7.8-2.4c-1.3-.4-2.6-.8-4-1-.7-.2-1.6 0-2.4 0l4.6 2.4.8.7Zm-36.6-49.2c2.2-6.2 4.4-12.4 7.1-18.5l-2.2.5-4.7.8c-.8.2-1.6.6-2.3 1-1.2 1-2.2 2.2-3 3.5-1 1.6-1.7 3.4-2.6 5l-3.2 6a40.2 40.2 0 0 0-3.7 11.2c-.4 2.6.4 5 .5 7.6 0 .8.6 1.5 1 2.3h.1V89c-.3-2.9-.5-5.7-.2-8.6l.4-.2-.2 2.7.3 3c-.1 1.6.3 3.2.7 4.8 0 .3.1.7.7.7l.2.3.2.6-.8-8c-.2-2.5 0-5.1.8-7.7v.7c0 1.6-.3 3.1-.4 4.7l.1 2.8c.1 1.1 0 2.3.3 3.3.3 1.5.5 3 1.2 4.3.3.4.5.5 1 .6-1.9-6-.9-11.8.4-17.6 0 1.4-.3 2.8-.4 4.3l-.5 5c0 2.7.3 5.4 1 8 .2.5.2 1.2 1.1 1.3 0-.8-.4-1.4-.3-2.2.2-1.1 0-2.3 0-3.4a51.4 51.4 0 0 1 1.4-13.4l.7-2.3h.2v.5l-.7 2.2-.3 3c-.3 1.8-.6 3.6-.7 5.3v5.5c0 1.5 0 3.2.8 4.6v.6c-.1.5.2.7.5 1l1.4 1.3c-.2-6 .4-12 2.3-17.7 0 .5 0 1-.2 1.6L216 84a57.6 57.6 0 0 0-.8 10.7c0 1.5.3 3 .5 4.5.4 1.7 1 3.4.7 5.3l2-6.6 2.6-8.7a22 22 0 0 1 1.7-3.6c1.2-2.2 2.5-4.2 3.6-6.4 1.5-2.7 2.7-5.5 4-8.3l1.1-2h.2v.5l-1 2-3 6-.7 1.6-3.4 6c-.5 1.1-1.2 2.2-1.6 3.3l-1.7 5.3c-.3 1-.7 1.8-.9 2.8l-1.3 6 2.9-4h-.3c0-.3-.2-.7-.1-.9a48.8 48.8 0 0 1 4.1-7.7l2-3 1.8-2.7c1.1-1.6 2.3-3.2 3.3-4.9.8-1.3 1.3-2.9 2-4.3.4-1.4.9-2.7 1.2-4.1.6-2 1-4.2 1.5-6.3 1-3.7 2.1-7.3 2.3-11.2v-1l-.4-.1a49.5 49.5 0 0 1-5.9 14.3l1.8-4.2c1-1.9 1.7-4 2.3-6l1.4-5c-.7 0-1.5 0-2.2-.3-2.8-.5-5.4-.2-8 .4-.3 0-.7.1-.8.3-1 1.6-1.8 3.2-2.6 5-.7 1.5-1.2 3.2-1.8 4.8l-3.3 8.2c0 .2-.2.3-.4.5ZM171 204.5c.3.6.5 1.2.9 1.7.8 1.5 1.8 2.9 1.5 4.7v.3c0-.4.2-.8.4-1.2.1-.2.3-.3.3-.5v-.8c.1-.7 0-1.2-.8-1.3l-.2-.4c0-.2.2-.3.4-.3l.3-.1-.4-1.5-.5.1-1.7-.4-.2-.3c0-.7.3-.7.8-.6l1.3.4v-.1c-.7-1.2-2-1.1-3.2-1.6l.3-.5 2.4.3c0-.1 0-.4-.2-.5a6.7 6.7 0 0 0-3-1.3l-1.6-.2c.1-.5.3-.8.9-.7l.7.1 2.6.7v-.3c-.2 0-.2-.2-.3-.2-1.4-.9-2.8-1.7-4.5-1.8-.3 0-.6 0-.5-.4l.7-.3 3.3 1 .7.2-.5-1.7c0-.4-.2-1-.5-1.1-1.7-.7-3.4-1.2-5.1-1.7l-3.9-.8.2-.7 8.6 2c-.2-.4-.4-.8-.6-.9-2.3-1.2-4.7-2-7.3-2.2l-2.2-.3v-.2l.6-.2h.8c2.2.2 4.4.7 6.6 1.3l1.2.4-.4-1.1-1.2-.5c-1.8-1-3.7-1.7-5.8-1.9l-2-.2v-.3c3-.2 5.6.5 8.3 1.6 0-1.2-.8-1.7-1.7-2.1-1.5-.7-3-1.3-4.7-1.5l-8.3-1.4c-1.9-.3-3.7-.9-5.3-1.7-.2-.1-.2-.4-.3-.6h.5l.6.2a22 22 0 0 0 6.8 1.8c2.5.3 5 .5 7.5 1.3l3.6.9c0-.7-.6-.6-1-.8l-.6-.3-.5-.5-5-2.2-.4-.3.1-.3c2.2.6 4.2 1.6 6.5 2.4-.4-.8-.7-1.4-1.2-1.8a4 4 0 0 0-1.6-.8l-8.7-2.1c-1-.3-2.2-.4-3.2-.6v-.2l.6-.2h.6l7.6 1.6 2.4.4-.9-.9 1-.4-1.8-2.4c-.5-.6-1.1-1.3-1.8-1.8-.7-.6-1.6-.9-2.4-1.3l-2.4-1.6-8-4c-1-.3-1.8-.8-2.6-1.3-.2 0-.3-.3-.3-.5l.2-.3.4.3c.1.3.4.5.7.6l5.8 2.9 5 2.3 2.2 1h.1l-1.4-2-1-.8-5.3-2.5-5.3-2.9-2-1.3-.3-.6h.2c2.6 2.2 8.2 4.7 12 6-.9-1-1.3-2-2.5-2.4l-2.6-1.1-4.2-2.4c-1-.5-1.9-1.2-2.8-2l-.2-.4c.2 0 .4 0 .5.2l.6.6 4 2.3 4.2 1.9v-.4l-1.8-2.4a1300.9 1300.9 0 0 0-8.2-4.6c-.4-.2-.5-.4-.2-.8 2.2 1.8 4.7 2.7 7.3 3.6-.3-.5-.6-1.2-1-1.5l-4.5-2.8-2-1.3c-.4-.2-.7-.5-.4-.9l3 1.9 3 1.4c-.6-.9-.9-1.8-1.7-2.3l-3.6-2.8-.3-.5.1-.1 3 1.7c-1-1.9-2-3.7-2.8-5.5l-2.5-5.6v3.5c0 1.3.3 2.6.3 4 0 2.5-.4 5-1 7.6-.3 1.2-.4 2.5-.3 3.8l1.1 7.3c.3 1.5.8 3 1.6 4.1l.8.1c.4.6 1 1 1.7 1.2 1.7.6 3.3 1.5 5 2 2.6.6 5.3 1 8 1.5l1.6.6v.3a65.3 65.3 0 0 1-16-4l.8 1.4c1.2 2.2 2.9 4 4.4 5.9.8.8 1.9 1.4 2.8 2.1l4.9 4.2c1.3 1.2 2.7 2.3 4.1 3.3l4.6 3 .6-.2c2 .2 4.2.4 6.2 1.2.4.2.9.4.6 1-.2.5-.6 0-1 0-1.9-1-3.9-1.4-6-1.5a57.4 57.4 0 0 1 6.9 8c0 .2.2.3.3.4Zm27.9-68.9.3-.1 2-3.3 3.2-4.4 1.2-1.4a27.8 27.8 0 0 0-6.7 9.2l-2.5 4.2-1 2.4-.3.5-2.5 4.6c-1.5 3.2-3.2 6.4-4.3 9.8l-2.5 7.5-2.6 9-.9 3 2.8-8 3-9.4 3-7.3 3.5-7.6.8-2 .3-.5 2.6-4.6.6-1.6Zm-75.3-88.4c1 .4 2 1 3 1.7 1.6 1.3 3.2 2.5 5.3 3.1 1 .3 1.7.8 2.6 1.2 1.4.4 2.8 0 4.2-.2 2-.3 3.4-1.3 4.9-2.5 1.4-1.2 3-1.5 4.9-1.2l1.8.3c1.1.2 2 .8 3 1.3 1.3.6 2.6 1 4 1.5l-.3-2-.5-6.7c-.1-1.4-.4-2.8-.4-4.3-.1-2.2-.2-4.5.4-6.6l.8-1.7 1.4-2.6c.6-1 1.5-1.6 2.7-1.8a3 3 0 0 0 2.4-2.4c.4-1.5 1-3 1.3-4.7l.3-1.2c.2-.6.6-.7 1.1-.3.8.6 1 1.4 1.3 2.1l2.7 4.8c.3.5.8.9 1.2 1.2l4.2 3.7.4.6h.2v-2.7l1.1-4.6 1-2.6a7.8 7.8 0 0 1 3.4-4.2c1.2-.7 2.5-1.2 3.8-1.7a11.2 11.2 0 0 0 5-4.3c.2-.4.7-.7 1-1h.7c.8.8 1.4 1.7 1.8 2.7l2 4 3.3 6c1 2 2 3.8 3.6 5.4l.5.5c1.3 1 1.7 2.2 2 3.7.4 2.6 1 5 1.5 7.6.2 1.3.1 2.5.2 3.8l.3 5.5c0 1.8-.3 3.6-.4 5.4l.1 3 .8 6.1.2 2.7 1-1.4 2.4-4.6v-1.3l-.2-1.5a878 878 0 0 1-.8-6.3l-.5-4.7v-6.7l.5-3.2.6-5.2a12 12 0 0 1 3.1-6.5 9 9 0 0 0 1.8-3.6l1.4-3.6.8-2.4c.2-.7.3-1.3.6-1.9.2-.5.7-.8 1.3-.6 1.8.6 3.6 1.3 4.4 3.3a6.6 6.6 0 0 0 2.7 2.8l5.3 3.4c1.2.8 2.5 1.4 3.7 2.3 1 .6 1.8 1.5 2.6 2.3 1 1.2 1.7 2.6 2.2 4 .7 2 1.9 3.5 3.2 5 1.7 2 3 4.4 3.4 7.1l.6 4.1-.2 2.3h.3c1.9-.6 3.6-1.4 5.3-2.6.4-.3 1-.5 1.7-.6l.8.4c.4.6.3 1.4.2 2-.3 1.7-.5 3.3-.3 5 0 1-.3 2.1-.5 3.2l-.2 1.5c.1 0 .2 0 .3-.2.6-1 1.3-2.1 1.7-3.3.6-1.2 1-2.5 1.1-3.9l.6-4.5-.2-4-.1-1.8c0-.7-.1-1.4-.3-2-.3-1.4.1-2.8.2-4.2.1-1.6.8-3.1 1.4-4.6l2.4-6c.8-1.8 2-3.2 3.2-4.6l4-5.3c.7-1 1.5-1.8 2-2.8.9-1.2 1.4-2.6 2.2-3.8L276 4l.7-1.3 1.1-2 .4-.2.4.5.5 1c-.2.8.2 1.6.6 2.4 1 1.9 1.3 3.9 1.3 6 0 3.2 1.1 6 3.3 8.3.7.7 1.2 1.7 1.7 2.5.8 1.3 1.7 2.5 2.4 3.8.8 1.4 1.3 2.9 1.9 4.4l.4 1.7 1 3.2c.3 1.2.4 2.4.3 3.7v.6h.4a12 12 0 0 1 5.1-.6c1.8.1 3.5.3 5 1 1 .5 1.8 1.2 2.7 1.7l1.3.8c.7.4.8.8.5 1.5l-2.1 5.6c-.3.7.2 2.1 1 2.5.6.2.8.7.8 1.3V54c0 .4 0 .8-.2 1l-1.1 1.3c-.4.5-.4 1-.8 1.6-.4.6-1 1-1.4 1.7-.2.3-.5.7-.5 1-.1 1.2-.9 2-1.7 2.8l-4.5 3.9a36.1 36.1 0 0 1-10.3 5.3c-2.3.7-4.7 1.2-7.2 1-1.1-.2-2.3 0-3.4 0h-4.4a5 5 0 0 0-3.6 1.5 17 17 0 0 0 4.7 2.7c1.8.7 3.4 1.7 5 2.7 1.3.8 2.7 1.5 4 2.1.9.4 1.6 1.8 1.4 3L282 89c0 .3 0 .7.2 1 0 .7.3 1.2.3 1.8l.5 7v.5c.3.7.2 1-.6 1h-.3c-1.4-.3-2.5.3-3.6 1.1-.5.5-1.2.8-1.8 1.2l-2.9 1.4c-1 .4-2.2.7-3.4 1-2 .5-4 .1-5.9-.7-.5-.3-1.2-.3-1.7-.6l-2.6-1.6c-1.4-1-2.8-1.8-3.9-3.1l-1.4-2.2-1.6-2.3c-.4-.7-.8-1.3-1-2-.3-1.5-1.4-2.1-2.4-2.7h-.6l-1.8 1.5c-2 1.6-3.1 3.8-3.9 6.3-.5 1.6-1.4 3.2-2.1 4.7a18 18 0 0 1-3.2 4.5c-.8.9-1.8 1.4-2.8 2-1.2.6-2.4 1-3.8 1.3l-.3.1.2.2 3.8.3 2.2.8 2.7.6 4.5 1a305.3 305.3 0 0 1 13 3.8l7.2 2.5a15.2 15.2 0 0 1 10.3 10.3c.7 2.4 1.8 4.8 2.8 7.1 1.2 2.6 2.6 5.1 4.4 7.4.6.8.9 1.7 1.4 2.6l2 3.7c1 1.5 1.8 3 2.4 4.8.2.8-.3 1.5-1.4 1.5-1.1.1-2.2.2-3.3.1-1.2 0-2.1.4-3.1.9s-2 1.3-3 2c-.8.7-1.8 1.1-2.8 1.6-2 1-4.2 1.8-6.4 2.3-2 .4-4.1 0-6.2-.5l-4.5-.9c-2.4-.7-4.9-1.2-7-2.7a25 25 0 0 1-9-12.5l-2.3-7.4c-.4-1-.8-2.1-1.4-3a109.8 109.8 0 0 0-6.4-9.4c-.6-.7-1.5-1.2-2.3-1.8-1.6-1-3.1-2-4.8-2.9-2.3-1.3-4.7-2-7.3-2.5-.9-.2-1.5.2-2.2.5-1.4.6-2.9 1.2-4 2.1a45.6 45.6 0 0 0-13.7 17.8 275.5 275.5 0 0 0-6.5 14.1l-2.7 7.2-2 6.2-1.9 5.8-2.7 8.7c-.6 1.8-1 3.6-1.4 5.4l-.5 2.2c-.7 2.9-1 5.8-1 8.8l.2 1.3.2.3 2.8-4.2 2.1-3.3c.4-.5 1-1 1.6-1.2 1.2-.6 2.4-1.2 3.2-2.3.1-.1.5-.2.7 0l.2.5-.9 1.4-.5.8c0 .6-.4.8-.8 1a9.2 9.2 0 0 0-2.9 3.1l-3 5.4c-1 2-2 3.9-2.7 6-1 2.7-1.7 5.5-2.5 8.2l-2.4 9.3-.8 4.2-2 9.5a2907.1 2907.1 0 0 1-1.7 8.4c-.2.3-.4.4-.6 0a19.5 19.5 0 0 1-3-5 5.9 5.9 0 0 1-.3-3.9c.7-2.4 1.5-4.9 2-7.3.5-1.4.7-2.8 1-4.3l.8-3.5c.2-1 .4-2.1.8-3 1-2.3 1.5-4.6 2-7 .4-1 .5-2 .5-3.1 0-.8-.3-1.6-.7-2.2-.4-1-1-2-1.6-3l-2.9-3.7-.8-1c-1.6-1.6-3.2-3.4-5-5-.5-.6-1.3-.9-2-1.3-2-1-3.7-2.6-5.4-4l-2.7-2.5-3-2.3c-1.8-1.2-3-2.9-4.3-4.6a47.4 47.4 0 0 1-3.4-5c-1-2-2-4-2.4-6.2l-1-7c-.2-1.7.2-3.4.6-5 .3-1 .3-1.9.5-2.8 0-.7.3-1.4.3-2 0-1.4-.2-2.7-.3-4 0-2.1-.2-4.2.2-6.2 0-.3.2-.5.3-.7.3-.6 1-.8 1.5-.2 1.4 1.5 3.1 2.8 4.8 4 .5.4 1.1.6 1.7.9l.9.5 2 .6 4.8 1.6c1 .4 2 1 3 1.6l1.2.6c.3 0 .6.3.8.5l5.6 6 1.7 2.3c1 1.1 2 2 3.3 2.7 1.3.8 2.3 1.7 3 3 .6 1.3 1 2.6 1.7 3.9 1 2.5 1.4 5.2 1.3 7.9 0 1.8-.4 3.6-.5 5.4l-.2 6.4-.2 3-.2 2.6h.2l1.1-5 1.4-5.6 1.6-6 2.7-9c.6-2.2 1-4.4 1.7-6.5a138.8 138.8 0 0 1 5.3-14.5 260.7 260.7 0 0 1 7.7-16.8l3.9-6.6 1.8-3.6c.4-.9.3-1.7-.2-2.6a43.4 43.4 0 0 1-1.7-3.5c0-.5-.2-.7-.6-.8a12 12 0 0 1-5-2.6c-1.3-1.2-3-1.8-4.6-2.4h-.5l-8.7 3.3c-2.9 1-5.1 2.8-7 5.3a16 16 0 0 1-1.3 1.6c-1.5 1.6-2.3 3.6-3.5 5.3-1 1.5-2.2 3-3.4 4.4-1 1.3-2.3 2.4-3.5 3.6-.7.8-1.3 1-1.8.4-.7-.9-1.4-1.8-1.3-3 .2-3.2-.6-6.3-.7-9.5 0-.8-.6-1.6-1-2.4-.6-1.7-1.8-3-2.8-4.5-1.5-2-2.4-4.1-3-6.5-.4-1.6-.3-3.2-.2-4.8.1-1.7.3-3.4 1-5 .2-.8.6-1.5.9-2.3l.1-.6.3-3.3-1.8-.2-4.3-.2c-1.7 0-3.3-.1-4.8-1l-1.6-.9-4-1.5a231 231 0 0 1-4.3-1.8c-1-1-2.1-1.7-3.4-2.1a18.4 18.4 0 0 1-9.2-11.5 17 17 0 0 1-.8-3.4c-.2-1.9 0-3.7 1-5.4 1.3-2.1 2.2-4.4 2.3-7V54c0-2 .1-4.2.3-6.2 0-.2 0-.4.2-.6Z"/>
  </g>
  <path fill="#c4c29e" d="M253.7 121.8c.8 0 5.7 3.5 6.8 4.9a35 35 0 0 1-6.8-4.9ZM255.4 119.5c.7.3 1.4.7 2 1.3l-.2.2-1.8-1.5ZM167 92.8l-.8 1a43.4 43.4 0 0 0-5.5 8 30 30 0 0 0-3.2 7l-.9 3.3-.1 1.4c0 .2-.3.3-.5.5l-.4-.6 1.4-4.9c.7-2.4 1.8-4.6 3-6.7l2.4-3.8 3.4-4.7c.3-.3.5-.6 1.2-.5ZM218.8 70.3s.2.2.1.3l-.7 3.1h-.2l.8-3.4ZM218.1 74l-.8 3h-.2l.8-3h.2ZM265.5 50.3v-.5c-.2-1.7-.2-3.4-.5-5s-1-3.1-1.5-4.6l-2.2-6.8-.3-.1a75.3 75.3 0 0 0 .8 7.5c.1.7.7 1.3.8 2l.3 4.8v.4h-.3l-.2-1.5c0-2-.5-4-1-6a30.1 30.1 0 0 1-.9-9.6l.3-.4.5.4.4 2.2 1.1 3.4 1.9 5.5c.4 1.2.8 2.4 1 3.7.2 1.3.1 2.7.2 4l-.2.6h-.2ZM199.2 24.7a39.3 39.3 0 0 1 5.8 18.6c-.7-3.2-1.3-6.4-2.3-9.5-1-3.1-2.3-6-3.5-9.1ZM239 41.8l2.3 5.7c.3.7.4 1.4.5 2.2l-.4.7-.4-.7-1-3.9-1-3c-.2-.3-.2-.6-.2-1h.2ZM217.6 115.6h7.2c.6 0 1.2-.2 1.8-.4l2.4-.4c.1 0 .3 0 .4.2l-.3.3c-1.6.3-3.2.8-4.8 1-2 .1-4 0-6.1-.1-.3 0-.7 0-.6-.6Z"/>
  <mask id="b" width="155" height="249" x="0" y="59" maskUnits="userSpaceOnUse" style="mask-type:luminance">
    <path fill="#fff" d="M.8 59.3h153.9v247.9H.7V59.3Z"/>
  </mask>
  <g mask="url(#b)">
    <path fill="#c4c29e" d="M126 252.4h-.1l.8 1.8h.1l-.8-1.8Zm-55.9-67 .8-.5v-.1l-1.2.1.4.5Zm-26.8 36.8c.5-.2 1.3 0 1.5-1l-1.5 1Zm32.9-36.6v-.2h-1.6l.2.6 1.4-.4Zm-4.5.6v.3c1 .5 1.8-.3 2.7-.4v-.2l-2.7.3Zm44.2-113.8-.6 4.2h.2c.2-.6.3-1.3.6-1.9.4-.8 0-1.5-.2-2.3Zm-49 48 .2-.2-3.5-3.6-.3.2.7.9c.5.5 1.1.9 1.4 1.5.3.8 1 .8 1.6 1.2Zm47.8 102.2c-.6-2.9-1.9-5.5-3.3-8l-.3-.1 3.6 8Zm-74.6-24.7-.2-.1a18.8 18.8 0 0 0-3.7 5.4c1.3-1.4 2.5-3 3.7-4.5.2-.2.2-.5.2-.8Zm60.2-89.3c-.7-3-.6-5.9-.4-8.9-1.6 3.1-.5 6 .4 8.9Zm-25 79.6v.2l1 .2 3.7-1.2 2.5-.5v-.2h-2c-.6 0-1 .1-1.5.3l-3.8 1.2ZM14.3 83.7l4.7 2c.1-1.4-1.9-2.7-4.7-2Zm66 102.4c-2.5-.6-4.8.2-7 1 .7.7.7.7 1.5.3l.2-.1 5.3-1.2Zm-.5-48.2c-1.7-4-3.5-7.9-6-11.4 1.6 4 3.7 7.8 6 11.4ZM20.2 87.6c-.2-.5-.5-1-1.2-1.3-.9-.3-1.6-.9-2.5-1.1-.9-.3-1.7-1-2.8-.6-.5-.7-1-.7-1.9-.2l8.4 3.2Zm81.3 6.9h-.2c-.7 2.9-.9 5.8-1 8.9 0 3 .8 6 1.9 8.8l-.8-4.7c-.2-1.3-.5-2.7-.5-4 0-2 .3-3.8.4-5.7l.2-3.3Zm-14.2 94.4v-.2l-1.1-.2-2.3-1a.8.8 0 0 0-.4-.2l-3.7.8c-.9.2-1.7.6-2.6.9v.2h1l5.5-1h1.1c.2 0 .3.2.4.3l-.4.2-2.4.2-3.5.8v.1c.5.2.8.5 1.3.2l1.7-.4 3.8-.5 1.6-.2Zm15-96.8-.2 1.6v2.8l-.6 6c-.1 2.3.3 4.5.9 6.7.2-.9.2-14.3-.1-17Zm-41.7 25.4c-2 1.5-3.5 3.2-3.4 5.9l.3 4.3.4-.4.4.3-.4 2c.3-.7.5-1.4.9-1.8l3.7-4.5 1.1-1.4c-.5 0-.8.1-.9.6 0 .2-.2.4-.3.5l-.6.3c1-2.2 1.4-4.2.9-6.5l-1 5.1-1.4 3.6c-.2.2-.3.4-.6.1 1.3-2.5 2-5.2 1.9-8-.5.7-1 1.4-1.3 2.2-.5 1.6-1.4 3.2-1.4 5l-.3.4h-.3c.3-2.7 1.3-5.1 2.3-7.7Zm90.7 187.4c-.3-.8-.4-1.6-.8-2.2l-4-7.5c-.7-1-1.4-2-2-3.2-1-1.8-1.8-3.7-2.7-5.5l-3-5.3c-.4-1-.7-1.9-1.2-2.7l-1.6-3-1.6-3.3-2.8-6.7c-.5-1.3-1-2.6-1.7-3.8l-1-2.3c-.1.2-.2.3-.1.4.6 1.7 1.2 3.6 2 5.3 1.1 2.9 2.5 5.7 3.7 8.6a626.5 626.5 0 0 0 6 12.4c1.2 2.7 2.3 5.4 4.1 7.7l3 4.4.6.9c.6 1.4 1.2 2.8 1.6 4.2.2.8.8 1.3 1.5 1.6ZM91.1 199.7c3.1-1.7 5.4-4.2 8-6.7l-2.7-.8c-2-.6-3.8-.6-5.8-.5-1.5.1-2.6.7-3.5 2a7.5 7.5 0 0 1 4 6Zm11.4-111.2.5 5.2c.3 4 .3 8 .2 12v6l.4 2.5c.4-.8.8-1.5 1-2.2.9-2.2 1.3-4.3 1.1-6.6-.1-1.2 0-2.3.2-3.4.3-1 .3-2 .3-2.9l-.2-2.3v-2.5c-.1-.6-.3-1.2-.6-1.7l-3-4.1Zm-39 27v.2c1 .2 2 .3 2.8.6l6 3c.7.4 1.4 1.1 2.2 1.5 1.6.7 3.2.7 4.8-.1l1.4-.6 3.8-1.2-1.8-.8c-1.4-.6-2.5-1.4-3.7-2.4a8.7 8.7 0 0 0-4.3-2.3l-2-.5-2-.4.1.2 4.6 1.9.3.3-.2.2 1.8.8v.2l-1.5-.5c-2.2-.8-4.4-1.6-6.7-1.8l-.8.1v.2l2.2.4c2 .4 4.1.8 6 1.9l.3.4-.1.2-1.5-.6c-2-1-4.3-1.4-6.6-1.5-.5 0-1.2-.3-1.7.4 1.8.6 3.5 1 5 2-2.7-.8-5.5-1.9-8.4-1.8Zm-34 111.2c2-.5 3.8-1.2 5.8-1.4-2.5.9-5.2 1.3-7.1 3.3v.2l8.1-1.6v.1l-.2.1-8.2 2.2c-.2 0-.4.3-.6.4l.1.2c2.7 0 5.3-.7 8-1.2l-.5.3-5.3 1.3c-.2 0-.4.2-.5.4l.3.4c1 .7 1.9 1.2 2.5 2.3 1.3 2 3.3 3 5.6 3.3.6.1 1.3 0 1.9-.1.9-.3.9-.2 1.1-1.2.2-.8.4-1.6.8-2.3.8-1.4.9-3 1.3-4.4l-6.1 1c-2 .4-3.9 1-6 1.3 0-.3.1-.5.2-.5 4-.9 8.2-1.6 12.3-2.9l.5-2.8-4 1.2h-.7v-.1l.7-.3 4.2-1.6.3-.5c-2.5.1-4.6 1.1-6.8 1.6l-.1-.3c1.7-.5 3.5-1 5.2-1.7l-.2-.5-4 1.3a5 5 0 0 1-3.7-.2c-.6-.2-1.2-.5-1.7.3h-.3c-1.5.3-2 1.5-3 2.4Zm123.2 78.6.1-.1c.1-1.5-.6-2.7-1-4a42.4 42.4 0 0 0-3.9-8.2l-3.6-6-2.5-4.6-2.5-4.7-3.5-7.9-2.5-5.7-1.8-4.9-4-10.7-2-5.4-2.2-4.7-3.4-8.1-2.4-6-3.2-7.5-.3-.6-.1.1 4.9 14.8h-.3c-1-2.2-1.7-4.7-2.7-7l.1 1.3.8 2.1 3 9.9 2.2 6h.2l-.1-.7-.4-1.7.2-.5.3.3.7 2 .7 2.6 2 4 2.6 6 1.5 4 2.7 5.7c.6 1.5 1 3 1.7 4.4.7 1.8 1.6 3.5 2.5 5.2 1 2.2 2 4.4 3.2 6.5.7 1.3 1.5 2.4 2.1 3.7l2.5 4.9 1.4 2.9 4 6.6a30 30 0 0 1 2.6 5.6c0 .2.2.3.4.4ZM56.2 173.4v-.2l-2.1-1c-2.3-.8-4.3-2-6.8-2.1-1.3 0-2.6-.2-3.8-.3-1.8 0-3.3.8-5 1.3-.2 0-.3.2-.5.4l-3.7 3.2c-.2 0-.3.2-.5.3-1.9 1-3.3 2.3-4.4 4.2-.4.7-1 1.4-1.7 2l-2.1 2a13.1 13.1 0 0 1-4.5 3.4c-.8.3-1.5.8-2.4 1.3h.6l3.6-.7c2.6-.7 4.9-2.1 7.2-3.4l5.2-3 1.5-.6v.3l-.4.2-1.9 1-7.8 4.4c-1.8 1-3.9 1.7-6 2.2l-2.6.4c0 .2-.2.6.3.7 2 .4 3.8.9 5.7 1 1 .2 2.1-.2 3.2-.4 2.6-.4 5-1.4 7.5-2.5l1.1-.5.1.2a52.3 52.3 0 0 1-8.8 3.5c.7.2 1.2.6 2 .3.9-.5 1.9-.7 2.8-1l1.4-.5.1.2-3.9 1.9.4.2c2 .6 3.8.9 5.8.8 1.5 0 2.8-.7 4.1-1.2.5-.2 1-.4 1.2-1l1.7-3.3 1.4-2a3.5 3.5 0 0 1 3-1.8l1.4-.2 5-.6c2 0 3.9.2 5.8.3l5.2.2c1.2 0 2.4.4 3.4 1.2-1-1.2-.9-2.9-2-4l.1 1.3c-2-1-4.1-.8-6.2-.7l-6 .3v-.3c3.6-.4 7.4-.5 11.2-.8-.5-.2-1-.4-1.4-.4l-4.4.2c-3 0-6 .2-9 1.3h-.5c2.4-1.3 5-1.6 7.6-1.7 2.7 0 5.3-.6 7.9-.2-.3-.8-4-3.7-5.4-4.1-.2.5-.4.7-.7.4-.7-.4-1.5-.4-2.3-.3l-5.5.3c-2.7.1-5.2.8-7.5 2l-1.6.7v-.2c1.6-1.2 3.4-2 5.4-2.5 2.2-.4 4.6-.5 6.9-.8l2.3-.2v-.1l-.6-.3c-1.2-.2-2.5-.4-3.7-.4-2.7-.2-5.3-.1-7.8.8-2.4.8-4.7 1.6-6.8 3h-.6v-.1c5.7-3.8 12-5.3 18.8-4Zm1.8-55.3-7.4 2.1c-2.5.7-5 1-7.5 1.1v-.3c3.4-.6 7-.9 10.4-2.3l-2.7.1c-2.4.1-4.9.6-7.3 0h-.3c-.4.7-1 .5-1.5.5H37l-8 1h-1.2v-.1c4.4-1.1 9-1.2 13.5-1.6l-1.8-.6h-.3l-1 .2h-2.9l-5.8.8h-1.6v-.1l9.5-1.5c-.6-.8-1.6-.7-2.5-.7-1.5-.2-3 .2-4.5.5l-1.2.1v-.2l5.2-1.2c-1-.6-2.2-.1-3.3-.2-1.1 0-2.2.3-3.4.4v-.2l4.3-1-.7-.2c-1-.1-1.8-.6-2.8-.3l-3.7 1-8.6 2.3c-.7.2-1.3.4-1.9 1l-1 .8-1.1 1.5c-.7.8-1.3 1.8-1.9 2.7L9.2 125a60 60 0 0 1 7.3-2.5l-.6.5-5.9 2.4c-1.4.6-2.4 1.5-3.5 2.5l4-1c3.1-.9 6.3-1.2 9.6-1.3l9.2-.1c2 0 3.8-.4 5.7-.6l.7.2-.6.3-4.1.4c-.7.1-1.3.3-2 .2-1-.2-2-.2-3.2 0h-4c-2.3.2-4.6.2-6.8.5-1.7.2-3.4.7-5 1.2l-3 .8c.1.2.2.3.4.3l3.7 1.4 5.4 2.5c2.4 1 4.9.8 7.3.2l3.6-1.1c.7-.2 1.5 0 2.2-.1 2.1-.4 4.2-.2 6.3 0 2.4.3 4.6.1 6.8-1 1.6-.8 3.2-1.7 4.6-3l1.8-1.4 1.7-1.2v-.2c-1.9.5-3.6 1.2-5.6 1.2l.3-.2 5.2-1.6a3 3 0 0 0 2-1.6 31.3 31.3 0 0 1-12 3.6c4.8-1 9.4-2.3 13.3-5.3-.3 0-.6.3-.9.4-1.6.6-3.2 1.3-4.9 1.7l-5.7 1.3h-.7l.5-.6h.3l2.6-.6c.9-.1 1.8-.1 2.6-.4 1.3-.4 2.6-.8 3.9-1.4l2.7-1.4 3.6-2ZM7.6 100h-.2l.1 2.3c.3 1.4.8 2.7 1 4 .3 1.4 1 2.6 1.9 3.6.8.9 1.8 1.7 2.8 2.5a4 4 0 0 0 2.8 1l7-.5c1.6 0 3.2-.3 4.7.1l3.3 1 3.1 1 5.4 2.4c2.1.8 4.4 1.1 6.7 1.2l5.4-.3c2 0 4-.4 6-1l.5-.3v-.2c-3.3.6-6.6.6-9.8 0-3.2-.7-6.2-1.9-9.1-3.2a33.4 33.4 0 0 0 11.9 3.2c3.3.2 6.5 0 9.7-1.2.4.5.8.1 1.3 0l-2.5-.1-6.3-1c-2.4-.5-4.5-1.6-6.7-2.7l-4.5-2.2-3.4-1.5c-.3-.2-.7-.3-.7-1l1 .5 8.5 4c3 1.6 6.3 2.5 9.7 3l4 .2 1.2-.1v-.2c-4.6-.9-9-2.2-13.5-3.7v-.2l10.3 2.7v-.2a5 5 0 0 0-2-1.3c-2.3-.7-4.5-1.6-6.7-2.4l-4.2-1.5-3.5-1.3a13476.5 13476.5 0 0 1 14 4.4v-.2l-1.4-1.5c-1.8-1.7-3.5-3.5-5.5-5a12 12 0 0 0-5.8-2.5 24 24 0 0 1-6.4-1.6c-1.8-.8-3.5-1.7-5-3-1.3-1-2.6-2.1-4-3-.5-.5-1.2-.7-1.8-1.1L21.3 89c-1-.6-2-1.3-3.1-1.7l-6-2.1c-.9-.3-1.8-.5-2.7.3l2.7.7a45.5 45.5 0 0 1 5.2 2l2.6 1.2c.8.4 1.6.7 2.2 1.4-4.4-2-8.8-4.3-13.9-4.6l-1.9 1 .7.2c3.8 1.2 7.6 2.5 11.2 4.2 1.4.7 2.8 1.5 4.3 2.1l8.4 3.5c.2 0 .3.3.5.4v.2l-.8-.3-2.3-1-9.4-4c-2.6-1.2-5.2-2.3-7.9-3.2L6 88c-.4 0-.9.2-1.1 0-.7-.5-1 .1-1.5.2l4.7 2.2 3.3 1.6 8.6 4c2.1 1.2 4.1 2.6 6.2 4l3 2c-.1.1-.3.1-.4 0-1.2-.7-2.5-1.3-3.7-2.1-2.7-2-5.6-3.7-8.6-5l-3-1.4L6 90c-1-.5-2.1-1-3.2-1l1 2c.5 1 1 2.2 1.7 3.2.4.5.7 1.1.8 1.7.3 1.4.7 2.6 1.7 3.6.7.7 1.3 1.6 2.2 2.1 1.8 1.2 3.7 2.2 5.6 3.3l1.5.8v.2l-.6-.2-1.3-.7-5-2.6-1.6-1.4-1.2-1.1Zm61.3 136.4-.3.2a53.5 53.5 0 0 1-8.8 4.2h-.6v-.1l.1-.2 2.2-.9a39 39 0 0 0 7.1-3.9c1-.7 1.3-1.9 2-3l-2.7 1.3-3.6 1.7-.6.1-.1-.1c.2-.1.3-.3.5-.3l4.8-2.6c.9-.5 1.6-1.2 2.5-1.6 1-.4 1.3-1.1 1.6-2-2.9 1.6-5.6 3.4-8.7 4.5l3.3-2c1.8-1 3.5-2.2 5.2-3.3.6-.4 1-1 1-1.7l-2.6 1.4-.1-.2.4-.4a8.5 8.5 0 0 0 3-3l1-1.3 2.8-3c1.7-2 3.2-4.1 5.2-5.8 1.5-1.1 2.8-2.4 4-3.9l.5-.8-.1-.1-1.2 1.1c-.9.8-.9.8-1.4.8a10 10 0 0 0 3.2-4.7l-.2.2-4.1 4.8-5.2 5c-2.6 2.3-5 4.7-8 6.5-2.2 1.4-4.2 2.8-6.3 4-2 1.3-4 2.3-6 3.5l-3.2 2c-.1.2-.3.1-.5.1 0-.2.1-.4.3-.5l1.7-1 1.8-1.2 6-3.4 5.3-3.5 3.8-2.6c1.3-1 2.6-2.2 3.8-3.4l4-3.5 5-5.8c1.1-1.3 2-2.7 3-4.1v-.5H89c0 .4-.3.6-.4.8l-.4.5c-.6.7-1.1 1.6-1.8 2.3-1.5 1.7-3 3.5-4.7 5.1l-4.1 3.8-1.4.8v-.1c2.2-1.6 4.2-3.7 6-5.7 2-2 4-4 5.3-6.6a3 3 0 0 0-1.9 1.2l-.6.6-4.6 3.2c-1 .7-2 1.7-3.1 2.4-1.3.7-2.7 1.1-4 1.7l-1 .4c-.4.5-.7 1-1.2 1.4l-2.5 2.4c.2-.8 1-1.3 1.5-2l1.6-2.1-.7-.4c-1.8 1.9-3.4 3.8-5.4 5.5l-.1-.1 4.7-5.5-1-.2h-.7l.1.2-6 6-.2-.2c1.7-2 3.6-3.8 5.1-6-2.2.2-4.4.2-6.6-.2-.1 0-.3 0-.5.2l-1.3 1-4 3.8-2.9 3.5-1 1.3-.3-.2c2.4-3.7 5.5-6.8 8.6-9.8-.3 0-.7-.2-.9 0l-3.3 2.7c-.7.5-1.2 1.1-1.8 1.7l-.2-.2c1.3-1.7 2.8-3.1 4.4-4.6-1.1-.3-2.1-1-3.3-.6a7.7 7.7 0 0 0-4.3 3.4l-1 1.4-.7 1-1.5 2.4c-.9 1-1.7 2-2 3.3l-1.5 6L42 233c-.2.9-.8 1.7-1 2.5-.3 1.7-1.1 3.1-2 4.5-.5.7-.4 1 .4 1.3l2.7.8 1.3.3 3 .6 3.7 1.4c2.3.8 4.8 1 7.2.5 2.6-.4 5.2-1 7.6-1.8l3.5-1.2c.8-.4 1-1.1.6-2l-.6.4-4.4 2.1-.7.2v-.2l.2-.2 4.8-2.6c.4-.3.7-.6.6-1.2-1.4.8-2.8 1.7-4.3 2.4-1.4.7-3 1.4-4.6 1.6l.7-.4c2-1 4-1.8 6-2.9 1-.6 2.4-1 2.1-2.8Zm70.7-48.8v-.2c-1 .4-2 .7-2.7 1.2l-5.2 3.8c-2.3 1.5-4.6 3.1-7.1 4.4-2.6 1.4-5.3 2.4-8 3.6l-.6-.1c0-.2.2-.4.3-.5l6-2.7c2-.9 4-1.8 5.9-2.9 1.3-.7 2.4-1.7 3.6-2.5l4-3.2 2.3-1.4-1-.7c-.7-.6-1.6-1-2.6-1-1.7.1-3.4.2-5.1.7-2.8.8-5.7.4-8.5.4l-4.6-.2c-2 0-3.7.6-5.4 1.4-2.9 1.3-5.7 2.8-8.6 4.2-1.7.8-3.1 2-4.4 3.4a34.9 34.9 0 0 1-5 4.3l-1.5 1.3v.2c3.2-.4 5.9-1.8 8.7-2.8-2.6 1.7-5.5 2.6-8.4 3.7l.4.2c2 0 3.8-.3 5.6-1l4.7-1.5h.4v.1c-3.6 1.5-7.3 3-11.3 3.3 0 .7.7.7 1 1 1.2 1 2.6 1.2 3.9 1.3 1.5 0 3 0 4.5-.2 2.4-.3 4.7-.8 7-1.7l2-.8v.2a19.3 19.3 0 0 1-8.1 2.7c-3 .4-5.8.9-8.7-.2v.1l.4.7h1l1.7.3c3 .5 6 .3 9-.3l5.4-1.4 1.5-.4v.2a35.1 35.1 0 0 1-18 2.4c.4 1.2.9 1.8 1.8 1.7.8 0 1.5.4 2.3.6 1.5.3 3 .9 4.4 1.1 3.4.5 6.9.8 10.3.6 1.5-.1 3-.3 4.4-1h.4c-1.5 1-3.3 1.4-5 1.5l-6.5-.1h-2c.3 0 .6.2.8.3l3.5 1 1 .3a63 63 0 0 1 2.7 1.2c.6.5 1.1 1 2 .7l2-.3 5-.4c.6 0 1.2-.2 1.7-.5l5.6-3.4c1.5-.9 3-1.6 4.6-2.4 1-.6 2.2-.8 2.7-2.1l1.4-3 1.4-6c.3-1.9.6-3.7.3-5.6-.2-1.3 0-2.5.7-3.6Zm-64 2v-.3h-.2l-6.7-3.7c-3-1.8-2-1.7-6-1.9-1.4 0-2.8 0-4.1-.2a37 37 0 0 0-8.4 0c-1 .2-1.8.5-2.7.5-1.3 0-2.2.6-2.8 1.6l-.8 1a175.6 175.6 0 0 0-2.1 4c.4.5 0 .7-.2 1l-.4.5c-.7 2.3-1.1 4.6-.1 7 .3.7.4 1.4.3 2.3l-.3 1.5h.1l2.6-3.1c.9-1.1 1.8-2.1 3-2.8 0 .2 0 .3-.2.4l-1 .9-3.4 4.4c-.5.6-1 1.3-1.2 2-.2.4-.3.7-.8.5v1h.2c4.2-7 10.5-11.2 17.8-14.3l-.3.3-1.9 1a38 38 0 0 0-9.8 6.5 23.1 23.1 0 0 0-4.9 6.1l-.8.8h.2c1.4.1 2.8 0 4 .4 1.3.2 2.4.3 3.5-.2l7.2-3.3 2.6-1.3.2.2c-3.5 2.1-7.2 4-11 5.5.9.6 1.7 1.2 3 .8L55 207l5.3-1.9.2.1v.2c-3.4 1.6-7.2 2.5-10.7 4.1 2 1 4 .5 6.1.6l-.8.5c.8.2 1.5.2 2 .5 1.4.7 2.8.6 4.2.1l5.4-2a15 15 0 0 0 4-2.5l2.8-2.4 1.5-1a28.9 28.9 0 0 1-13.5 8.6l.5.2h6.5c.8 0 1.6 0 2.3.3.8.3 1.5.3 2.1.2 1.1-.3 2.2-.7 3.2-1.2.6-.3 1.2-1 1.8-1.4.9-.6 1.8-1.1 2.6-1.8l2.8-2c.7-.5 1.4-.9 2-1.6.1-.2.3-.4.6-.5 1-.6 2-1.3 3.3-1.5.6 0 1-.6 1-1a7 7 0 0 0-.6-4.4c-.2-.4-.4-.5-.8-.4l-2.2.8c-1.9.9-3.5 2-5 3.3l-.6.2c2.2-2.2 4.7-4 7.6-5-.5-1-.7-1-1.5-.6h-.3l-1.7.3-2.5 1h-.1c1.3-1 2.9-1.5 4.4-2.3l-.7-.4c-1.3-.7-2.4-1.7-4-1.8l-.2-.2-.3-.2c-1 0-2.1 0-3 .3-2.6.9-5.2 2-7.7 3l-1.8.8-.2-.2c1.6-1.2 3.5-1.8 5.3-2.5l5.7-2.2a34 34 0 0 0-17.8-.8l.2-.4c4.3-.8 8.6-1.6 13-.4Zm-5 61.4a4979.3 4979.3 0 0 1 4.2-7.4c0 .2 0 .5-.2.6l-1.5 3-1.7 4c0 .2 0 .6-.2.7-.4.3-.2.6 0 1l2.9-4 3.2-3.6c1-1 2-2.4 3.4-3.2 0 .3-.2.6-.4.8L77 246c-2 2-3.4 4.3-4.9 6.6-.2.4-.6.9-.2 1.4V255l.4.1 3.6-1.3c2.4-1.1 4.8-2.2 7-3.5a23 23 0 0 0 8.3-8.9c.8-1.6 1.4-3.2 1.8-5l.8-5 .1-.4h.2v.9c0 .8-.2 1.7-.4 2.5-.3 1.8-.5 3.6-1.1 5.3a20.7 20.7 0 0 1-8 10.2 38 38 0 0 1-9.3 4.8l-.4.2a11 11 0 0 0 6.5 2l2-.2c1.6 0 3.1-.2 4.5-1l4.2-2.4L94 252l.1.1a30.7 30.7 0 0 1-8.3 5c1 .2 2 .5 3 .4a9.9 9.9 0 0 0 6.3-3.3c1.3-1.3 2.4-2.8 3.4-4.3l2.8-4.5a7 7 0 0 0 .7-6.7l-1.4-3.5c-.7-2.5-1.4-5.1-1.9-7.7-.4-2.4-1.1-4.8-1.8-7.2l-.8-2.8v-.5l-.2-.5c0 2.8 0 5.4-.5 8l-.1-.4.2-2.9a101.1 101.1 0 0 0-.7-10.4c0-.7-.4-1.4-.6-2.1h-.2l.3 2.1.1 3.5.5 7-.3 4.2-.1 1.7h-.2L94 224v-6.2c0-2.4-.3-4.8-.5-7.2 0-.8-.2-1.5-.4-2.2H93v.7c0 3.5.2 7-.6 10.4l-.5 1.5h-.1v-.8c.3-2 .7-3.9.8-5.8 0-2.7-.3-5.4-.5-8l-.4-.7c0 1.4-.2 2.7-.3 4 0 1.4-.4 3.2-.8 3.5l.3-2.4.1-2.3-.1.2c-.8 3-2 5.7-3.4 8.5-.8 1.7-1.7 3.3-2.4 5.1-.9 2.3-1.8 4.5-3 6.6l-1 1.6-.2-.1.1-.4.9-1.6a256 256 0 0 0 5-10.7c.8-2 1.8-4 2.5-6 .8-2.2 1.2-4.6 1.4-7v-.5l-.9 2.4c-.8 3-2.4 5.6-4.9 7.6-1 .8-2.1 1.7-3 2.7-1.9 2-3.5 4.2-5.4 6.1a8.2 8.2 0 0 0-2.1 4.4 8 8 0 0 1-2.1 4.3l-.9 1.1a9.8 9.8 0 0 0-1.4 7c.4 2.9.8 5.8.5 8.7v2.5ZM49.7 92.6l2 1.4c1.3 1.1 2.8 2.1 4 3.3 2 1.8 3.7 3.7 5.3 5.9 1 1.5 2 3.2 2.7 5l1.2 3.1c.3-1 .6-1.7.4-2.6l-.3-1.3c-.3-1.3-.4-2.5-1-3.7-.8-1.9-1.9-3.6-2.8-5.5l-.3-.6h.2c2.9 3.8 5 7.9 4.8 12.9.2-.7.4-1.4.4-2.2 0-.9 0-1.8-.2-2.7l-1.4-5.8-.6-3.1c-.2-2 .2-4 .6-6v-1.6c-.8-1-1.4-2.1-2.2-3-1.6-2-3.7-3.6-5.7-5.3l-1.2-.9-1.2-.9h.2a40 40 0 0 1 10.1 8.7c0-.5 0-1.1-.3-1.4-1.1-1.2-2.4-2.3-3.6-3.4l-1.8-1.6.1-.1 4.5 3.3c0-.3-.2-.4-.3-.6-.8-1.2-1.7-2.3-2.4-3.6-.8-1.5-2-2.6-3.1-3.9l-1-.5-3.2-1.3a140.6 140.6 0 0 1-13.2-7.9c-2.1-1.4-4-3-6.2-4.4-.8-.6-1.7-1-2.8-.8h-.6c-1.3 0-2.5.3-3.6 1l-1.2.8c2.1.8 4.3 1.2 6.2 2.3l-2-.5-4.2-1.1c-1-.3-1.6.2-2.4.9a41 41 0 0 1 18.5 7 2 2 0 0 1-.7-.2c-1.6-.8-3-1.7-4.7-2.4-2-1-4.2-1.8-6.4-2.6-2.4-.8-5-1-7.6-1.2l-.5.3 6.5 1.9v.2h-.3l-6.8-1.4c-.2 0-.4 0-.5.2-1.5.9-3 1.4-4.8 1.3l-2.1.1.5.7c1.4 1.4 3.2 2 5 2.6l16.7 6c1 .3 2.1.8 3.1 1.3l.6.5-.1.2-2.2-1-1.3-.6-2.9-1.2-6.3-2c-2-.6-3.8-1.2-5.6-2l-5.1-1.8-2.5-1.3c.6.8 1.2 1.5 2 2.2l4.4 3.3c2.5 1.8 5.2 3.2 8 4.6l.7.5-.2.2A64.2 64.2 0 0 1 14.4 71l2.3 4.7c.6 1.3 1.1 2.7 2.1 3.8 1.1 1.2 2.2 2.5 3.5 3.6 2.3 2 4.8 3.9 7.2 5.8l.4.5-.2.2c-4-2.7-7.6-6.1-11.3-9.3 0 .5 0 1 .2 1.5l1.8 4.4c0 .3.4.4.5.7 0 .7.5 1 1 1.4.7.7 1.5 1.4 2.4 2 1 .8 2.2 1.7 3.5 2.3 1.5.7 2.7 1.7 4 2.8a20.2 20.2 0 0 0 10.3 5.2c1.3.1 2.6.3 3.9.7 2.4.6 4.5 2 6.3 3.7 2.2 2 4.3 4.2 6.4 6.3a8 8 0 0 0 4.6 2.3c.4 0 1 0 1-.5 0-1 .3-2.1-.3-3.1-.3-.4-.4-1-.6-1.4-.4-1-.7-2.2-1.3-3-1.4-2.1-2.7-4-4.5-5.7l-2.8-3c-1.6-1.3-3.2-2.5-4.7-3.9-.2 0-.2-.3-.3-.5Zm-29 123.6-.5-.1.4-.9 1.8-2.6.4-.8-3.2 4-.7.5-.2-.2 2.4-3 2-3.4-.2-.1a61.8 61.8 0 0 1-5.6 7.2v-.6l1.4-1.8L22 210l1.1-2.4c.1-.2.4-.5.3-.7a16.5 16.5 0 0 1 1.9-9.3c1.1-1.6 2.4-3 3.7-4.6.3-.4.5-.3 1 0l-.4.5-1.8 1.8a12.6 12.6 0 0 0-3.2 5.2 20 20 0 0 0-.6 6.6l.1 2c1-2.1 1.9-4.3 3-6.4 1.1-2 2.5-4 3.7-6l.2.2-.2.5-2.4 3.7a36.6 36.6 0 0 0-3.4 8c-.1.5-.4 1-.7 1.5l.4 2.7.9-1.6h.2l-.3 1.2c-.2.7-.2 1.5-.6 2-.7.8-.3 1.5-.3 2.3 1.7-2.9 2.7-6.1 4.9-8.7l-.1.6a32 32 0 0 0-2.8 5.3l-2.2 4.8c-.2.7-.6 1.4-.4 2.2 0 .3-.3.6-.4 1h-.3l.9 1.6c2.3-4 3.9-8.1 6.6-11.6l-6.2 12 .2.2 2-.7c1.8-1 3.8-1.1 5.8-1 .4 0 .9 0 1.2-.2 1.5-1 3-2 4.4-3.2l4.2-3.7h.2l.2.2c-2.8 2.4-5.5 5-8.4 7.4 2-.8 3.8-2.2 5.6-3.5l.1.2-4.6 3.7h1.4c2.2-.4 4.2-1.2 6.1-2.3a8.8 8.8 0 0 0 3.4-3.1c.8-1.4 1.9-2.6 2.8-3.9l2-2.8c.2-.3.7-.4 1-.6-.4-.3-.7-.2-1 .1l-3.2 3.4-.6.5-.1-.2 1.9-2.3-.2-.2-4.1 4.4-.2-.2c1.3-1.9 3-3.5 4.3-5.4l-4.2 4.1.2-.5c.5-.5 1-1 1.3-1.5l2.3-2.9c.2-.2.5-.5 0-.7a31.8 31.8 0 0 1-3.5 3.2l-.2-.2 3-3c-1-1.6-2.4-1.8-3.8-2-1.3-.3-2.7-.2-4-.3-.3 0-.4 0-.5-.4a6 6 0 0 1 .4-3.2l.7-2.1c-1 .6-1.6 1.7-2.6 2 0-.1 0-.3.2-.4l1.4-1.9c.2-.2.3-.5.3-.8 0-.4.2-.8.7-.8l-.3-.9c-2.2 2.5-3.8 5.2-6 7.6l.1-.6c.6-.6.7-1.5 1-2.2l2.9-4.9c.6-1 1.7-2 1.5-3.4l.2-1.9H40c-2.4 3.3-4.4 6.9-6.5 10.4 2-4 4-8 6.6-11.6a13.8 13.8 0 0 0-3.5 4.3c-1 1.6-1.8 3.3-2.7 5l-.2-.1c.5-1.5 1.2-2.9 2-4.2L38 193c-.8 0-1 .1-1.3.8l-.4.6-2 2.6-.9 1.4h-.1c.6-1.8 1.7-3.3 2.7-5l-3.4-.2c-3 2.6-4.8 6-7 9.2 1.8-3.3 3.4-6.7 6.2-9.3l-3.3-1v.5l-2.7 2.8-1.1 1.6-.2-.1c.7-2 2.3-3.4 3.6-5l-.7-.3v.1c-1.8 1.9-3.3 4-4.5 6.2.8-2.4 2-4.6 4-6.5-.9-.2-1.5-.4-2.1.3l-.6.4c-.6.4-1.3.8-1.7 1.4a40.4 40.4 0 0 0-3.3 6c-.5 1.1-.7 2.2-.8 3.3 0 1.7-.2 3.3-.5 4.9-.1 1.1-.5 2.2-.8 3.4-.7 2-1 4-2 6l-.3 1 1-.2c1.8-.2 3.4-1 5-1.7.6-.2 1.1-.5 1.4-1.1l1.7-3v-.3l-2 2.5-1.1 1.9Zm45.9-105 .2-.4 1.1-4.4.5-1.7h.2c0 2.8-1.1 5.3-1.7 8l.4-.5 1.8-4.5 1.5-4.3c0-.2.3-.4.4-.6h.2l-2.9 9.2.7-1 1-2a22 22 0 0 0 2.3-7.4l.7-5.5c.4-2.6.3-5.2-.3-7.7l-.2-1.5h.3l.2 1c.4 1.6 1 3.3.7 5l-.6 5.7c-.1 1.6-.1 3.2-.4 4.8-.7 2.7-1.7 5.3-3.1 7.8l-.2.6h.1c.5-.5 1.1-1.1 1.3-1.8.4-1.4 1.5-2.4 2-3.7l.7-1c1.4-1.5 2.3-3.3 2.6-5.3l.3-6c.2-2.8 0-5.6-.6-8.3-.6-2.9-1.5-5.7-2.2-8.5l-1.1-4c-.2-.6 0-1.2 0-1.8-.1-.3-.3-.8-.6-.9l-3-1.3v.6c.2 1.1.2 2.2.5 3.2l2.2 7.7.1 1-.2.1-.3-1-1-3.6c-.2-1-.7-1.8-1-2.7a33 33 0 0 1-.6-3.4c-.2-.8 0-1.7-.3-2.5-.2-.7-1-1.3-1.4-1.9H67l.3 4.2H67l-1.5-8-.4 1.2v2.6a66.1 66.1 0 0 0 2.7 10.7l1.7 5.7v.7l-.6-1.7-2.2-7-1.6-5.5a14 14 0 0 1-.7-4.1v-2.7l.1-.8h.2c0-.5-.2-1-1-1h-.4c-.4-.1-.7 0-1 .4l-1 .8-1.4 1c-.7.4-1.3 1-2.2 1.1-.3 0-.6.4-.8.7-1 1.2-1.5 2.7-1.9 4.3-.3 1-.3 2.2.2 3.2l.4 1.2c.4.7.7 1.5 1.7 1.6.2 0 .4.2.5.3.6.6 1.3 1.1 1.8 1.8l1.7 2.2c.8 1 1.5 2.3 2.3 3.4.8 1.3 1.8 2.4 2 4.1.1 1.5.2 2.8-.2 4.3-.3 1.2-.4 2.5-.5 3.7 0 1.4.1 2.7.5 4 .6 2 1 4.2 1.5 6.3.3 1.2.5 2.4.3 3.6l-.5 2.1-1 1.7.2.2.8-1.9Zm41-5.6c-.2.7-.6 1.2-.7 1.9-.4 2-1.1 3.7-2 5.5-.5 1-1 2-.9 3.2 0 .5 0 .8-.6.6v2.4l-1.4 7.6a96 96 0 0 0-1.5 12.6l-.3 9.4-.1 6.7-.4 6.4.2 3.4v4.4l.3 6.3c0 .3-.4.7-.6 1l-.8-.5-.3-.4-2.9-5.2-2.1-4.1-3-5.6c-1.3-2.7-2.4-5.5-3.6-8.2l-2.2-4.7-1-2.1-.1.2 1.2 3.3 4.4 9.8 3.1 6.5 5.1 10.4.9 2.4-.3.1-.2-.3-4.7-9.7-2-4-1-2-2.1-4.5c-.9-1.8-1.6-3.7-2.4-5.6l-1.5-3.3-2.9-7.1c-.8-2.1-2-4-3.1-6-1.5-2.5-3-5-4-7.7-.6-1.3-1.4-2.5-2.2-3.9l1 .1-1.9-2-1-.7-1.5-1.4-2-2 2.5 3.4-.3.2-.7-.9c.5 1 .8 2 1.8 2.4.2 0 .3.2.4.3 1.3 1.4 2 3 2.8 4.8 1 2.7 2 5.5 3.3 8.1 1.4 3 3 5.7 4.5 8.5L83 150l2.4 5.4 2.1 4.3v.7l-.5-.2-1.5-1v.2l.1.6c.5 1 1.3 2 1.3 3.1l.2.2 1.2 1.5c1.7 2 3.3 4.2 4.3 6.7.8 2 1.8 4.1 2.4 6.2 1 2.7 1.8 5.3 3.6 7.6l.8 1.7.3 1.5c0 .4.1 1-.1 1.2-.3.4-.8.7-1.2 1H98l-5.8-1-2.5-.4c-.6 0-1.1-.2-1.7-.4v.6c-2.2.4-4.5.4-6.6 1.2.3.1.6.3 1 .3l2.7-.5h.8l-.6.6H85a208.2 208.2 0 0 1-1.5.8c.3 0 .6.2.8.1l3.1-1.2h.5v.1l-3.2 1.5 1 .6c.6.4 1 .2 1.3-.2l.4-.5c.7-.4 1.3-1 2-1.1 1.5-.2 3-.6 4.5-.2l4.6 1c.5.2 1 .5 1.3.4l2.5-1.4-2-6-2.1-5.6h.2c1.6 2.8 2.3 6 3.9 9l-.8-4-.8-7.4c0-1.3-.3-2.7-.4-4v-4.6l.2-.5h.2l.1.6v3.3L102 182c.3 2.2.8 4.3 1.2 6.5 0 .5.4 1 .6 1.5h.1v-.4l-1.2-7.1c-.3-2.3-.7-4.5-.9-6.8l-.5-7.8c-.2-2.5-.6-5-.6-7.4l.2-7.9.4-9.3c0-2 0-4.1.2-6.2a220.8 220.8 0 0 1 4.3-21.2c.6-2.4 1.7-4.6 2.1-7.1.3-1.9.8-3.7 1.3-5.6l.7-2.3h-.3l-2.5 8.5h-.1l.7-3.7 1-3.4 2-6.5.6-2.4 1.3-4.9c-.2 0-.3.1-.3.2a33.2 33.2 0 0 0-2.7 8l-1.7 7.9-.2 1.1Zm-40.5 12 1.5 1.7 4.5 5a39 39 0 0 1 3.2 4.7l2.5 5c1 1.9 1.8 3.9 2.7 5.8l2 4.6 3.1 6.3 1.6 3.6 4.2 9.4 2 3.6 3.4 6.2 1.5 2.5.1-.5v-7.6l-.4-5.8.1-3.2c0-1.3.2-2.5.3-3.8l.3-8.5v-6a99.5 99.5 0 0 1 1.8-15.3c.3-1.8.8-3.5 1-5.3a9 9 0 0 0-.5-5l-.8-2.6c0-.2 0-.3-.2-.4-1.3-1.7-1.6-3.7-2.1-5.6l-.4-1.9c-.6-1.5 0-3 .4-4.4l1-4.8.7-2.6.7-3.4-.3-1.3v-2.2l.4-.3.6.5 1.6 3.4 1 1.3c1.3 1.5 2.2 3.1 2 5.2l.2 3.5c0 1-.1 2-.3 2.9a7 7 0 0 0 0 4.1l.8-2.7 1.1-4.8c.5-2.7 1.1-5.3 2-7.8.4-1.1 1-2.2 1.3-3.3a58.9 58.9 0 0 0 2.6-9.2c.5-2.6.9-5.2.8-7.9v-.3c.6-.4.8 0 1 .4l.7 2.6c.3.7 0 1.2-.2 1.8l-1.3 4.5-2.1 8.2-1.8 7.7c-.6 2-1 4-1.3 6-.2 1.3-.6 2.5-1 3.7-.3 1.7-.5 3.5-1 5.2l-1.1 3.7-2 7-1.6 8.4c-.6 2.7-1.2 5.5-1.5 8.3-.2 2 0 4-.1 6l-.3 9.1c-.1 3-.3 6.1-.2 9.2.1 2.4.5 4.9.7 7.3l.3 5.8.4 3.3 1 6 .8 5c1 0 1.8-.7 2.6-1.1 2.7-1.4 5.5-2.8 8.6-3 1.8-.2 3.6 0 5.5.1 3 .2 6 .2 9-.6 2-.4 4-.6 6.1 0l.6.4c.8.7 1.9 1 3 1 .3 0 .6.2.8.4.3.4-.1.7-.4.9-1 .9-1 2-1 3.2 0 1.4.2 2.8 0 4.2-.5 2.8-1.1 5.5-1.8 8.3-.4 1.2-1.1 2.3-1.7 3.5l-.8.5a45.3 45.3 0 0 0-7.7 4.3c-1.4 1-2.8 1.8-4.2 2.5a7 7 0 0 1-2.4.6l-4.7.5-1.5.3 2 4.7 2.3 5.8 3 7.3 5.3 12.2 2.1 6 2.1 5.7c1.2 3 2.2 6.1 3.5 9.1 1.6 3.7 3.2 7.5 5 11.1l7.3 13.2c.8 1.4 1.8 2.6 2.5 4 .8 1.6 1.4 3.3 2.1 5 .4 1 1 2 1.2 3.2.4 1.2.5 2.4.7 3.7 0 .2-.1.5-.3.5-.2 0-.4 0-.6-.2l-1-.7-2.2-1.7c-.2-.1-.2-.4-.3-.5-.5-1.4-.9-3-1.5-4.3-.3-.8-1-1.5-1.5-2.3L144 294c-1.1-1.9-2.3-3.8-3.3-5.8l-4.9-10-4.6-10.4c-.6-1.4-1.3-2.9-1.8-4.4l-2.1-6c-.9-2.2-2-4.4-2.8-6.6l-4.6-11-2.8-8.6c-1-3.3-2.2-6.6-3.7-9.7l-2.2-5c-.4-.8-.9-1.7-1.5-2.5-.3-.4-.8-.6-1.3-.8l-4.3-1.2-4.8-1.3-2.2-.9-1.4-.5.3 1.8c.2.7.2 1.4 0 2.2l.1 1.6 1.2 5 1.7 6.5 2 8.6c.3 1.2 1 2.3 1.4 3.5 1 2.5.9 4.9-.7 7.2l-1.9 3.1c-.9 1.3-1.9 2.5-2.7 3.8-1.3 1.9-3 3.2-5 4.3-1.7 1-3.5 1.6-5.5 1-1.2-.3-2.4-.5-3.7-.5h-2c-2-.4-4-.6-5.8-1.7-.4-.3-1-.2-1.5-.1-.7 0-1.3.3-2 .5-.6.1-.8 0-.8-.7 0-.5 0-1-.2-1.3a17 17 0 0 1-1-4.9c-.2-.9 0-1.8 0-2.8 0-1.4 0-2.9-.2-4.2-1.5.5-3 1.2-4.6 1.5-2.8.7-5.6 1.7-8.5 2-2.8.2-5.5-.3-8.1-1.4-1.8-.8-3.6-1.3-5.5-1.5-.6 0-1.2-.3-1.7-.5-.7-.1-1.4-.3-2-.6-1-.3-1.3-1.3-.7-2.1.5-.5.8-1.1 1.2-1.8-1 0-2-.1-2.9-.3a7.9 7.9 0 0 1-5.4-3.5 7 7 0 0 0-4.2-3c-.8-.2-1-.3-.5-1a34.4 34.4 0 0 1 3.8-5.7c.4-.4 1-.5 1.5-.8l.3-.1c-1.3 0-2.7-.2-4 .5l-2.3 1c-.4 0-.7.3-1.1.5-.4.3-.6.2-.8-.2l-.9-1.9c-.4-1-.4-1.9 0-2.8a8 8 0 0 0 .7-3.3v-1.8c-1.7.7-3.3 1.6-5.1 2.2-1.3.5-2.7.7-4 1-.7.1-.9-.2-.7-.8l.8-2a53.3 53.3 0 0 0 2.4-8.2l.4-2.7c.2-1.5-.1-3.2.5-4.6.7-1.7 1.6-3.4 2.4-5l1.3-2.3c.5-.7 1.1-1.2 1.7-1.7l.3-.1L18 190c-.5 0-1-.2-.6-.9-.2-1.2.5-1.6 1.4-2 1.6-.9 3.2-1.7 4.7-2.7 1-.7 1.7-1.7 2.6-2.5l1.6-1.5c.6-.7 1.3-1.5 1.7-2.3a8.6 8.6 0 0 1 3-3l2.8-2.2 2.8-2.2.4-.3 2.8-1 1.6-.2c1.6-.1 3.2.1 4.8.2 2.4.1 4.3 1.3 6.3 2l4 1.9 3.8 1.9c.7.4 1.4 1 2 1.6.2.2.4.5.7.6 1.2.7 1.8 2 2.7 3l.4 1 .4 1.1c.2.4.4.7 1 .8.3 0 .7.4 1 .5.4.2.9.2 1.3.3a30 30 0 0 0 5.3.7c2.4 0 4.7.6 6.9 1.6.7.3 1.4.8 2.2 1 .3.3.8.2 1.2.3l3 1 4.2.6c1.4.2 2.8.3 4.1.7l.3-.3c.8-.3.6-.8.5-1.4l-.2-1.1c-.2-.4-.3-.9-.6-1.3a32.7 32.7 0 0 1-3.6-8.3c-.6-1.8-1.5-3.5-2.1-5.3-.7-2-2-3.5-3.1-5.2-.6-1-1.4-1.8-2-2.6l-.4-.2-.8-1.4a19.5 19.5 0 0 1-1.5-4.1c-.1-.3.4-.5.8-.3.2 0 .3.2.5.3l.6.2-1.1-2.4c-1.1-1.9-2-3.8-2.7-5.8-1.3-3.3-3-6.3-4.6-9.4l-3.7-7.5-3-7.2a7 7 0 0 0-2.1-2.3 4.6 4.6 0 0 1-1.7-2c-.3-.7-.7-1.3-1.6-1.6l-1.6-.9v.4c.4 1.3-.3 2.3-1.1 3.2l-2.6 3c-.7.7-1.3 1.4-1.7 2.4-.2 1-.5 1.9-.1 2.9v.5c-1.2-.8-2.4-2.7-2-4.5.2-.7-.2-1.6-.2-2.5-.1-1.5-.3-3 .2-4.5l.9-1.6c-1.3.2-2 1.2-2.8 2.2l-4 4.3c-.7.7-1.6 1.1-2.4 1.7l-3.5 2.7c-2.7 2-5.7 2.9-9.1 2.4l-4.2-.4-1.2.1c-.7.1-1.3.3-2 .2-1.6-.1-3 .6-4.4 1-1.4.5-2.7.6-4.2.6-2.3 0-4.2-1-6.2-2l-4.9-1.9c-1.4-.6-2.8-.9-4.3-1.1-.2 0-.4-.3-.6-.4.2-.2.4-.5.6-.5a6.7 6.7 0 0 0 3.6-2.7c.6-.9 1.3-1.6 2-2.4l1.1-1.8c.5-1 1.3-1.7 2-2.5a6 6 0 0 1 3.5-1.9l2.2-.5 4-1 4.5-1.3.3-.2v-.2c-.7-.1-1.4-.3-2.2-.3l-7.9.6a8 8 0 0 1-6.2-2.2 12.2 12.2 0 0 1-3.1-4c-.3-.6-.4-1.3-.5-2-.3-.8-.6-1.6-.7-2.5-.2-.9-.4-1.8-.4-2.7 0-1.3-.4-2.3-1-3.4l-.1-.5c0-1.2-.8-2-1.3-3L3 91.1c-.4-1-1-1.7-2-2-.1-.1-.3-.4-.2-.6 0-.4.2-.9.7-.8 1 .1 2-.4 3-.7l1.2-.3c.8-.2 1.7-.5 2.4-1.1.3-.4.8-.6 1.3-.8l1.8-1a4 4 0 0 1 1-.3c1.6-.3 3.2-.9 4.9-.5l1 .2c-.7-3.5-1.5-6.9-3.3-10-.6-.8-1.2-1.7-1.6-2.6-.3-.7-.4-1.4-.4-2.2 0-.2.6-.7 1-.7 1-.2 1.9-.2 2.9-.2 1.5 0 2.9-.6 4.1-1.4l5.5-3.8 1.6-1c1-.4 2-.5 3-.4h.4c1.5-.4 2.7.3 3.9 1.2 2.9 2.1 5.8 4.3 8.9 6.2 3.1 2 6.4 3.8 9.6 5.6.4.3.9.4 1.4.6l-.9-2.7a7 7 0 0 1 .5-4l1.5-3a2 2 0 0 1 1.1-1c1-.1 1.6-.6 2.2-1.1l1.5-1c.2-.1.5-.3.6-.6.3-.5.9-.8 1.5-.8l1.5.3c.6 0 1 .4 1.1 1 .1.2.3.5.3.8.1 1.3.7 2.5 1.3 3.6.9 1.5 2 2.8 3.7 3.4l1.6.7c.7.5.5 1.3.5 2-.1 1 .1 2 .5 3 .6 1.6 1 3.3 1.5 5l1.5 6c.3 2.2.5 4.5.5 6.7.1 2 0 3.9-.2 5.9-.2 2.7-1.1 5-3 7.2-.4.5-.6 1.2-1 1.8l-2 3.7-.2.3 4.4 1.1c1.8.4 3.2 1.4 4.5 2.6 1 .8 2 1.5 3.2 2l2.5 1.2c1.3.6 2.7.6 4 .8.2 0 .4.2.5.3-.1.2-.3.4-.5.4H88c-1.2 0-2.5-.4-3.7-.3-1.5.3-3 .9-4.5 1.5-1.7.7-3.3.8-5 .4l-1-.5c-1.3-1.2-2.8-1.9-4.3-2.7l-2.1-1.1-.2.1Z"/>
  </g>
  <path fill="#c4c29e" d="m44 81.3 1.8 1c1.8 1 3.5 2.4 5 3.8l3 3.1 4 4.1.4.7-.1.2-1.3-1.2-3.4-3.5-1.2-1.3-3.6-3.2-3.5-2.5-1.2-1 .1-.2ZM35 92.4l7.8 4.3v.2c-2.6-1.5-5.6-2.1-7.9-4.3l.2-.2ZM88.8 227.7c0 1.8-3 8.2-4.2 9l.3-.8c1.5-2.3 2.6-5 3.5-7.6 0-.2.3-.4.4-.6ZM79.4 199c-.4.9-1 1.3-1.7 2 0-.9 1-1.9 1.7-2ZM126.4 207.3c1.2-.5 2.5-1 3.7-1.7 1.5-.8 3-1.8 4.3-2.8.8-.6 1.3-1.5 2-2.2l1-1 .1.2-.5.8-1.9 2.3-.3.3c-2.2 1.4-4.3 3-6.8 4l-1 .4h-.6v-.3ZM119.4 202.1l4.3-1.6c-.4.6-3.5 1.8-4.3 1.8v-.2ZM50 236c-.2.1-.4.1-.5.3a27.2 27.2 0 0 1-5.4 3.2c-.6.3-1 .8-1.7 1-.8.3-1.7.3-2.6.4l-.3-.2c0-.2.2-.4.3-.4l1.3-.1c.7 0 1.2-.2 1.7-.6l2.6-1.4 4-2.3.3-.2.3.4ZM51.2 239.8l7.5-2.6 1.7-.5.1.4c-3 1-6 2.4-9.2 2.9l-.1-.2ZM43.9 233.4c0 .4-.1.7-.3 1l-2.4 4.2-.2.6-.3-.3.1-.6 2.8-4.8.1-.1h.2ZM48.6 225.6v.7l-2.7 4.2-.3.3c0-.8 1.9-4.1 3-5.2ZM29.6 110.7c-2.5-.8-5-1.2-7.6-2.4.6-.2 7 1.9 7.6 2.4ZM32.7 194.5c0 .2.1.3 0 .4L32 196h-.2s-.2-.1-.1-.2l.8-1.3h.2ZM34.2 194.3l-.7.4-.2-.3.6-.5.3.3ZM67 105c.1-2.1.3-4.3.8-6.4h.3l-.7 6.5H67ZM78 117.1l1.5.4 3 1.2.3.4h-.5l-1.7-.6-2.2-.8c-.2 0-.3-.2-.5-.3l.2-.3Z"/>
</svg>