<svg xmlns="http://www.w3.org/2000/svg" width="219" height="307" fill="none" opacity=".5">
  <path fill="#a39f68" d="M195 194c.2.3.6 0 .4-.3-.8-1.3-1.5-2.8-1.8-4.3-.4-1.5-.3-3-.5-4.5 0-.5-.6-.6-.7-.2-.1 0-.2 0-.3.2-4.5 2.5-5.2 12.3.3 14.1.5.2 1-.5.7-1-.4-.8-1-1-1.6-1.7-1.2-1.2-1.5-2.6-1.5-4.2 0-2.4.5-4.4 2.2-6-.4 2.7 1 6 2.7 8ZM158 74.8c-.4-.1-.8.4-.4.7l2 1.6 1.8 1.7c.3.3.7 0 .5-.5-1.1-1.2-2.3-2.7-3.8-3.5Zm5.7 16.1c-.2-.4-.8-.2-.7.2.3 2.3 2.3 3.6 3.7 5.2 2.3 2.6 3.6 5.7 4.5 9 .2.8 1.2.5 1.1-.2-.4-2.7-1.5-5.2-3-7.4-1.8-2.4-4.6-4-5.6-6.8ZM81.4 264.1c.2-1.3.8-3.3.2-4.6-.1-.2-.4-.1-.5 0-.2.6 0 1.3 0 2 0 .9-.1 1.7-.3 2.4 0 .5.5.7.6.2Zm.8-62.6a30.8 30.8 0 0 0-2.8 11.7c0 4.8 2.2 9.8.3 14.4-.1.4.5.7.7.4 2.5-2.4 1.4-5.7.9-8.7-1.1-6-.5-11.9 1.6-17.5.2-.5-.5-.8-.7-.3Zm32 15.2c0-.2-.4-.3-.5 0-.7 1.3-.3 3.4-.2 4.9 0 .4.7.4.7 0V219c0-.7.2-1.5 0-2.3Zm95-19.8c-1.9 2.2-3 3.3-6 3.2.3-.8-.2-1.8-.6-2.5-.4-1.1-1.2-2-2.1-2.9-.2-.2-.6 0-.4.3.6.9 1.2 1.9 1.6 3 .3.5.3 1.4.6 2l-1 .1c-.5.2-1 .8-1.5 1h-.7c-.3-.7-.5-1.2-.4-2 0-.5-.6-.7-.7-.1-.1.6-.2 1.3 0 2-1.7-.3-3.5-.8-3.5 1.5 0 .6.8.6.9 0 .1-1 3.4.6 4.1.4.9 0 .8-.4 1.5-.7 1.4-.7 2-.4 3.4-.4 2.5 0 5.6-1.7 5.7-4.5.1-.4-.6-.7-.9-.4Zm-15.8 6.2c-.6 0-1.3.2-2 0l-1-.2c-.6-.3-.1-.6.3-.8.8-.3 1.8-.7 1.6-1.7 0-.5-.8-.5-.9 0-.2.8-1.3.8-2 1.3-.4.4-.7 1.1-.3 1.7.8 1.3 3.7 1.5 4.8.5.3-.3 0-.8-.5-.8Zm9.8-18.4.1-.3a12 12 0 0 1 5.4-3.5c-3.4-3-6.4-5-10.9-5.8h-.2c-4.3 1.1-8.6 2.6-12.8 4.3 1.7.4 3.4 1 4.9 1.5 1.6.5 3.4 1 4.6 2.3 3-1.3 6.5-.8 8.9 1.5Zm-66.6.7c.8-.9.4-1.7.1-2.6-.2-.8.6-1.4 1.3-1.1.5-.4 1.1-.7 1.8-.9.3-.1.8-.2 1-.5H140.2c-.7-.5-1.4-.5-2.1-.5-.5 0-1 0-1.4-.2l-.2.1c-1.5 1-2.8 2.6-4.5 3.3-.3 0-.6-.1-.8-.4l-.7.7-.6.3c-.4.8-1.8.6-2-.5-.8-.9-1.4-2-2.1-3l-1-1.6c.1.3 0 .8-.6.9-.9 0-1.8 1-2.3 1.6-.3.4-.8 1-.7 1.4.1.4.5.4.8.5.2.1.4.2.5.5.5.1.8.7.5 1.1-.3.8-.8 1.5-.8 2.3 0 .4 0 1.6.6 1.6.5 0 1.2-.8 1.7-1 .7-.1 1.1 0 1.7.5h.3l2.1.9c1.2.5 1.8.2 2.6-.6.5-.7 1-1.2 1.8-1.4 0-.4.3-.7.8-.7.9 0 2 .2 2.8-.7Zm-9.3-24.6Zm1.8 1c.3.6.6 1.3.7 2 0-1 0-2-.2-3 0 .3-.2.7-.5 1Zm2.2 91.4c-3.5-2.4-7-5.4-8.2-9.5-.1 5.5-.8 11.4 2.6 16 .2.3-.3.7-.6.4-3.4-4-3.5-9.6-3.4-14.8l-.8 1.2c-1 2-1.1 4.3-2 6.2v.2c.2 4.9 3.4 8.2 5.1 12.5 1.2 3.1 2.2 6.5 2.5 9.8 3.2-3.7 4.6-8 5-12.9 0-2.6-.8-6.3-.2-9Zm-46-23.3c.4.6.7 1.2.6 2 0 .3-.1.6-.4.7.2.1.3.3.2.6l-.1.4a32.2 32.2 0 0 1 3.7-4c-1.4.4-2.9.6-4 .3Zm-11.8 6.4h.1c-.5-.2-1.1-.5-1.6-.9-.3.5-.7.7-1.3.7l-.9.5 3.7-.3Zm-2-3.3.9.3a17 17 0 0 1-3.6-3.7 30 30 0 0 0 2.7 3.4Zm-4-5.5.4.6-.1-.3v-.5l-.3.2ZM213 197.8c-.8.4-1.5.2-2.2-.3-.6-.5-1-1.2-1.9-1.2-.7 0-1.3.5-2 .6-.6.2-1-.5-.6-.9l.2-.1c.3-3.5-.7-6-2.8-8.8-2.3-3.1-5.1-3.5-8.5-3a17 17 0 0 1 4.4 5.1c.2.4-.3.7-.6.3a19.7 19.7 0 0 0-4.9-5c-.5 0-.8-.5-.6-.9-3-2.2-7.3-2.4-10.8-3.3a97.9 97.9 0 0 0-10.7 5.5c1.4 1.6 2.7 3.4 3.8 5.5.2.3-.3.5-.5.2-1.1-2.1-2.5-3.9-4-5.3-.8.4-1.4-.4-1.2-1-1.5-1.1-3.1-2-4.8-2.7-.5.5-1.5 0-1.6-.5-6.4-2-13.8-1.6-20.7-1.6 0 .5-.3 1-.5 1.3l-.3.2c2.2.5 4.3 1.7 6 3.1.2.3-.2.8-.6.5-2-1.6-4.3-2.3-6.7-2.7h-.3c-.4.3-1 .3-1.4.6v.4c5.6 1.4 10.4 6.6 12.8 11.5.2.3-.3.6-.5.3-1.5-2.6-3.5-5-5.8-6.9-2-1.6-4.3-2.6-6.5-3.6-.2.5-.3 1-.6 1.3 2.8 1.3 4.4 5 5.5 7.5.2.3-.3.6-.4.3-1-1.7-1.8-3.5-3-5-.9-.9-1.8-1.4-2.8-1.9l-1 .6c2.6 2.6 4.2 5.8 4.8 9.5.8 5.8-.3 13.5 6.4 16.1.3.2.2.7 0 .5-3.6-1.1-5.4-4.1-6.2-7.6-1.7-6.9-.7-13-6.2-18.3H134c-.3.5-.8 1-1.3 1.5 2.4 14.1 2 32.9 19.8 35.7.5 0 .7.4.8.8.1-.2.4-.5.8-.4h.3l-.2-.3c-.8-2.6.5-4.7 2.4-6.5 1.3-1.1 3-2 4-3.4 2.4-2.7 1.7-5 2.1-8 .3-2.5 1.4-4 3.4-5.2l-.6-.9-1.3-1.6c-.3-.3.2-.8.5-.5l1.5 1.6c.3.3.5.6.6 1l.7-.4a18 18 0 0 0-6.4-7.6c-.3-.2.1-.8.4-.5 2.6 1.8 6 4.3 7 7.5 3.2-1.9 5.6-3.7 6.3-8.2 0-.4.6-.2.6 0-.1 2.6-1 5-2.7 7-1.2 1-2.6 1.9-4 2.6 0 .3-.2.4-.5.3a7 7 0 0 0-3.3 3.7c-1.2 3.2-.2 6.5-2.3 9.5-2.4 3.4-7.1 4.6-7.2 9.4 0 .2 0 .4-.2.5 3.9-.3 7-2.4 10.2-4.7 2.9-2 6.1-4.4 8.4-7.3 2.4-3 1-6 1.5-9.3.2-1.2.5-1.6.8-2.6a9.8 9.8 0 0 0 1.5-4c-.3-1.5-.8-3-1.4-4.3-.3-.5.4-.9.7-.4 2 3 2.7 5.1 1.2 8.6-2 4.4.5 9-2.7 13.2a46.6 46.6 0 0 1-10.3 8.7c-3.5 2.5-7 4.5-11.4 3.9a.7.7 0 0 1-.6-.6c-.2.4-.5.7-1 .6a19.4 19.4 0 0 1-16.5-12v-.2c-.3 3.2-1 6.6-2.2 9.7 17 7.5 20.3 28.5 13.7 44.3l-.5.5v.2c.3 1-1.4 1.6-1.7.4-1-4.1-2-7.7-5.2-10.9-2.3-2.2-5.1-3.8-7.8-5.6 1.8 8.2.7 17.1-5.2 23.4-.8.7-1.9-.4-1.2-1.2-.7-5.3-2.3-9.6-5.2-14.2-1.4-2.3-2.8-4.5-3-7-1 1-2.1 2-3.2 2.8-.8.5-1.7-.7-1-1.3a14 14 0 0 0 4.1-4.8 25 25 0 0 1-9-4c-.4-.3 0-.9.4-.6 2.8 1.6 5.9 2.8 9 3.5l1.1-3.5c.6-1.2 1.4-2 2-3.2l.6-1.1-2.6-.9-4.2-1c-.5-.1-.4-.8 0-.8 2.3 0 5 .3 7 1.3l.1-.2c.3-1.6.1-3.3-.1-5.2-.2-.7.9-1 1-.3.5 1.7 1 3.5.7 5.3v.9c2.5 7.4 9.8 10.2 15.6 14.7 3.8 3 6 6.5 7.1 11 5.8-15.6 1.7-33-13.2-41.4a16.3 16.3 0 0 1-6.8 7.4c1.2 4.6 3.9 7.3 8 9.8 3 1.8 5.2 4.2 7 7.2.3.4-.3.8-.5.3a18.6 18.6 0 0 0-6.3-5.9c-1.5-.8-3.1-1.4-4.5-2.5a14 14 0 0 1-5-8.2l-2.4.6c-.3 0-.4-.5-.1-.6l2.4-1.2c0-.2.3-.4.6-.4v-.2c.8-4.3 1-8.7.5-13 0-.4.6-.5.6 0 .7 4.1.8 8.3.1 12.5 5.9-4.7 6.5-12.5 7.5-20.3l.2-.5a78.2 78.2 0 0 1-2.7-20.2l-.6.4c-1.1.4-2.3.1-3.4-.4-6 3-11 12.3-11.7 18.5 0 .3-.5.3-.5 0a28 28 0 0 1 4.7-12.1c1.7-2.8 3.5-5.5 6.3-7A31.5 31.5 0 0 0 115 198c-3.3 3.1-8.9 7.5-9.3 12.2 0 .3-.5.3-.5 0 .3-4.7 5-8.7 8-12 2.5-2.6 5.3-5.5 8.5-7.4a3 3 0 0 1-1.4-1.4l-.2-.6c-.1.2-.3.4-.6.4-6.7 1-12.7 2.3-19.1 4.4-4.8 1.6-9.2 2-13.9 0-2.2-1-4.4-2.2-6.2-3.8-12.7 9.3-5.8 27.6-2.2 40l.3-.1c.9-1.2 2.4-1.5 3.8-1.2.4 0 .8.3 1.2.4 1.2-3 .9-7 1-10 0-.5.7-.5.7 0 0 2.7.2 5.4 0 8.1 0 1-.1 1.9-.6 2.6l.4.3c0-.2 0-.5.2-.6 1.4-1 3.5-1 5.2-1.6 2-.6 3.7-1.5 5.5-2.8-.6-1.8-.9-3.8-1-6 0-.1.2-.2.3 0a24 24 0 0 0 3.6 9c-.7-2.1.3-5.3.9-7.1.1-.4.7-.3.6.2-.5 2.1-1.7 6-.1 8 .2.1 0 .4 0 .6 1 1 2.4 2 4 2.7 5.4 2.4 11 2.8 16.8 2.1.3 0 .4.5 0 .6-6.3 1.5-13.2.6-19-2.5-3-1.6-4.7-3.8-5.8-6.4-.7.8-1.6 1.5-2.5 2 0 .2-.1.4-.3.5-3 1.8-5.3 5-6.7 8.1.7-.3 1.4-.7 2.2-1.3l1.7-1.5c1.3-1 2.8-1.6 4.5-1.3.3 0 .2.6-.2.5-3.3-.5-4.7 3.3-7.3 4.4 2.7.7 9-2.4 11-2.6 3-.3 5.8 0 8.6 1 .3 0 .2.5-.1.4-6.1-1.5-10.6-.1-16.2 2.1-1.6.7-2.9.9-4.1 0v.8c.7.6 1 1.4 1 2.3 1.7 1.5 5.5.3 7.5.8 1.7.5 3.1 1.6 4.2 3 .3.3-.1.7-.4.4a7.5 7.5 0 0 0-5.4-2.7c-1.6 0-3.1.5-4.6.3-.5 0-1-.3-1.5-.6-.2.5-.5 1-.9 1.2 3.4 2.2 6 4.9 8.6 8 1.6 2 3.3 4 5.6 5.2 2.9 1.6 5.3 1.2 8.4.5.6-.1.9.5.5 1-2.8 3.4-8.3 1.6-11.4-.6-3.4-2.5-5.8-6-8.7-9 4.8 7.5 11.1 17 4.4 25l-1.8 1.7c-2.2 2-2.8 2.2-4.2 5.1-1 1.7-1.8 3.3-3.3 4.6l-.9.7v.1c0 .4-.4.5-.7.4-2.8 1.6-6 2.2-9.2 1.3-.5-.2-.3-.9.3-.8 3.1.4 6.2-.3 8.6-1.9.6-3.7.6-7.4-.1-11.1 0-.4.5-.6.6-.2.8 3.4 1 6.9.7 10.3a13 13 0 0 0 3-4c1.3-3.1 3-4 5.3-6.4 8.1-8.3-1.6-19.7-6-27.2-.2-.3-.2-.6 0-.9l-1-.7c-.6.3-1.2.4-1.9.4h-1c-.4.2-.4.8-.6 1.1l-.3.6c1.2 3 1.4 6.4 1.1 9.7 0 .3-.6.3-.6 0 .1-3.2-.5-6-1.3-9.1-.6.4-1.4.4-2.1.3-.1 2.5.3 4.9 0 7.3-.4 2.9-1 5.8-1.5 8.6 0 .4-.5.2-.5 0 .4-3.3 1.1-6.8 1.2-10.1.1-2.1-.3-4.1-.1-6.2-.2 0-.4-.1-.5-.3-.2.3-.5.6-1 .6.4 3-.6 5.9-1.8 8.6-3 6.8-6.4 13.6-3.7 21 .1.4-.3.5-.4.2-2-4.9-1.4-9.9.3-14.8 1.8-5.2 5-9.8 4.3-15.1l-1.1-.8c-1.1-1-1.8-3.6.2-4.2.7-.2 1.2.4 1 1.1v.5l.8 1.6.4.2c-.1-.4-.3-.8-.3-1.3 0-.7 1-1.1 1.5-.6l.8 1.1c.3-.2.8 0 .7.5h.7c.6-.4.6-1.3 1.2-1.8.5-.4 1.1-.6 1.8-.6.5 0 1.7.4 2-.1.2-.4.5-.4.7-.5.2-.2.5-.5.6-.8.4-.8.2-1.6-.4-2l-.2-.2c-1-.5-1.5-2-1.7-3-.2-1.2.2-2.4 1-3.5v-.1c-1-.6-1.3-1.5-2.2-2.2-.6-.3-1.6-.8-2.4-.7 0 .9-1.2 1.2-2.1 1.2-.6 0-1.1-.1-1.5.5l-.5 1.4c1.7.6 3.4.8 5.1 1.4.8.2.8 1 .5 1.5 1.1.2 1.3 1.7.1 2.1l-1 .3c-1.2 1.2-3.1 1.6-4.7 2.3l-4.7 2.2v.6l-1.2 1.4C69 252 65 256.3 60 261c-.4.4-1-.2-.6-.5 2.4-2.3 4.8-4.7 6.6-7.4 1.2-1.8 1.9-3.6 2.4-5.6a18.8 18.8 0 0 1-7.9 6.2c-2.8 1-6 .6-9 .5-3.6 0-7.1 0-10.6-.2-.5 0-.5-.7 0-.7 5.7 0 12.3.8 18-.5 4.4-1 6.6-4.4 9.5-7.4h-.5l-1.2-.6c-2.4 3.7-7.5 4.8-11.7 4.7-.5 0-.5-.7 0-.7 4.2 0 8-1.4 10.7-4.5a23 23 0 0 0-2.6-1.1 1 1 0 0 1-.6 0c-7.8-1.8-17.2-2.4-23.8 3-2.3 2-4.3 4.3-6.6 6.3-3.2 3-6.8 5.5-5.6 9.7.1-.2.5-.3.7 0 2.9 2.1 7.4 2.1 10.8 2.4 2.8.3 5.7.5 8.5.5.4 0 .4.6 0 .6-4.3 0-8.5 0-12.8-.5-2.4-.3-5.1-.3-6.9-2.1l.7 1.4c.3.4-.3 1-.6.6a6.8 6.8 0 0 1-.7-8.7c1.2-1.8 3-3 4.6-4.3 2-1.7 3.6-3.7 5.5-5.6 3-3 6.6-5 10.3-5.8a20 20 0 0 1-12.2-8.2c-1.5-2.5-2-5.3-2.1-8.2l-.5-.3c-.6-.4-.1-1.2.4-1v-1.6c0-.6.8-.6.9 0 0 .7 0 1.5.2 2.3 2.9 1.7 5.8 3.5 9 4.8.2.1 0 .6-.3.5-3-1.2-5.7-2.4-8.4-4 .8 4.4 2.5 8.2 6.7 10.8 4 2.5 7.7 3.1 12.3 3.2 4.8.1 11.1.4 15 3.8 0-.3.2-.6.5-.7.7-.3 1.6-.2 2.1.3 1.5-1 3.1-1.9 4.7-2.7-2.8 0-5.6-.2-8-.7-.4.6-1.4.8-2 .1a2 2 0 0 1-.4-.7v-.3c-.1-.3 0-.6.2-.9-3.6-1-7.4-3-10.6-2.2-.4.1-.6-.5-.2-.7 5.3-1.3 10.1 2.6 15 1.8l-1.6-1.4-.7-.7c-.4.3-1 .3-1.4 0-.8-.3-1-1.3-.5-2l.2-.2c-2.5-3.3-4.7-7-9.1-7.8-.4 0-.3-.6.2-.6 3 .5 5 2 7 4.2l3 4h.2c.3 0 .7.3.8.6h.4l1.5.5c-1.6-2.2-2.7-4.7-4-7a25 25 0 0 0-19.7-13.1c-.5 0-.5-.9 0-.9a25.8 25.8 0 0 1 21 13.8l.3-.3c.3-.3.6-.4 1-.2 1-.3 1.8.4 1.8 1.5 0 .4-.3.8-.6 1 .3 0 .5.2.6.4 1.5 2 3.2 4 5.5 5l.1.1c.3-.9 1-1.9 1.8-2.3a32 32 0 0 1-3.3-8.4c-3-3.4-5.1-7.6-8.2-11a25.2 25.2 0 0 0-11.7-7.4c-5-1.5-8.6.2-13.4 1.4-2.5.6-5.6.6-7.4 2.7-2 2.4-.4 6.8.1 9.4.1.7-.8 1-1 .3-1.6-4-2.4-9.4 1.3-12.4 2.3-1.8 5.5-1.5 8.1-2.4 2.5-.9 4.8-1.7 7.5-1.7 9.6 0 18.7 7.4 23.7 15.8-.7-3.8-.8-7.7-.8-11.2.1-6.2 2.3-13.4 8.1-16.5a18.8 18.8 0 0 1-6.3-16.7.6.6 0 0 1 .4-1h.3c2.6 0 5 .6 7.3 1.8.4.2.1.7-.3.5a16 16 0 0 0-6.7-1.3 20 20 0 0 0 18.5 20.7c5 .3 9.8-2.4 14.4-3.7 4-1.1 8.3-2 12.5-1.9.3 0 .4.2.6.3 0-.9.3-1.8.7-2.6-.4-.1-.7-.3-1-.6-.3-.4-.6-1-.7-1.5-3 .7-5.5 2.5-8.6 2.8-2.4.3-4.6-.1-6.6-1.2-.4-.2-.2-.8.2-.7 4 1.6 7.1.9 11-.8 1.4-.6 2.7-1.2 4.1-1.2v-.4l.3-.3c-7-2.8-13.6-.5-20.9-.9-4.5-.2-10-1-13.1-4.5-.3-.3.2-.8.5-.5 5 5.2 14.2 4.5 20.9 3.7 3.9-.5 8.1-1 11.7.6-2.7-2.4-5.7-5.6-9.3-4.5-.3.1-.5-.4-.1-.5 4.1-1.5 8.3 2.6 11.3 5.1l.6-.5-1.1-1.5c-1.1-1.6-2.1-3.3-4.2-4-.4 0-.2-.6.2-.6 1.4.2 2.5 1 3.3 2 .9 1.1 1.6 2.8 3 3.4l.8-.2c-6.1-8.3-12.4-17.2-21.7-22l-.4-.1a45 45 0 0 0-3.9-1.7c-2.8-1-5.3-1.3-7.6-1 3.7 1.4 7 3.2 10.2 5.5.2.2 0 .6-.3.4a40.7 40.7 0 0 0-11.9-5.3l-2.1 1.1c1.6.2 3.2 1 4.5 1.8.3.1 0 .5-.2.4-.9-.4-1.8-.8-2.7-1l-2.5-.4c-1 .9-2 2.1-2.7 3.7-1.6 2.9-2.9 6.3-5.6 8.4-.4.3-.7-.4-.5-.7 3.3-4 4.6-9.4 8.2-13.1 3.5-3.7 8.7-3.2 13.1-2l2.2.8a29.5 29.5 0 0 1-3.4-13.7c-.2-6.8-.7-13.8-.5-20.6l-.3-1.4c-.2-.6.8-1 1-.2v.4l.2.3v.2c2.7 6.6 12 9.9 14 16.8a19 19 0 0 1 4-12c4.2-4.4 9.6-2.7 14.6-5.4.4-.2.8.5.4.7-4.2 2.6-9.5 1.1-13.2 4.9-4.1 4.1-4.5 10.6-4.2 16.1.6 11 5.6 19.2 12 27.7.7.8-.6 1.7-1.3 1a42 42 0 0 1-12.4-29.2c-.2.1-.6.1-.7-.2-2.2-5-4.3-8.8-8.4-12.6-1.6-1.4-3.3-3-4.4-4.6.3 5 .3 10 .5 15 .1 3.4.1 7 1.2 10.2.8 2.7 2.2 5.2 3.6 7.7 3.3 1.6 6.3 3.7 9 6.1-4.7-8.1-8.6-16.9-11-25.7 0-.5.5-.6.7-.2a106.5 106.5 0 0 0 16.5 32.1c2.3 2.7 4.4 5.6 6.4 8.5l.6.1v.1h.1c.2 0 .5.2.6.4l.3.2 2.5 3.1-.6-2c-.7-1.7-1.8-3.2-3-4.6-.5.2-1.2 0-1.6-.4-.7-.8-.6-2 .4-2.5s2.1.3 2.1 1.3v.3c1.2 1.2 2.9 3 4 5l.2-2.5c-.7-6.7-7.4-10.7-8.2-17.5 0-.5.8-.6.8-.1.7 4.9 5.3 8.7 7.4 13.2a29 29 0 0 0-1.1-6.6c-.8 0-1.5-.6-1.4-1.4a2 2 0 0 1 2.4-1.7c.3 0 .6.3.8.6l-.1-.3c-1-3.8-4.4-6.4-6-9.9a32.2 32.2 0 0 1-1.6-18.3c0-.5.8-.2.7.2-.6 4.5-.8 9.2.3 13.7.9 3.9 3 6.5 5.3 9.6 2.8 3.7 3.3 8.2 2.7 12.7.3 1.9.3 3.8.3 5.8v.5l2.2-3.2a.4.4 0 0 1-.4-.5c.7-2.3 1.6-4.5 1-7-.4-1.4-1.3-2.8-1.9-4.3-.8-2.3-1-4.5-.4-6.9.1-.5.8-.2.7.2-.9 4.5 1.8 7.2 2.7 11.3a7 7 0 0 1 0 3.5l.5.1c.8.3 1.1 1.2 1 2 0 .4-.5.6-.8.7l-4 8.3a23 23 0 0 1 7-5.6v-.4c2.8-5 7-8 11.5-11.3.3-.2.6.2.3.5l-5.7 4.8a22.7 22.7 0 0 0-3.6 4.2h.2c.5.2.9.5 1 1l6-3.3c4.3-2.6 7.2-8.7 12.7-8.7.3 0 .3.5 0 .5-4.2.1-5.9 3.6-8.5 6a26.5 26.5 0 0 1-5 3.7 146.3 146.3 0 0 0-6 3.7c-2.6 1.7-5 3.5-7.4 5.6l-.2.3 1.5-1c1.2-.6 2.4-1.1 3.7-1.5h-.8c-.6-.1-.6-1 0-1 5.2.1 8.7-2.4 13.3-4.1 2-.8 3.5-.8 5.3.3.3.1 0 .6-.2.4-3.6-2-7.4 1.8-10.6 3-1 .4-2 .8-3 1l.2.4c.2 1.2-1 1.9-2 1.4-.1-.2-.3-.4-.3-.7L139 179c.6.1 1.1.4 1.5.7.1-.3.3-.6.7-.7a43 43 0 0 1 23.3 2c1-2.2 2.8-3.8 4.7-5.4 3.6-3.2 5.5-5.5 5.3-10.7-.1-3-.1-5.6 1.8-8 1-1.4 2.4-2.3 3.7-3.4-2.4.3-4.6.8-6.9 2-.3.1-.6-.4-.3-.6 2.5-1.4 5.4-2.4 8.2-2.4 1-1 1.8-2.1 2.2-3.6.1-.6 1-.3.9.3-.5 2.8-2.5 4.4-4.6 6.3-1.9 1.7-3.3 3.3-3.5 6-.2 2.3.6 4.5.4 6.7-.6 6.3-7.4 8.6-10.2 13.6h.2l.6-.3c7.4 0 11.8-5.5 15.2-11.4 3.5-6.2 5-13.3 2.4-20-.2-.5.5-.8.8-.4 3.9 7.5 2 15.6-2.2 22.6-3.2 5.3-7.8 10.8-14.3 11.1.7.5 1.4 1 2 1.7 6.5-3.9 13.4-7 20.5-9.3 1.5-1.2 2.9-2.4 3.7-4.2.9-1.8 1-3.7 2.3-5.3.3-.5 1 0 .7.3-1 2.2-1.3 4.6-2.6 6.6l-1.2 1.8a96 96 0 0 1 22.9-3.6c.4 0 .3.6 0 .6-5.7.5-11.3 1.4-16.7 2.7a17 17 0 0 1 9 6.2l.1.1h1.9c2.6.3 5.5 3 6.5 5.4.2.5-.5.9-.8.5-1.3-1.6-2.9-3.6-4.7-4.5-.7-.4-1.5-.4-2.2-.3 1.8 2 2 5.2 1.8 7.7 0 .4-.6.4-.6 0 0-1.4-.2-2.7-.7-4-.3-1-1-2-1.3-3.2 0-.1 0-.3.2-.4l-.6.2c0 .8-.6 1.6-.7 2.3a9 9 0 0 0 0 3c0 .2-.5.3-.6 0-.6-.9-.7-2-.5-3 0-.6.2-1.2.4-1.8a17 17 0 0 0-3.6 2.5l-.3.1.2.1c2.7 3.1 4 6.4 3.4 10.3a4 4 0 0 1 2.2-.3c.5 0 1 .3 1.3.6.5.4 1 1.5 1.9 1.3.2-.6.6.1 0 .3Zm5.2-4.4c-.1-1.5-.4-3-.7-4.5 0-.4-.7-.3-.7.1 0 1.7.3 3.5.4 5.2.1 1 0 2.3-1.3 2.7-.4 0-.7 0-1 .2.3-1 .1-2.1 0-3.2-.1-1-.2-2-.6-2.9-.2-.3-.6 0-.6.2-.1 1 .1 2 .1 3.2l.1 2.8c.1.3.3.3.5.4 0 .2 0 .3.2.4 1.4.5 3.2-.4 3.6-1.7.4-1 .2-2 0-3Zm-93.6-95.5c-2.4-.4-4.2-1.5-6-3 1.4 4.3 2 8.8 4.5 12.6 2.7 4.2 6.9 6.3 11.6 7.4 0-1.2.2-2.4.6-3.5-5.2-2-9.5-6-12.5-10.7-.3-.5.4-.9.7-.4 3.3 4.4 7.5 7.4 12.4 9.8.4-1 1-1.8 1.7-2.5v-.2l.2-1.4c-.3 0-.5-.2-.6-.6-2-6-7.2-6.6-12.6-7.5Zm10.9 17.4h.1c2.9-.3 5.6.3 8.4 2.7 3 2.4 5.5 5.5 6.8 9 4.3-.2 6.1-2.7 9.4-4.9 2-1.3 4.2-1.9 6.5-2a4 4 0 0 1 0-1.7c-2.7 1.3-6 1.9-8.9 2-.3 0-.4-.5 0-.5 1.8-.4 3.5-.8 5.3-1.4 1.3-.4 2.5-1.1 3.8-1.6v-.6c0 .2-.1.3-.3.3-2.8.5-5.1-.2-7.8-1.2-4.5-1.5-8.3-2-13-.5-.4.1-.5-.6-.1-.7a18 18 0 0 1 8.6-1c4.3.6 7.8 2.7 12.2 2.4.2 0 .4.1.4.3v-.2l-.2-2.7c-4.5.5-9-3.5-12.7-5.7-8.4-4.9-16.7-1.6-18.5 8Zm31.7-6c-5.6-2.6-10.5-7-15-11.5l3.5 3.8c3.4 3.5 6.7 7 11.5 7.7Zm-11.8-10.5-3-2.1c4.8 4.1 9.5 8.2 15 11.5-2.7-3.9-8.6-7-12-9.4Zm15.5 10.4v.4c0 .6-.5 1-1.1 1 0 .1-.2.3-.5.3h-.7v.3c-.8 1.3-.7 2.3-.5 3.6h1l1.8.3c-.4-.5-.6-1-.5-1.8 0-.6.3-1 .6-1.5 0-.3 0-.6.3-.7.6-1.1.6-2.2.6-3.2l-.4.5-.6.8Zm6.4-33.6-.1-2.3v-.1c-1.7-2-2.7-4.3-4.4-6.2-2-2.1-4.1-3.1-6.7-4.4-.5-.2-.1-.9.4-.8 2.7.6 5.1 2 7 4 1.3 1.2 2.6 2.8 3.6 4.5v-3c-5.8-5-10.4-11.2-18.7-10.2 4.8 2.4 4 10.2 9.6 11.9.3 0 .5.3.5.5 3.3-1.2 6.6 2.6 8.8 6.1Zm-1-19.8h.2l-.2-.2c-1-2-2.6-2.9-4.3-4.2-1.6-1.3-3-2.6-4.3-4.1-.4-.4.1-1 .5-.6 2 1.8 4 3.5 6.3 5 .3 0 .6.3 1 .5-4.2-5.3-10-12.2-16.6-12.7 2.6 1.3 3.9 4.1 5.3 6.7 2.7 5.4 5.5 9.8 12.2 9.6Zm-1.7-21c-1.3-1.1-2.5-2.4-3.8-3.4a38.8 38.8 0 0 0-5.5-3.3c-.7-.3-.2-1.4.5-1.1 2.1.8 4.1 2 6 3.4 1 .7 2.1 1.5 3 2.4v-.2c-3.5-6-9.7-9.4-16.3-10.5 1.4 1 2.2 2.6 3.2 4.4 2.6 5 6.6 10 12.9 8.3Zm-3.7-15.4v-.1c-2.1-2.7-3.6-6-4.1-9.5 0-.6.7-.8.9-.3.5 3.2 1.6 5.9 3.3 8.4.2-3.6-.7-7.1-2.4-10.5l-2.6-5c-.2 2.8-.4 5.6-.2 8.4.3 4 2.6 6.2 5.1 8.6Zm6.6 13.4c.6-1.1 1.1-2.3 1.8-3.3 1-1.7 2.4-3.3 2.7-5.3 0-.4.7-.3.7.1-.1 1.7-1 3-1.8 4.4-1.2 2-2.2 4-3 6.2-.2.3-.4.4-.5.4 0 .4-.2.6-.4.6l.2.5c3.3-2.5 6.3-5 8.2-8.9 2-4.2 2.2-8.8 2.6-13.4-2.6 2.4-5.5 4-7.5 7.2a24 24 0 0 0-3 11.5Zm1.6 21.8v.8c.7-1 1.6-1.8 2.2-2.6 2-2.4 4.3-4.3 6.8-6.2.3-.2.7.3.4.5a72 72 0 0 0-5.3 5.3c-1.6 1.8-2.7 3.7-4 5.6v1.3c4.8-3 9-6 11-11.6 1-3 1.1-6.3 3.5-8.4-3.9.8-6.6 4.5-9.2 7.3-2.1 2.6-3.9 5.2-5.4 8Zm-1.4 50c1.9-3.3 4.6-6.1 6.7-9.3l5.7-8.9C185 92 179.3 97 177.7 104.6Zm10-10.2c1.7-3.5 3.1-7.2 5-10.7l-7.5 12c-2.4 3.7-5.6 7-7.4 11-.1.2-.3.2-.5.2-.1.3-.4.4-.7.5.3 0 .4.3.3.6-.5 2.5 2.6 4.2 1.7 6.8-.6 2.3-3.1 3.5-4 5.6l1.3.3c1 0 1.8-.7 2.7-.7v-.2c0-.3.2-.5.3-.6l-.2-.4c-.2-.3.2-.6.5-.4 3.5 4 7.2 6 12.1 7.9 3.1 1.1 4.4 2.9 6.4 4.8-3.8-7.3-10.2-10.7-18-13.1-.7-.2-.6-1.3.1-1.2h.1c0-.3.3-.5.6-.6l1-.3c0-.5-.2-1-.5-1.3l-1-.3c-.4 0-.4-.7.1-.7h.3c-.2-.1-.2-.3-.3-.4a.6.6 0 0 1-.3-1c-.2-1.1 0-2.3-.9-3.3-.4 0-.7-.3-.7-.7-.4-.2-.7-1-.3-1.3 3.9-4 7.3-7.6 9.7-12.5Zm11.3 39-.3-.7h-.1l-.4-.4.8 1Zm-7.8-5a27 27 0 0 1 6.1 3.2c-1-1.1-1.8-2.4-3.1-3.3-2.1-1.3-4.8-1.7-7-2.7-2.8-1.3-5.2-3-7.1-5.3 1.1 2.7 2 4.9 5.2 6.2 1.9.7 4 1 6 1.8Zm-8.7 4.6c-1.4-3.7-2.8-7.4-4-11.2-.7.4-1.6.6-2.4.6.6 1.6.5 3.4.5 5.1v9.7c0 .4-.7.4-.7 0-.2-5 .2-10.2-1-15a20 20 0 0 1-1.8-.7c.6 2.9.3 6-.1 8.9 0 .4-.6.4-.6 0 .3-3 0-6-.3-9-.5-.1-1.1 0-1.7.4-1 3.6-2 7.7-4 10.8-1.4 2-3.3 3.5-4 6-.4 2-.3 4 0 6 2.6-1 5.5-1.8 8.3-2l.3-5.3c0-.4.6-.5.6 0 .4 1.6.4 3.5.2 5.2 4-.2 7.9.7 10.9 3.5 3.3-4 1.4-8.7-.2-13Zm-10.4-20.2c-.3.8-.3 1.6.7 2 1.6-.5 3-.5 4.2.8 1-1.4.5-2.6 0-3.8h-.3c-1-.5-1.9-.4-2.7.3l-1 .7h-.9Zm1.9-5.8c-.2.2-.5.3-.8.2.4 1 .3 2 .1 3 0 .4-.2.7-.4 1l1.9-.7c.6 0 1.1 0 1.7.2-.4-.8-.7-1.8-.5-2.7l-.4-.2c-.5-.5-1-.8-1.6-.8Zm-6.3 17c0-.3.3-.3.4-.3l1-2.5c.2-.2.4-.4.6-.3.8-1 2-1.1 3.2-1h.2c.8-1.6 2.2-2.3 3.4-3.6-1.7-1.7-2.8-.1-4.5.3-1.2.3-2.3-.4-3.4-.3v.8c-.3 1-.9 2-.5 2.9H168.4c.9-.2 1.2 1 .4 1.3l-1.4.4c-3.4 2.6-5.3 6.9-7.7 10.4-1.7 2.8-3.6 5.7-5.6 8.2l-.7 1.4c5.7-5.2 11.9-9.8 14.3-17.7Zm-11.9 12c1.7-2.3 3.5-4.8 5.1-7.3 1.4-2.1 2.7-4.2 4.4-6-4.6 2.6-7.4 7.7-9.3 12.7l-.2.6Zm-20.1-19.8-.2.1.2-.1Zm-8.3-34.7c-1.5-3-2.2-6.7-2.5-9.8-.1-.5.6-.5.7-.2.7 2.9 1.4 6 2.7 8.6 1.4 2.8 3.6 4 6 5.4.3-6-.5-11.4-5-15.9-2.1-2.2-4.7-3.6-6.4-6 .5 4.4.8 9 2 13.2.5 2 1.4 3.5 2.5 4.7Zm58.4-9.4-1.4 3.2c3.4-2.8 6-6 7.6-10.1.2-.5.8-.3.7.1-1.3 4-3.6 8-7 10.6 3.3-1.4 6.2-3.4 8.7-6.2 2.5-3 3.7-7 6.4-9.8-4-.3-6.7.7-9.4 4a34 34 0 0 0-5.6 8.2Zm-1.8 4.2-.3.4.5-.1-.2-.3Zm-66.8 17.5c-.1-.6.5-.8.9-.4h.2c4.3 3 9 2.3 13.7 4.1 2.3 1 4.3 2.5 5.6 4.5-.3-4.9-1.6-9.8-2.5-14.5a1 1 0 0 1-.8.2c-12.1-2.4-11.7-16-12.4-25.5l-.3-.7c-.2-.6.7-1 1-.5 2.2 4.8 8.2 6.9 11 11.5 2.2 4 3.4 9 2.1 13.5 0 .2-.2.3-.3.4v.4a112 112 0 0 1 3 12.1c.4 2.3 1 4.8.8 7.2 2-1.5 4.3-2.4 6.8-2.6 3.5-.3 6.7 1.2 9.7 3l5.1 3c2 1 4 1.3 6 2.1l.4-.5c-3.7-.2-6.7-2.3-9.4-5-4.9-4.9-9.7-10.2-14-15.6-.4-.3.1-.8.4-.4h.5c5.5 3.1 10.7 7 15.7 10.7 2.6 2 5.8 3.8 7.8 6.5C165.4 99.2 156 94 153 85.8c-1-2.9-1-6.4.6-9.1 2.2-3.4 6.2-3 9.5-4.8.4-.2.8.4.4.7l-1.3.7c3.4 3.6 5.6 8.2 6.3 13.2 0 .5-.8.8-.9.2a22 22 0 0 0-6.2-12.6c-.2-.1-.2-.2-.2-.4l-2.4.7c-3.2 1-5.4 3.3-5.6 6.7-.2 5.2 3.6 9 6.7 12.5 3.4 3.8 9.3 8.5 10.6 13.8l.2-.2a4 4 0 0 1 1.8-1.2h.3l-1.2-9.6c0-.5.8-.6.8-.2l1.6 9.7.8.2c.4-6 3.3-11.8 3.5-18 .1-4.5-3.6-22.5-11.7-16.3-.4.2-.7-.3-.4-.6l.8-.8c-6.1-1.3-5.1-10.5-10.5-13-.2 0-.2 0-.2-.2-.4-.2-.4-.9.1-1 8.7-2 15 2.5 20.4 8.3v-8l-.3.3c-3 1.8-6.7.1-9.1-2.1-4.2-4-4.6-13.1-10.6-15-.4 0-.4-.5-.2-.7h.1c3.5-2.5 8.2 1.2 11 3.3 3.4 2.6 6.3 5.6 9 8.9-.2-5.2-.7-10.4-1.5-15.5l-.1.2c-3.1 1.5-6.5.8-9.2-1.2-4.4-3.3-5.3-11-10.5-13-1 0-1-1.5 0-1.5 7.8.6 14.6 4.3 19 10.7-.9-3.5-2-7-3.4-10.6a14.8 14.8 0 0 1-5.5-6.3c-1.6-4-.5-9.2-.4-13.3l.1-.4c0-.3.5-.4.6 0 .2 0 .3.1.3.4v.2c1.2 3 3.4 5.6 4.7 8.6 1.3 3.2 1.8 6.4 1.4 9.9l-.2.3a70 70 0 0 1 4 12 25 25 0 0 1 3-9.9c2.3-4.2 5.8-5.9 9.2-9 .2-.3.9-.3 1 .2.7 9.7-2.2 20.8-11.7 25.2.8 4.4 1.2 8.9 1.5 13.4 1.8-2.8 4.1-5.2 6.4-7.6 2.6-2.7 5.8-6.5 10-5.6h.1c.4-.2.7.1.7.5.1.2 0 .4-.3.4-3.6 2-3.2 6.2-4.3 9.5-.6 2-1.6 3.7-2.7 5.4-2.2 3-5.5 6-9.2 6.8h-.2l.4 18.7c6.3-8 9.2-23.2 22-20.6.5.2.4 1 0 1-2.1 2-2.8 4.8-4.2 7.3a26.3 26.3 0 0 1-14.7 11.4h-.2a8 8 0 0 1-2.9 2.9v.3a45.3 45.3 0 0 1-.3 14.3c4.1-5.9 10.4-10.5 15-15.9.3-.3.8.2.5.6a3 3 0 0 1-.4.5v.2c-3.9 7.3-5.9 16-11.3 22.4 2-1.7 4-3.3 6.1-4.7 3.7-2.2 8.5-2.5 12.8-2.2 7.6.5 10.5 8.5 8 15-.2.4-.7.2-.6-.1 1.5-4.4.2-11.3-4.8-12.8-3-1-8.3-.5-11.2.4-5.2 1.5-8.1 7-13 8.7a7 7 0 0 1 1 2.9c2.9-1.3 5-3.8 7.8-5.3 2.6-1.3 5.2-1.8 8-1.7.4 0 .4.5 0 .5-4.1.2-7.8 1.7-10.9 4.4-1.5 1.4-2.8 2.5-4.5 3.2l.7.8c4.4-.8 8.4-4.2 13-2.8.4 0 .3.6 0 .5-4.6-1.1-8.2 3-12.4 3.6l.1 1.2c3.1 0 6 1.6 9.1 2.1 5.5 1 12.5.5 16-4.3.3-.4 1 0 .8.5-2.3 3.6-6.5 5-10.5 5.6a24 24 0 0 1-6.6.1c-2.5-.3-4.7-1.3-7-1.8 6.6 2.6 12 9 14.5 15.3.1.3-.4.5-.5.2 0 .3-.4.4-.5.3-4-4.4-10-4.3-14.9-6.7-1-.4-1.8-1-2.5-1.8 1.6 4.1 3.2 8.3 4.1 12.5.7 3.2.4 6.4-2 8.6l.8 1c.3.4-.3.8-.5.5-7.2-8.4-20.3-2.9-27.6 2.7a41.7 41.7 0 0 0-9.3 10.2c-1.9 2.8-3.6 5.7-6.3 7.7-.7.6-1.8-.5-1.3-1.3 6.2-8.3 11.5-17 21.1-21.7l1.4-.6c-.6-3.4-1-6.7.8-9.7-3.7 4-8 8-12.3 11.1h-.3a.4.4 0 0 1-.3-.8c1-1 1.7-2 2.5-3.2-.2-.2-.2-.3-.1-.5l1.7-2.5c2.8-6.2 4.7-13.4 10-17.1a8 8 0 0 0-2.2.8c-1.3.7-2.3 1.6-3.4 2.4a10.8 10.8 0 0 1-7 2.5c.3.7.5 1.5.5 2.2.8 5.9-.8 12.2-3 17.5-2.4 5.5-7.2 10.2-8.3 16.2-.2 1-1.8.7-1.7-.3.4-3.8 2.6-6.7 4.7-9.9 2.7-4.2 4.8-8.8 6-13.8 1.4-6.2 1.5-12.1-2.7-17.3-1.5-1.9-3.3-4-5.3-5.2a8 8 0 0 0-5.3-1.2c.2 0 .3.1.3.3 1.5 3.7 1.5 7.6 1.4 11.5 0 .4-.6.4-.6 0-.1-3.9-.3-7.6-1.6-11.3v-.3c0 .2-.3.3-.5.3h-.9c-.2 0-.5 0-.8.2.6 1.1.5 2.7.5 3.8 0 .4-.6.4-.6 0a8.6 8.6 0 0 0-.8-3.5l-1.3.5c-.6.1-.8-.6-.3-.9l1.4-.5c-9.9-2.3-13.4-13.2-15-22.3ZM61.5 281a9 9 0 0 1-2.2-7l.6-2.8c-3.5 5.6-7 11.4-7.8 18.3-.1.4-.8.5-.8 0a26 26 0 0 1 4.2-13.3c2-3.6 4-7.2 6.2-10.8a79 79 0 0 1-9.7 8.7v.4c-1.5 2.8-3.3 5-4.3 8.2-1 2.7-1.5 5.7-1.5 8.6-.1 4 1.2 7.9 0 11.6 6.7-6.2 14.4-12 15.3-21.9Zm-31.2 6.4c-2.1 2-3.7 4.3-5.8 6.3-2.8 2.7-6 5-9.2 7-.3.2-.6-.2-.4-.5 3.6-2.8 7.1-5.7 10-9.2 1.6-1.8 2.8-3.8 4.6-5.3a23.7 23.7 0 0 0-14.8 9.7c-3.2 4.1-7 6.8-11.5 9.2 6.3.4 12.2-1 17.5-4.8 4.7-3.4 7-7.7 9.6-12.4Zm.9-11.5c-1.7.2-3.4.2-5.1 0-5.1-.6-10.2-1.7-15.3-2.6-.5 0-.4-1 .1-.9 7.5.8 16.3 3.1 23.6.6-3.9 0-7.4-1.3-11.1-2.8-6.9-3-12.8-1.1-18.5 3 5.4 1.3 8.9 6.4 15 6.5 4.3 0 8-1.6 11.3-3.8Zm4.3-2.9h-.1v.1h.1ZM69.7 287c-2.2-1-4.8-2.3-6.7-4.2-.7 9.5-11 16.9-17.6 22.4-.5.4-1-.2-.8-.6v-.5c2.5-5.2-.2-12.3.6-18 .5-3 1.5-6.4 3.2-9.2a69.6 69.6 0 0 1-15.3 8.5s-.1.2-.3.2v.1c-2.4 13.5-19.2 24-32.3 20.2-.9-.3-.5-1.5.4-1.4H1l.2-.2c3.5-1.9 7.1-3.6 10-6.5 2.5-2.4 4.2-5.4 6.8-7.7 3.7-3.1 8.4-5.1 13.1-5.4l1-.5c.4-.2.6 0 .8 0a99.8 99.8 0 0 0 18-11c-2.6 1-5.3 1.5-8 1-1.5-.2-3-.6-4.5-1.3v.2a30 30 0 0 1-17.3 8.2c-3 .2-5.8-.5-8.3-2.1-3-2-5.7-3.7-9-5.3-.2 0-.4-.3-.3-.6 2.2-4.3 8.4-6.2 12.8-6.5 3-.2 5.5.6 8 1.8 3.7 1.6 7 2.5 10.7 2.8a21.8 21.8 0 0 1-6.6-5.4c-.3-.4.2-1 .5-.6 4 3.6 10.3 7 15.8 7 5 0 11.4-3.5 14-7.7 1.9-2.8 3-5.3 5.7-7.4 4.3-3.5 5.2-7.2 6.9-12.2.2-.7 1.4-.6 1.4.2-.2 4-1.4 7.9-4 10.9-1.6 4.3-4.3 8-6.2 12.3-1.7 3.7-2.6 7.3-.2 10.6.2.1.5.3.5.6v.2l.2.3c2 2.2 5 3.7 7.7 4.9 1.2.6.2 2.5-1.1 2Zm48.2-95.4c-4 2.2-8.5 3-12.3 5.7-4.3 3.1-8 7.7-9.2 12.9 0 0-.2 0-.1-.1a25.8 25.8 0 0 1 21.4-19.6c.5 0 .8.8.2 1.1Z"/>
</svg>