<svg xmlns="http://www.w3.org/2000/svg" width="307" height="202" fill="none" opacity="0.5">
  <mask id="a" width="26" height="35" x="0" y="0" maskUnits="userSpaceOnUse" style="mask-type:luminance">
    <path fill="#fff" d="M0 0h25.1v34.7H0V0Z"/>
  </mask>
  <g mask="url(#a)">
    <path fill="#c4c29e" fill-rule="evenodd" d="m22.8 32.6.5 1c.4.7 1 .4 1 .3.2-.1.3-.2.3-.5L25 30c0-1.2 0-2.5-.4-3.8-.3-1.3-.7-2.5-1.4-3.6l-1.8-3.2-1.6-2c-1-1.2-2.3-2.2-3.5-3.2l-5.7-4.1c-.7-.5-1.6-1-2.4-1.7L6.8 7l-.6-.8-.5-.6-1.1-1.1c-.9-1-1.5-2.2-2.4-3.2 0 0-.8-.8-1.2-1C.7 0 .3.2.3.3.2.3 0 .5 0 .8V2c.1.6.3 1.2.7 1.8.6 1.2 1.6 2.2 2.3 3.2 1.1 1.5 2 3.3 3 4.9l1.6 2 2 2.2 2 2.3 4.2 4.2L17 24l.6.5.4.4.5 1c.7 1 1.7 2 2.5 3l.6 1.3.5 1 .7 1.4Zm1.5.1c.1 0 .3.2.2.3-.1 0-.2-.1-.2-.3ZM1 1.7l.4.4 2.3 3c.4.5.8 1 1.3 1.3l.4.4.6.8L7.6 9l2.5 1.7c1.9 1.3 3.9 2.6 5.7 4 1.2 1 2.3 2 3.3 3.2l1.4 2c.6 1 1 2.2 1.6 3.3a16 16 0 0 1 1.4 6.8v.9l-.2-.3-.3-.8c-.2-.6-.5-1.1-.9-1.6-.7-1.1-1.7-2-2.4-3-.3-.4-.4-.9-.7-1.2l-.6-.6-1.8-1.7a69.2 69.2 0 0 1-8.5-8.2l-1.4-2-2.9-4.9-2-2.7c-.3-.6-.6-1.2-.7-1.8v-.3Zm-.2-.6c0-.2 0-.2.2-.2L.9 1Z" clip-rule="evenodd"/>
  </g>
  <path fill="#c4c29e" fill-rule="evenodd" d="m282.7 114-.6.2c-.5.1-.6-.2-.6-.4v-.3l1.4-1.6 1.7-1.5c.7-.5 1.4-.8 2.1-1l2.2-.6c.5-.2 1-.2 1.6-.3l2.9.1 4.3.7 1.7.2h1.2l.6-.1h1.5c.7-.2 1.5-.4 2.3-.4h1c.3 0 .3.2.4.3l-.1.3-.6.6-1 .5c-.8.3-1.7.3-2.4.4-1.2.2-2.3.6-3.4.9l-1.6.2-1.8.2-1.8.1H290l-1 .1h-.6a1 1 0 0 0-.3 0l-.7.2c-.7.2-1.5.2-2.3.3l-.9.3-.6.3-.9.2Zm-.7-.6s-.2-.1-.2 0h.2Zm23.4-3.8h-.3l-2.4.3h-1.4l-.6.1h-1.3l-1.8-.3-4.3-.7h-2.8a8 8 0 0 0-1.4.3l-2.2.8c-.6.2-1.2.5-1.8 1-.6.4-1.2.9-1.6 1.4l-.4.4h.2l.5-.3 1-.3 2.4-.3.8-.2h2l4.4.2h1.2a28.5 28.5 0 0 0 3.1-.5l3.4-1c.6 0 1.4-.1 2-.3.5 0 .8-.2 1.1-.5l.2-.1Zm.3-.3s.1 0 0-.1v.1ZM256.3 48.7v.6c0 .4-.4.4-.5.4 0 0-.2 0-.3-.2l-1-1.7-.8-2-.2-2.3.2-2.2.3-1.5c.2-.9.6-1.7 1-2.5l2-3.7.8-1.5.3-1 .1-.6.2-.4.3-1 .4-2.2.3-.9.4-.2s.2 0 .3.2l.3.7.2 1.1c0 .8-.4 1.6-.5 2.3l-.3 3.3-.3 1.5-.4 1.7a65.2 65.2 0 0 1-1.7 5l-.3 1c0 .1 0 .3-.2.5V44l-.6 2.2v2.5Zm-.7.4c-.1 0-.2.1 0 .2V49Zm4.2-22.3-.1.3-.5 2.2-.3 1-.2.3v.6l-.5 1.1-.9 1.5-2 3.6-.9 2.6-.2 1.4v2.1a9.4 9.4 0 0 0 1 3.9l.3.5v-1.7l.5-2.3v-.8l.2-.4.6-1.4a39 39 0 0 0 2.3-6.5l.2-1.4c.1-1.1.1-2.3.3-3.4 0-.6.3-1.2.3-1.9V27l-.1-.2Zm-.1-.4s-.1-.1-.1 0c-.1 0 0 0 0 0ZM83 113.8l.4.8c.3.5.7.3.8.2l.2-.4.2-2.6c0-.8 0-1.8-.3-2.8-.2-1-.6-1.9-1-2.7l-1.4-2.4-1.2-1.5a21 21 0 0 0-2.6-2.4l-4.3-3-1.8-1.3-1-1-.4-.6-.4-.4-.8-.9-1.8-2.3-.9-.8c-.3-.2-.5-.1-.6-.1l-.2.4.1 1c0 .4.2.9.4 1.3.5.9 1.3 1.7 1.8 2.4l2.3 3.7 1.1 1.5 1.5 1.7 1.5 1.6 3.2 3.2.9 1 .4.4c.2 0 .2.2.3.3l.4.7 1.8 2.3c.3.3.4.6.6 1l.3.7.6 1Zm1.1.1c.2 0 .3.1.2.2l-.2-.2ZM66.7 90.7l.3.3c.7.7 1.2 1.5 1.8 2.3l1 .9.3.3.4.6 1.2 1 1.8 1.3 4.3 3a17 17 0 0 1 2.5 2.4l1 1.5 1.2 2.5a12.4 12.4 0 0 1 1 5v.7-.2l-.4-.6a5 5 0 0 0-.6-1.2l-1.8-2.3-.5-.9-.4-.3-1.4-1.3a52 52 0 0 1-6.4-6.2c-.4-.4-.7-1-1-1.5l-2.2-3.7-1.5-2a3 3 0 0 1-.5-1.4v-.2Zm0-.5V90c.1 0 0 .1 0 .2ZM253.3 59l.5.5c.3.3.6 0 .7 0V59l-.5-2.2-1-2.3c-.5-.8-1-1.5-1.6-2l-1.9-1.7-1.3-1c-1-.6-1.9-1-2.9-1.4L241 47l-1.8-.7-1.1-.5-.6-.4-.4-.3-1-.5-2-1.5-1-.5-.4.1-.1.4.3.8c.2.4.4.8.7 1 .7.7 1.5 1.1 2.2 1.6l2.9 2.5 1.3 1 1.7 1 1.7 1.1 3.5 1.9 1 .5.5.3.3.2.5.5 2.1 1.4.7.7.5.6.8.7Zm.9-.3s.2 0 .1.1h-.1Zm-20.7-15.2.3.2 2 1.4 1.1.6c.1 0 .2 0 .3.2l.6.3c.3.3.7.5 1.2.6.6.3 1.3.5 1.9.6l4.3 1.4c1 .4 1.8.9 2.7 1.4l1.3 1 1.7 1.8c.5.5 1 1.2 1.3 2l1 2v.7-.1l-.4-.5-1-.9-2-1.4-.7-.6-.4-.3-1.5-.7a46.5 46.5 0 0 1-7-3.6 14 14 0 0 1-1.2-1c-1-.8-1.9-1.8-2.9-2.5l-1.7-1.4c-.4-.3-.7-.6-.8-1l-.1-.2Zm-.3-.4v-.2c.1 0 0 .1 0 .2ZM45 89.3c.2.3.6.4 1 .2.3-.2.4-.6.2-1a5 5 0 0 1-.3-.6v-.4a13.8 13.8 0 0 0-1-3l-.7-2-.5-1-2.5-2.8-.7-1.1c-.5-1.4-1.1-2.6-2-3.8-.8-1.1-1.7-2.2-2.7-3.1-.6-.6-1-1.3-1.5-2l-.4-.5-4-3.3-6-5a85.4 85.4 0 0 1-4-3.6l-3.7-3.9c-.3-.3-.9-.7-1.5-.8-.5-.2-1-.1-1.4.2-.3.2-.4.5-.3 1 0 .7 1 1.8 1.1 2.2l2.4 3.3.8 1.4.8 1.7.8 1 1.2 1.4c1.6 2 2.7 4.4 4.5 6.2l2 2 3 3 6.2 5.6 1.5 1.4c1.2 1.1 2.6 2 3.8 3l1.4 1.3L44 88l1 1.2Zm-1-3.4-.5-.5-1.5-1.5c-1.2-1-2.6-1.8-3.7-3l-1.9-1.5L29 73a66.5 66.5 0 0 1-3.8-3.5c-1.8-1.8-2.8-4.3-4.3-6.3l-1.3-1.5a4 4 0 0 1-.6-.9l-.7-1.5c-.2-.6-.5-1.1-.9-1.6-.7-1.2-1.6-2.3-2.3-3.3 0-.3-.5-.8-.8-1.3-.1-.3-.4-.7-.2-.7h.7l.8.6 3.8 3.8 1.7 1.6c2.8 2.5 5.8 4.7 8.8 7a67.9 67.9 0 0 1 4 3.7c.5.7.8 1.5 1.4 2 .9 1 1.8 2 2.5 3.2.7 1 1.3 2.3 1.6 3.5a6 6 0 0 0 1.2 2c.7 1 1.5 1.7 2.1 2.4l.4.7.7 2 .4 1ZM264.7 97.5l-1.6 1.6-.1.1-.8.9-.4.6a5.8 5.8 0 0 0-1 1.6v.2l-.2.6c0 .4.2.7.6.8.3 0 .7-.1.8-.5l.2-.6.4-.7c0-.2.2-.4.3-.5l1.2-1.5.1-.1 1.4-1.4.6-.5c1.2-1 2.6-1.8 3.9-2.7a54.4 54.4 0 0 0 10.4-9.6c2-2.4 3.7-5.1 5-8 .4-1.2 1-2.2 1.5-3.1l2-2.9c.2-.2 1-1.1 1.3-1.7.2-.5 0-.9-.1-1-.2-.2-.5-.3-1-.2-.5.1-1.3.6-1.5.8l-3 2.1c-.7.5-1.3 1-1.9 1.7-1.9 1.9-4.2 3.5-6.2 5.3-1 .8-1.8 1.6-2.5 2.5-.7.8-1.2 1.6-1.7 2.5-1 2-1.7 4.3-2.8 6.3-.5 1-1.2 1.8-1.8 2.7l-.5.8a21.6 21.6 0 0 1-2.6 3.9Zm24.5-27.7-1 .7-3 2-1.8 1.5c-2 2-4.3 3.5-6.4 5.3-.9.7-1.7 1.5-2.4 2.4-.7.8-1.2 1.6-1.6 2.4-1 2.1-1.5 4.4-2.4 6.5a9 9 0 0 1-.5.7c-.5 1-1.2 1.8-1.6 2.8l-.7 1.2 1.6-1c3.2-2 6.4-4.3 9-7.2a30 30 0 0 0 6.2-9.7 20.4 20.4 0 0 1 3.6-6.2l.8-1 .2-.4Zm.3 0s.1.1.1 0h-.1ZM37.8 35.3c0 .5.2 1 .4 1.4v.1l.3.7.2.4.2.5.4.5.2.2.2.2c.2.2.5.1.7 0v-.7l-.4-.2-.3-.5c0-.1 0-.2-.2-.3l-.4-1.2-.4-1.3-.1-.5-.3-3a35.4 35.4 0 0 0-2.3-8.9c-.8-1.9-1.8-3.6-3.1-5.2l-1.3-1.9-1-2c0-.2-.3-.9-.6-1.2-.2-.3-.4-.3-.6-.3-.2 0-.3.2-.4.5v1.1l.3 2.4.3 1.6c.6 1.6.8 3.4 1.2 5.1.1.8.4 1.5.6 2.2l1 1.7c.8 1.3 1.9 2.3 2.7 3.5l1 1.9a13.8 13.8 0 0 1 1.7 3.2Zm-8.3-22.4.1.8.3 2.3.3 1.5c.5 1.7.6 3.5 1 5.2a7.6 7.6 0 0 0 1.6 3.8c.8 1.2 2 2.2 2.8 3.3l.3.5 1.1 1.8.5.7a42.5 42.5 0 0 0-1.4-8.5c-.8-2.4-2-4.5-3.7-6.5A13.2 13.2 0 0 1 30 14l-.3-.8-.2-.2Zm0-.2h.2-.1ZM256 111.6l-.5 2.7c-.1.5-.3 1-.6 1.4v.2c-.4.7-.7 1.4-1.2 2l-1 1-2 1.2c-.3.2-.5.6-.3.9.2.3.6.4 1 .3l2-1.3 1.4-1.3c.5-.6.9-1.4 1.3-2.2.3-.5.6-1.3.8-2.1l.3-2 .1-1c.1-2.1-.1-4.3-.6-5.3-.2-.3 0-1 0-1.4l-.1-.6-1-3.6a7 7 0 0 0-1-2.3c-.9-1.5-2.3-2.7-3.2-4.1a3 3 0 0 0-.7-.8c-.6-.5-1.4-.8-2-1.2l-8-6.1c-1.6-1.3-3.8-2.2-5.7-3.3-.8-.5-1.5-1-2.1-1.7-.6-.5-.7-1.3-.8-2.2-.2-1-.2-1.9-.5-2.7-.1-.6-.4-1-.7-1.4-.3-.3-.7-.3-1 0-.5.3-1 1.3-1 1.4-.2.7-.2 1.5-.2 2.2 0 1 .3 2.1.4 3 .4 2.3 1.5 4.7 3 6.8 1.5 2 3.4 3.8 5.4 5 2.9 1.6 6 2.8 8.9 4.5 1.8 1.2 3.5 2.5 5 4.3.5.8 1.4 1.5 2 2.3.3.3.6.6.7 1a17.3 17.3 0 0 1 1.8 6.4Zm-25.7-35.9a6 6 0 0 0-.4.7c-.2.6-.2 1.2-.2 1.9 0 1 .2 2 .4 3 .3 2 1.3 4.3 2.7 6.3 1.4 2 3.2 3.7 5 4.8 2.4 1.4 4.9 2.5 7.3 3.8l3 1.8c1.5 1 2.8 2 4 3.4l2.1 2c.4.4.7.8.9 1.3l.2.3v-.6l-.6-2.2-.3-1.5c-.1-.7-.4-1.3-.7-1.9-1-1.5-2.2-2.8-3-4.2l-.6-.6-1.8-1.3-2.4-2-5.6-4.1c-1.7-1.2-3.9-2-5.8-3.2-.8-.5-1.7-1-2.3-1.7-.4-.3-.6-.8-.8-1.3-.4-1-.4-2.2-.6-3.3-.1-.5-.2-1-.5-1.4ZM109 163.7a9.7 9.7 0 0 1 3.8 1.8h.2c.7.6 1.3 1 1.7 1.6.3.3.6.7.8 1.2l.8 2.2c0 .3.5.5.8.4.4-.1.6-.5.5-.9l-.8-2.1-1-1.7-2-1.7c-.4-.5-1-.9-1.9-1.3l-1.9-.7-1-.2c-2-.6-4-.8-5.2-.5-.3.1-1-.1-1.4-.2h-.6l-3.7.1a7 7 0 0 0-2.4.6c-1.7.6-3.2 1.7-4.7 2.3l-1 .6-1.5 1.7-7.6 6.7c-1.5 1.3-2.8 3.3-4.3 5l-2 1.7c-.7.4-1.5.4-2.4.3h-2.7c-.6 0-1.1.1-1.6.4-.3.2-.4.6-.2 1 .3.5 1.1 1.2 1.3 1.3.6.3 1.3.4 2 .5 1.1.2 2.2.2 3.2.2 2.2 0 4.7-.5 7-1.6 2.4-1 4.5-2.6 6-4.3 2.2-2.5 4-5.4 6.3-7.8a19 19 0 0 1 5.1-4l2.7-1.7a17.4 17.4 0 0 1 7.8-1Zm-40.2 18 .6.6c.6.3 1.2.4 1.8.5l3 .3c2.1 0 4.5-.5 6.7-1.5 2.3-1 4.3-2.3 5.7-4 1.9-2 3.5-4.2 5.2-6.3.7-1 1.5-1.9 2.4-2.7 1.2-1.2 2.5-2.3 4-3.1l2.5-1.8 1.3-.6h.4l-.6-.2-2.2.1H98c-.7 0-1.4.2-2 .4-1.7.5-3.2 1.6-4.8 2l-.7.5c-.6.5-1 1.1-1.6 1.5l-2.3 2-5.3 4.7c-1.5 1.4-2.7 3.4-4.2 5-.6.8-1.3 1.5-2.1 2-.4.3-1 .4-1.5.5-1 .2-2.2 0-3.3 0l-1.5.1Z" clip-rule="evenodd"/>
  <path fill="#c4c29e" fill-rule="evenodd" d="M247.4 106.3c.1.2.3.3.5.2l3 1.6c1 .8 2 2 2.6 3.4.6 1.3 1 2.8.8 4-.1.6-.4 1.2-.7 1.7l-1 1.6-2 1.3c-.3.3-.3.7 0 1 .2.3.6.3 1 0l1.5-1 .5-.4 1.4-2.2.6-1.8a9.7 9.7 0 0 0-4.2-8.4l-2.8-1.4-.1-.4c-1-1.8-2.2-4.2-4-6a8.2 8.2 0 0 0-4.4-2.6 23 23 0 0 0-5.2-.1c-2.3.2-4.7.6-7 1a35 35 0 0 1-7 0 7 7 0 0 1-1.6-.4c-.6-.3-1-.7-1.6-.9a2 2 0 0 0-1 0c-1 .3-1.5 1-1.5 1.9 0 1 .6 2.3 1.1 3a15 15 0 0 0 4.1 3.3 12.3 12.3 0 0 0 7.4 1.5c1.9-.1 3.7-.5 5.5-.6 2.2-.2 4.4-.4 6.6-.4a25.6 25.6 0 0 1 7.5 1.1Zm-.6-1c-.8-1.5-1.9-3.4-3.3-4.9-1-1-2.2-1.9-3.6-2.2-1.6-.3-3.3-.4-5-.4-2.2 0-4.6.3-7 .6-1.5.2-3 .3-4.7.3h-2.5l-1.7-.5c-.5-.2-.9-.6-1.3-.7-.3-.1-.5-.2-.8 0-.5 0-.7.4-.7.9a4 4 0 0 0 1 2.3c1 1.2 2.3 2.3 3.7 3.1a11.6 11.6 0 0 0 6.9 1.6c1.8-.1 3.6-.5 5.5-.6a89.2 89.2 0 0 1 11 0l2.5.5ZM102.2 171l.3-.4a15 15 0 0 1 2.1-2.6c1-.9 2.4-1.6 3.8-2 1.4-.3 3-.4 4.1 0l1.6 1 1.3 1.4.9 2.1c.2.4.6.5 1 .3.3-.2.4-.6.2-1l-.7-1.7-.3-.6c-.5-.6-1.2-1.2-2-1.8-.4-.4-1-.7-1.5-1a9.7 9.7 0 0 0-9 2.5 15 15 0 0 0-2 2.6h-.4c-2 .5-4.6 1.3-6.7 2.7a8.2 8.2 0 0 0-3.4 3.8 23 23 0 0 0-1.1 5c-.3 2.4-.3 4.8-.5 7.2a34.2 34.2 0 0 1-1.3 7l-.7 1.3c-.4.6-1 1-1.2 1.5a2 2 0 0 0-.2 1c0 1 .7 1.5 1.5 1.7a5 5 0 0 0 3.2-.5c1.5-.8 3-2 4-3.3a12.3 12.3 0 0 0 3-7c.3-1.8.3-3.7.5-5.5.2-2.2.4-4.4.9-6.5a25.8 25.8 0 0 1 2.6-7.2Zm-1.1.4a21 21 0 0 0-5.5 2.2 7 7 0 0 0-2.8 3.2c-.7 1.5-1.1 3-1.4 4.7-.4 2.3-.6 4.7-.8 7-.2 1.6-.3 3.2-.6 4.7-.2.9-.3 1.7-.6 2.5a8 8 0 0 1-.8 1.6l-1 1.2c0 .1-.2.4-.1.7 0 .5.3.8.8.9a4 4 0 0 0 2.4-.5c1.4-.8 2.7-1.8 3.8-3a11.7 11.7 0 0 0 2.9-6.5l.5-5.5a88.2 88.2 0 0 1 2.2-10.9l1-2.3Z" clip-rule="evenodd"/>
  <path fill="#c4c29e" fill-rule="evenodd" d="m228.2 145.9-.1.2a11 11 0 0 1-1.7 2.2c-.3.2-.6.1-.7-.1-.2-.3-.2-.6 0-.8l.8-1 .8-1A65.2 65.2 0 0 0 231 135l1-2.7.4-.8a40.4 40.4 0 0 1 2-6.2 16.7 16.7 0 0 1 2.7-4.4l1.7-1.7 1.2-1.1 3-2.2.2-.3.7-1.1 1.1-1.2c.4-.2.7-.2 1 0 .2.1.3.4.3.8s-.2.9-.3 1.1c0 .6-.2 1.1-.4 1.6-.4 1.1-1 2.1-1.3 3.2l-1 2.2c-.4 1-1 2-1.4 3.2l-2.2 4.6a12.3 12.3 0 0 1-3 3.9l-3 2.3c-1 1-2 2-2.7 3.2-.5.8-.9 1.7-1.1 2.6l-.8 2.6-.1.3.1.6c0 .3-.1.6-.4.7-.2 0-.4-.1-.5-.3Zm17.4-32v.4l-.2.8c0 .5-.2 1-.3 1.4l-1.4 3.2-.8 2.2-1.5 3.2-2 4.6a10.8 10.8 0 0 1-3.2 3.5l-3 2.2c-.8.7-1.5 1.4-2.2 2.3a61.9 61.9 0 0 1 1.5-5l.4-.6v-.4a31 31 0 0 1 1.5-5.1 16.8 16.8 0 0 1 3.1-5.2l1.8-1.6 1.1-1c1-.8 2.1-1.4 3-2.2l.4-.4c.2-.3.3-.8.6-1.1l.7-.8.4-.4ZM256.3 133.5h-.3a14.3 14.3 0 0 0-3.5 1.7c-.3.2-.4.6-.2 1 .3.2.7.3 1 .1a12.1 12.1 0 0 1 3-1.4c1.3-.4 2.7-.6 4.1-.8l6.3-.4a82.8 82.8 0 0 0 7.4-.8l1.2-.3a46.5 46.5 0 0 0 8.2-.6 21.4 21.4 0 0 0 6.6-2.2l2.7-1.7 2-1.3c1.3-1 2.5-2.3 4-3.3l.4-.2c.5-.2 1.1-.2 1.6-.5.3-.1 1.3-.6 1.9-1.1.4-.4.6-1 .5-1.3 0-.4-.4-.6-.8-.7h-1.5a9 9 0 0 0-2 0c-1.5.1-3 .6-4.5.8-1 0-2 .3-3 .5l-4.5 1c-2.1.4-4.3.7-6.4 1.2a16.9 16.9 0 0 0-6 3l-4.2 3c-1.6 1-3.3 2-5 2.6-1.3.4-2.5.7-3.7.7l-3.4.3a1 1 0 0 1-.4 0l-.7-.4a.7.7 0 0 0-1 .3c0 .2 0 .6.2.8Zm46-12.8-.6-.1H299c-1.4.1-3 .5-4.4.7-1 0-2 .2-3 .4l-4.4.9c-2.2.4-4.4.7-6.5 1.3a15.1 15.1 0 0 0-5.6 3c-1.4 1-2.6 2.3-4 3.3-1.2.8-2.4 1.6-3.7 2.2a96.9 96.9 0 0 0 6.7-.4l.8-.2h.5a35.6 35.6 0 0 0 6.7-.3 21.7 21.7 0 0 0 7.6-2.5c1-.5 1.8-1.2 2.7-1.7.7-.4 1.3-.8 1.8-1.3 1.4-1.1 2.6-2.3 4-3.3l.5-.3c.6-.2 1.2-.2 1.7-.5l1.3-.7.6-.4v-.1ZM73.8 158h.4c.4 0-2.7-1.5-4.1-1.7l-6.2-1.4a97.5 97.5 0 0 0-7.3-1.3h-1.2a46.8 46.8 0 0 0-8-1.7 21.7 21.7 0 0 0-7 .3l-3.1.9c-.8.1-1.5.4-2.2.7-1.6.6-3.1 1.5-4.8 2h-.5l-1.7.1c-.3 0-1.4.2-2 .6-.6.3-1 .6-1 1s.3.7.7 1l1.4.4c.6.3 1.3.5 2 .6l4.4.4 3 .4 4.6.3 6.6.6a16.8 16.8 0 0 0 6.6-1.2l4.8-1.8c1.8-.6 3.7-1 5.6-1 1.3 0 2.5 0 3.7.3l3.5.4.8.1h1Zm-47.7-.5.5.3c.4 0 .8.2 1 .3l1.7.5c1.5.3 3 .3 4.5.5l3 .4 4.5.4c2.2.2 4.3.6 6.5.6a15 15 0 0 0 6.3-1.3c1.6-.7 3.1-1.5 4.7-2.1 1.4-.5 2.7-.9 4.1-1a83.3 83.3 0 0 0-6.5-1.6h-.8l-.5-.1a35.2 35.2 0 0 0-6.5-1.7 21.7 21.7 0 0 0-8 .3l-3.1 1-2 .7-4.8 2.1-.6.1h-1.8l-1.4.3-.7.3ZM45.4 116.3l.2.1a9 9 0 0 0-2-2.3A55.3 55.3 0 0 1 38 110l-2.1-1.5-.7-.3a33.9 33.9 0 0 0-4.5-3.5 14.2 14.2 0 0 0-4.2-1.8l-2-.4-1.5-.2h-3.3l-.4-.2-1-.5-1.4-.2c-.4 0-.6.2-.7.4-.1.3 0 .5.1.8l.8.7 1 .9 2.6 1.6 1.8 1.1 2.6 1.5 3.9 2.3a11 11 0 0 0 4.2 1.2l3.3.3c1.2.1 2.4.5 3.6 1 .7.3 1.5.7 2.1 1.2l1.9 1.5.1.2c.1 0 1.1.4 1.1.2Zm-28.5-14.2.2.3.5.4 1 .9c.7.6 1.7 1 2.5 1.6l1.7 1.2 2.6 1.5c1.3.8 2.5 1.7 3.8 2.3a9.7 9.7 0 0 0 4 1h3.4l2.7.6a86.3 86.3 0 0 0-3.6-2.9l-.5-.2-.3-.2a26.7 26.7 0 0 0-3.5-3 14.6 14.6 0 0 0-4.8-2.1l-2.1-.3-1.4-.2h-3.4l-.3-.1-1-.6-1-.2H17ZM219.3 153.7l-1.2.3c-.4.1-.6.5-.5.9.2.3.6.5 1 .4l.9-.3h.9a9 9 0 0 1 3.9 1.7l.5.2c.5.2 1.1.2 1.6.5l3.2 2.4 1.5 1a84 84 0 0 0 12.7 6 28 28 0 0 0 10.5 1.5l2.8-.5c2-.4 4-.3 6-.6 1 0 1.9-.2 2.7-.4 1-.3 2-.4 2.8-.9.6-.4 1-1 1-1.9.2-.8-.2-1.3-1-1.6-1-.4-2.6-.3-3.3-.3a38.4 38.4 0 0 1-13.6-1.6c-2.3-.7-4.7-1.8-7-2.6l-3.2-1c-1 0-2-.4-3-.5l-1.4-.2-1.7.2h-.5l-4-.6-4-.4a6 6 0 0 1-2.4-1c-1-.5-1.8-1-2.8-1.3-.6-.2-1.2-.2-1.8-.2-.3 0-.6.4-.6.8Zm8.7 3.2h.1a75.5 75.5 0 0 0 16 9.2 25.3 25.3 0 0 0 10.5 1.3l2.3-.5c2-.4 4.1-.5 6.2-.7l2.5-.4c.9-.2 1.8-.3 2.4-.7.4-.2.6-.6.7-1.2 0-.4-.3-.6-.8-.7-.9-.3-2-.2-2.6-.2a40.3 40.3 0 0 1-13.8-1.9c-2.3-.6-4.7-1.8-7-2.5-1-.4-2-.6-3.1-.8l-3-.5H237l-1.5.2h-.9l-6.7-.6ZM99.8 160.8l.6 1.2a.7.7 0 1 0 1.2-.7l-.4-.8c-.2-.4-.1-.6-.2-1 0-.6 0-1.3.2-2l.6-2 .2-.7c.1-.5 0-1 .2-1.6l1.8-3.6.7-1.7a83.3 83.3 0 0 0 3.4-13.6 28 28 0 0 0-.5-10.6l-1-2.7c-.7-1.9-1.1-3.9-1.7-5.8-.2-1-.5-1.8-1-2.6-.4-1-.7-2-1.3-2.6-.5-.4-1.1-.7-2-.6-.9 0-1.3.5-1.4 1.2-.3 1.1.1 2.8.3 3.5a38.7 38.7 0 0 1 1 13.6c-.3 2.4-1 5-1.3 7.4-.2 1-.3 2.2-.3 3.3v4.5l.6 1.6.1.5c0 1.4 0 2.7.2 4 0 1.4.2 2.7.3 4a6 6 0 0 1-.4 2.6c-.4 1-.8 2-.9 3 0 .6 0 1.2.2 1.8.1.3.5.5.8.4Zm1.6-9.1v-.1c.7-1.4 1.5-2.7 2-4.1a75.4 75.4 0 0 0 4-13.3 25.4 25.4 0 0 0-.7-10.6l-1-2.2-1.8-6a19 19 0 0 0-.9-2.3c-.3-.9-.6-1.8-1.1-2.3-.3-.3-.7-.5-1.3-.5-.5 0-.5.5-.6 1 0 .9.3 2 .4 2.5a40 40 0 0 1 .7 14c-.2 2.4-.9 4.9-1.2 7.4-.1 1-.2 2.1-.1 3.1v3.1l.2 1.3c.1.5.4 1 .6 1.4l.1.9.7 6.7ZM205.3 163.7h.2l1-.2.7.1a17 17 0 0 0 3 1.3 56.5 56.5 0 0 0 8.5 1.7c.8 0 1.7.3 2.6.4h1c2.2-.1 4.5-.5 6.8-.7a19.5 19.5 0 0 1 6.5.7l5.1 1.5c1.2.4 3.2.9 4.7 1.7.8.4 1.4 1 1.7 1.6.1.3 0 .5-.2.7-.2.3-.9.3-1 .3h-2.6c-1 .2-2 .2-3 .2l-4.4-.1a55.8 55.8 0 0 1-13.8-2.3c-2.5-.8-4.8-2-7.3-2.7-2.3-.7-4.8-1.2-7.1-2-1-.2-2.1-.6-3-1h-.2a.7.7 0 0 1-.2-.9c.1-.3.5-.5.8-.3h.2Zm-.1 0Zm40.7 8.1h-2.7l-2.9.2h-4.4a52.2 52.2 0 0 1-11.7-1.5l-1.8-.7-4.6-2.2h.8l2.6.3h1.1c2-.2 3.9-.6 5.8-.9a18.9 18.9 0 0 1 7.3.7l5 1.7c1 .3 2.6.7 4 1.3l1.5 1.1Zm.2 0s.1-.1.2 0h-.2ZM87.5 162v-.1l-.4-.5a.9.9 0 0 0-.4-.3 11.4 11.4 0 0 1-1.9-.8 38.5 38.5 0 0 1-4.5-3.3c-.4-.3-1-.6-1.3-1l-.5-.4-2.7-3.5-1.3-1.4c-.6-.5-1.2-1-2-1.4-.9-.6-2-1-3-1.7-.6-.3-1.7-1-2.7-1.4-.6-.2-1.1-.2-1.5 0-.2 0-.3.1-.3.3l.3.7.7.6.4.5 1.3 1.5 2 2a36.3 36.3 0 0 0 7.2 5.5l4.5 2.1 4 2.5 1.9 1a.4.4 0 0 0 .3-.8Zm0 0s.1 0 0 0Zm-21.7-15.3.7.7.5.5 1.2 1.5 2 2a32.8 32.8 0 0 0 5.8 4.8l1.1.5c1 .5 2 .8 3.1 1.2l-.4-.4-1.2-1-.5-.6-2.2-3c-.5-.7-1-1.3-1.7-1.9l-1.8-1.3-3-1.6c-.6-.3-1.5-.8-2.4-1.1l-1.2-.3Zm-.1-.1v-.1ZM60.9 82.8v-.1l-.3-.7.1-.6a12 12 0 0 0 .8-2.2 43.2 43.2 0 0 0 .7-6.4l.2-2v-.7l-1-5a14.8 14.8 0 0 1 .1-4.8l.9-4c.2-.8.4-2.3 1-3.4.2-.7.6-1.1 1-1.4h.6c.2.2.3.7.3.8v1.2l.1.7c.2.7.3 1.5.3 2.2l.2 3.3a42.4 42.4 0 0 1-.3 7.2l-.3 1.7-.3 1.5c-.5 1.8-1.3 3.6-1.6 5.4l-1 5.4c-.2.8-.3 1.6-.6 2.3v.1c-.1.2-.4.4-.6.3a.5.5 0 0 1-.3-.7Zm0 0v.1Zm3.6-30.4v1.2l.2.8.3 2.1.2 3.3a38.8 38.8 0 0 1-.4 8.7l-.4 1.4-1.4 3.5v-3.5l-1-4.1a13.9 13.9 0 0 1 0-5.4l1-3.9c.2-.7.4-1.9.8-2.9.2-.5.4-1 .7-1.2Zm0-.2s-.1 0 0-.1ZM272.2 73.8l-.1-.2-.2-.6.1-.6a12.1 12.1 0 0 0 .7-2.3 43 43 0 0 0 .8-6.4l.1-1.9V61l-.9-5a14.7 14.7 0 0 1 .1-4.8l.9-3.9c.2-.8.4-2.4 1-3.5.2-.6.6-1 1-1.3.2-.2.4-.1.6 0l.2.8.1 1.1.1.8.3 2.2.2 3.3a42.6 42.6 0 0 1-.3 7.1l-.3 1.8c0 .5-.2 1-.3 1.4-.5 1.8-1.3 3.6-1.6 5.5l-1 5.4-.6 2.3c-.1.3-.4.4-.7.3a.5.5 0 0 1-.3-.6v-.1Zm0 0Zm3.6-30.4v1.1l.1.8.4 2.2.2 3.2a38.6 38.6 0 0 1-.4 8.8l-.4 1.3-1.4 3.5V61l-1-4.2a14 14 0 0 1 0-5.4l1-3.8c.2-.7.4-2 .8-3 .2-.4.4-.9.7-1.1Zm0-.2s-.1-.1 0-.1ZM38 101.5v-.1l-.6-.5a1 1 0 0 1-.2-.5 12.1 12.1 0 0 0-.7-2.3 42.5 42.5 0 0 0-3-5.7c-.4-.4-.7-1-1-1.6a4 4 0 0 0-.4-.6l-3.6-3.6a14.6 14.6 0 0 1-2.7-4l-1.4-3.8c-.4-.8-1-2.2-1.3-3.4 0-.7 0-1.3.2-1.7.1-.3.3-.3.5-.3s.6.4.6.5l.7.9.5.5 1.5 1.7 2 2.6a42 42 0 0 1 5.1 9c.7 1.8 1 3.7 1.8 5.4l2.3 5 .8 2.3c0 .3-.1.6-.4.6-.2 0-.5 0-.6-.3v-.1Zm.1 0ZM23.8 74.4l.7.9.6.6 1.5 1.6 2 2.5a39.2 39.2 0 0 1 4.6 7.5l.4 1.3c.4 1.2.6 2.5.9 3.7l-.4-.5-1-1.6-.6-.7-3.2-3a14 14 0 0 1-3-4.4L25 78.6c-.3-.7-.8-1.8-1-2.8-.2-.6-.2-1-.2-1.4Zm0-.2h-.2c0-.1 0 0 .1 0ZM196.5 171.2l-.2-.1s-.9-1-1-1.3c0-.4 0-.7.5-.9 0 0 .4-.1.7.1l.3.4.7 1 1.3 1 .7.6.4.4.5.8.2.2c.5.2 1 .3 1.4.6 1.1.6 2.1 1.4 3.3 2.2l.8.4c1 .6 2.1 1.1 3.3 1.5 1.7.6 3.5 1 5.3 1.5l2.2.8.5.2a10.6 10.6 0 0 1 2.6.9 36.6 36.6 0 0 1 6.3 4.6l2.8 2.6 1.2 1c.3.2.7.6.9 1 .1.4 0 .9-.3 1.2-.4.3-.9.4-1.3.3a4 4 0 0 1-1.4-.8 11 11 0 0 0-2.3-1.5l-4-1.7a27 27 0 0 0-2.7-.9l-4.2-1.1c-1.2-.3-2.3-.8-3.4-1.4a31 31 0 0 1-4.5-3.3l-1.4-1-.7-.6-1.5-1.5c-1.3-1-2.8-2.1-4-3.4l-1.5-1.8-1.5-2Zm5 3.9 3.3 1.9.9.4c1 .6 2.3 1 3.5 1.4l5.3 1.4 2.2.9.6.2a11 11 0 0 1 2.3.8 35.6 35.6 0 0 1 6 4.7c1 .8 1.9 1.8 2.8 2.7.4.4.9.8 1.4 1 0 .2.2.3.3.4 0 0 .2.2 0 .2 0 .2-.2 0-.4 0-.4-.1-.7-.3-.8-.5a12 12 0 0 0-2.6-1.5l-4-1.6-2.2-.7-4.9-1.3a12 12 0 0 1-3.2-1.5 29 29 0 0 1-4.1-3.5l-1.6-1.2-.3-.3-1.6-1.6c-1-.8-2-1.5-2.8-2.3Zm-4.8-5.5v-.2c-.1 0-.1.2 0 .2ZM89.4 144.5v.1s-.4 1-.7 1.1c-.3.2-.5.2-.8 0 0-.1-.2-.3 0-.6l.1-.4.5-.7.5-1.2.2-.7.2-.4.4-.6.1-.2v-1.1l.8-3 .1-.8c.2-.9.2-1.8.2-2.8l-.3-4.2v-2.3a8.9 8.9 0 0 1 0-2.1 26.4 26.4 0 0 1 1.6-5.9c.3-1 .8-1.8 1.2-2.8l.4-1.1c0-.3.2-.7.5-1 .3-.1.6-.2 1 0 .3.2.5.5.5.9l-.2 1.2-.5 2-.1 3.4v2.2c0 1.2.2 2.3.3 3.4.1 1 0 2-.1 3-.2 1.4-.7 2.8-1.2 4.1l-.3 1.3-.3.6-.7 1.6c-.4 1.2-.8 2.6-1.4 3.8l-1 1.6c0 .2-.5 1-1 1.6Zm1.5-4.8.5-2.8a13.4 13.4 0 0 0 .2-3.7l-.4-4.3v-2.3a8 8 0 0 1 0-2A27.4 27.4 0 0 1 93 119l1.3-2.8.4-1.3.1-.3s.1-.2.2-.1c.1 0 .1.2 0 .4v.7c-.3.7-.4 1.5-.5 2.3v5.1c0 1.3.3 2.7.4 4 0 .9 0 1.8-.3 2.7-.3 1.4-.9 2.8-1.4 4l-.5 1.4-.1.3-.8 1.7-1 2.7Zm-2.7 5.1h-.1c0 .1 0 0 .1 0ZM259.7 74.4v.2c-.1 0-.5.9-.7 1-.3.3-.6.2-.8 0 0 0-.2-.3-.1-.6l.1-.3.5-.8.5-1.2.2-.6.2-.5.5-.5v-.3l.1-1.1.7-3 .2-.7c.1-1 .2-1.9.1-2.8 0-1.5-.2-3-.3-4.3v-2.3a8 8 0 0 1 0-2.1 28.6 28.6 0 0 1 1.7-5.9l1.2-2.8.3-1.1c0-.3.3-.7.6-1 .2-.1.5-.2.9 0 .3.2.5.5.5.9s0 1-.2 1.2l-.4 2-.2 3.4v2.3l.4 3.3c0 1 0 2-.2 3-.2 1.4-.7 2.9-1.2 4.1l-.3 1.3-.2.7c-.3.4-.5 1-.7 1.5l-1.4 3.8-1 1.6-1 1.6Zm1.4-4.7.6-2.9a13 13 0 0 0 .1-3.7c0-1.4-.2-2.9-.4-4.3v-2.3a7.2 7.2 0 0 1 0-2 27.5 27.5 0 0 1 1.9-5.6c.3-1 .8-1.8 1.2-2.7l.4-1.3.2-.4s0-.1.1 0l.1.3-.1.7c-.2.7-.4 1.5-.4 2.3l-.1 3.4V53l.4 4c0 .9 0 1.8-.2 2.7-.4 1.4-1 2.8-1.5 4L263 65v.2c-.4.6-.6 1.1-.8 1.7l-1 2.7Zm-2.6 5-.2.1h.2ZM41.9 59c.2 0 .5 0 .7-.2a20.5 20.5 0 0 0 1-1.6l1.3-1.8a14.2 14.2 0 0 0 1.5-3.6l.6-2.1.2-.4.8-1 2.3-3.8.3-.6.3-1.2c.4-1.4.4-2.7.3-4.1-.2-2-.7-4.1-1-6 0-.5.2-1 .5-1.6.3-.5.5-1 .5-1.5 0-.4-.2-.7-.8-1-.2 0-.4 0-.7.2-.4.2-.9.8-1 1a13.1 13.1 0 0 0-2.9 4.5 43.7 43.7 0 0 0-2.4 8.8c-.3 2-.4 4-.2 6.2.2 1.1 0 2.2.2 3.4l.3 1.5c.1.3 0 .5-.1.8l-1 1.6-1 1.5c-.3.2-.3.6 0 .8l.3.2Zm2.8-5.9.1-.4.5-1.3.8-2c0-.3.1-.5.3-.6l.8-1 2.6-3.6.2-.5.3-1.2c.4-1.3.4-2.6.2-3.9-.2-2-.9-4-1.2-6 0-.4.1-1 .4-1.6l.5-1.2v-.3l-.1-.1h.1c0-.3-.8.7-1 .8a12 12 0 0 0-2.7 4.3c-1 2.3-1.9 4.7-2.3 7.1-.5 2.4-.5 5 0 7.5.2 1 .2 2.2.3 3.3l.2.7ZM188.3 171.9l.3-.7.3-.5.3-.5.6-1.2.2-.4.3-.9.7-1.9a13 13 0 0 0 .4-1.6l.5-1.1.4-1.8.4-1.8.1-.8v-2l.3-3.3.3-5V146c0-.9.2-1.7.4-2.5l1-3.6.8-1.8 1.5-2.6s.5-.9.7-1c.2-.2.4-.2.6-.1.2.1.4.4.5.7.2.5.2 1.3.2 1.7 0 .6.3 1.1.4 1.7l.1.5.1 3-.1 2-.4 3-.3 1.4-1.8 5.3-.2.5-.6 1.1-1.4 3.9-.8 1.4-1 3.2c0 .4-.2.9-.4 1.3l-1.1 2.7-.8 1.8-1.8 3a34.6 34.6 0 0 1-.6 1.2c-.1.2-.4.3-.6.1a.5.5 0 0 1-.2-.6l.4-.9.3-.4Zm9.9-36.8v.3c.2.5.2 1 .2 1.4v.5l.5 1.6.1 3v2l-.4 3-.3 1.2-1.6 5.4-.2.4-.7 1-1.6 3.9c-.1.4-.4.7-.6 1l-.2.4-.1.3.1-1v-2.8l.3-4.9c0-1 0-2.2.2-3.3V146l.5-2.4a49 49 0 0 1 1.8-5.2l1.5-2.5.5-.7Z" clip-rule="evenodd"/>
  <path fill="#c4c29e" fill-rule="evenodd" d="M191.7 164.8c-.6 1-1.2 2.2-1.6 3.3l-.7 2.5-.9 2c-.1.2 0 .5.3.6.2.1.5 0 .6-.2l1-2 .6-2.5a20.6 20.6 0 0 1 1.5-3.2l.2-.2c0-.2.2-.4.3-.5a12.4 12.4 0 0 1 3.5-3.6l2.7-1.8 1.4-1 1.8-1.7.8-.8c.4-.4.8-.8 1-1.2l1.5-1.8.6-1 .5-.9.3-.5.3-1.1.2-.4.2-.5.2-1c.2-.3.5-.8.6-1.3l.2-.6.2-1c0-.2-.1-.4-.3-.5h-.4c-.2 0-.4.3-.5.3-.1.2-.4.2-.5.3l-.2.2a5.1 5.1 0 0 1-.7 1l-1.3 1.5-2.6 3.5-1.9 2-.8.9-1.3 1.3-1.2 1.3-1.7 2a20.1 20.1 0 0 0-1.7 2.2l-.5 1-.7 1.3-1 2v.1Zm16.6-20.2v.1l-.7.3a5.7 5.7 0 0 1-.8 1.1l-1.3 1.4c-.9 1.2-1.7 2.4-2.7 3.5l-1.3 1.4-.5.6-.8 1-1.2 1.4-1.1 1.3-1.6 2a32 32 0 0 0-1.6 2.2l-.3.7-.2.3.2-.1 1.3-1 2-1.2a23.1 23.1 0 0 0 2.5-1.8l1.8-1.7.8-.8 1-1.2 1.3-1.9.5-.8.8-1.3.3-1.2.3-.6.1-.2c.1-.3.1-.7.3-1l.6-1.3.2-.6.1-.6ZM259.5 129.5c-.3.1-.4.4-.4.6 0 .4.3.7.7.7.1 0 .3 0 .5-.2h.1c.3.2.7.2 1 0l.1-.2 2.6-1.6.7-.6c.8-.8 1.6-1.6 2.2-2.5l2-2.6a22.8 22.8 0 0 0 2.8-5.4l.6-2.7c.3-2.1.4-4.4.8-6.4l.2-1 1-2.6c.4-1 1-1.9 1.5-2.9.3-.4.5-1 .6-1.4l.2-1.2c0-.3 0-.5-.2-.7a.9.9 0 0 0-.8-.2c-.5 0-1 .4-1.2.7-.6.6-1 1.4-1.4 2.2l-.6.7-3.2 2.5a14.1 14.1 0 0 0-3.5 4l-1.7 3.5-1 1.9-.5 1.4c-.5 2-.5 4.1-.5 6.3l-.1 2.5c0 .7-.2 1.4-.4 2 0 .4-.2.7-.4 1l-1 1.3c0 .1-.9.7-.7 1Zm16.3-29.9-.6.4c-.5.6-.8 1.4-1.2 2a4 4 0 0 1-.9 1l-3.2 2.4a15.1 15.1 0 0 0-3.4 3.7c-.7 1.1-1.2 2.3-1.8 3.4l-.8 1.9-.4 1.3c-.4 2-.1 4 0 6v1.6c-.1 1.2-.2 2.3-.6 3.5a4.6 4.6 0 0 1-.8 1.6l1.2-.8.6-.4 1.3-1.4a74.7 74.7 0 0 0 4.6-5.8 14.6 14.6 0 0 0 2-5.1c.3-2.1.4-4.4.6-6.4l.3-1.2 1-2.5c.3-1 1-2 1.4-3l.4-1.3.3-.9Zm0 0v-.2c-.1 0 0 .1 0 .1ZM174.5 177.6a.7.7 0 0 0 .7 1.2c.1 0 .3-.1.5-.4.4.1.7 0 .9-.3l.2-.2 2-2.2.6-.8 1.5-3 1.2-3a23.3 23.3 0 0 0 1.3-5.9c0-.9 0-1.8-.2-2.8l-.8-6.3v-1.1c0-1 .2-1.8.3-2.7 0-1 .5-2.1.7-3.2l.2-1.6-.1-1.2c0-.3-.2-.5-.4-.5a.9.9 0 0 0-.9 0c-.4.1-.7.6-1 .9-.4.8-.4 1.6-.7 2.5l-.4.8-2.5 3.3a14.5 14.5 0 0 0-2.3 4.8l-.7 3.8-.5 2-.1 1.5c0 2.2.6 4.2 1 6.2.3.8.5 1.7.6 2.5.2.7.2 1.4.2 2.1l-.1 1-.6 1.5c0 .1-.8.9-.6 1Zm8.1-33.1-.4.5c-.4.7-.5 1.5-.7 2.3-.2.4-.3.8-.6 1.1l-2.5 3.2c-.6.7-1 1.5-1.4 2.2l-1 2.3-.8 3.7-.3 2v1.4c.1 2 .9 4 1.5 5.9l.4 1.5c.2 1.1.4 2.2.4 3.4a4.8 4.8 0 0 1-.4 1.8l1-1 .4-.6.9-1.6a84 84 0 0 0 3-6.8 14.2 14.2 0 0 0 .5-5.5c-.2-2.2-.7-4.3-1-6.4v-1.2l.3-2.7c0-1 .4-2.2.6-3.3v-1.3c0-.1.2-.6.1-1Zm0 0v-.2c-.2 0 0 .1 0 .1ZM76 142.6a.7.7 0 0 0 1.1-.7 1 1 0 0 0-.4-.5v-.1c.1-.3 0-.7-.3-.8l-.2-.2-2.4-1.8-.8-.6-3-1.2-3.2-1a23 23 0 0 0-6-1l-2.7.4c-2.1.4-4.3 1-6.3 1.3l-1 .1-2.8-.1c-1 0-2.1-.4-3.2-.5h-1.6l-1.2.1c-.3.1-.4.3-.5.4-.2.3-.1.6 0 1 .2.3.7.6 1 .8.8.4 1.7.4 2.6.6l.8.4 3.4 2.2 2.5 1.2c.9.3 1.7.6 2.5.7l3.8.5 2.1.3h1.5c2.1-.1 4.1-.8 6.1-1.5l2.5-.7c.6-.2 1.3-.3 2-.3h1l1.6.5s.9.7 1 .5Zm-33.6-5.8.6.5c.7.3 1.5.3 2.3.5l1.2.5 3.3 2.3 2.3 1.3 2.4.7c1.2.3 2.5.4 3.7.6l2 .2 1.4-.1c2-.3 3.9-1.2 5.7-2l1.5-.5c1.1-.3 2.3-.5 3.5-.6a4.8 4.8 0 0 1 1.8.3l-1.2-1-.5-.3-1.7-.8a81.4 81.4 0 0 0-7-2.5 14.6 14.6 0 0 0-5.5-.2l-6.3 1.5H48c-1 0-2.2-.3-3.3-.4a5 5 0 0 0-1.3 0h-1Zm0 0c-.1 0-.2.1-.1.2v-.1ZM219.3 152l-1 3a23 23 0 0 1-2 3.5 59.3 59.3 0 0 1-2.7 3.3c-.2.2-1.2.5-1.2.8h-.1l-.2.2-1.9.4h-2a77 77 0 0 1-1.8-.4.7.7 0 0 0-.8 0c0 .1-.4 1.1.4 1.3l1.9.5h2.5a8 8 0 0 0 2.3-.6c.1 0 .3 0 .5-.2l1.3-1a11.6 11.6 0 0 0 2.8-3.2l.2-.3c1-1.3 1.6-2.6 2-3.8a38 38 0 0 0 1.3-3.6l.7-2.4c.2-.5.3-1 .3-1.6 0-1-.3-2.1 0-3.2l.5-3.3.2-2.3.2-5.2a27.7 27.7 0 0 0-.6-6 24.2 24.2 0 0 0-1.4-4c-.3-.6-.8-1.1-1-1.7-.3-.5-.4-1-.5-1.6-.1-1.4.3-2.8.2-4.2 0-.5-.3-1.1-.6-1.6s-.6-.8-1-.8c-.5-.1-.9 0-1.3.2-.4.3-.8.8-1 1.3l-1.5 6.6-1 2.8c-.4 1.3-.5 2.7-.6 4 0 1.4 0 2.7.2 4 0 .8.3 1.7.6 2.5l1.4 3.5 1.8 4 1.7 3.8c.6 1.7 1.1 3.5 1.2 5.3Zm.7-1.9a60 60 0 0 1 .6-2.2c0-1.1-.1-2.3.1-3.4l.8-3.2.2-2.2.3-4.5v-3a19.9 19.9 0 0 0-2.2-7.4l-1-1.6c-.3-.6-.5-1.3-.6-1.9-.1-1.4.2-2.8.1-4.3l-.3-.9c-.1-.2-.2-.5-.4-.5-.3 0-.5 0-.6.2l-.5.6-1.6 6.6-1 2.8c-.4 1.2-.6 2.5-.7 3.8v3.8l.6 2.4 1.4 3.5 2 4.5a46.6 46.6 0 0 1 2.8 7ZM49.4 124.5a26.8 26.8 0 0 1 4-.2h.9a47.5 47.5 0 0 1 2.9.8c.1.1.6.6.8.5h.1l.1.2.9 1a47 47 0 0 1 1 2.5c0 .2 0 .4.2.4 0 0 .8 0 .7-.6l-.3-1.3a6 6 0 0 0-.8-1.5 6 6 0 0 0-1.4-1.5l-1-.5a8.3 8.3 0 0 0-2.8-.8h-.3c-1-.2-2-.3-3-.2-.9 0-1.7.2-2.5.3l-1.7.3c-.4 0-.7.2-1 .3-.7.4-1.3.8-2 1l-2.2.7c-.5.1-1 .3-1.4.6l-3.3 1.4-1.3.7c-.8.4-1.5 1-2.1 1.5a16.4 16.4 0 0 0-2 2l-.7 1.2a3 3 0 0 1-.9.8c-.8.5-1.7.7-2.6 1.2-.3.1-.6.4-.8.8-.2.3-.2.6-.2.9l.5.7c.4.2.8.2 1.2.2l4.5-1 2-.3c.9-.1 1.8-.4 2.6-.8a19 19 0 0 0 2.4-1.3 7 7 0 0 0 1.3-1.2l1.7-2 1.8-2.2a37 37 0 0 1 1.9-2.2c.8-1 1.7-1.7 2.8-2.4Zm-1.3.2h-.8c-.3 0-.5.2-.8.3-.7.3-1.3.8-2 1-.8 0-1.6.2-2.3.4l-1.4.5-2.8 1.2a17 17 0 0 0-3.7 2.4 16.2 16.2 0 0 0-2 2.1l-.6 1.1-1 1c-.8.5-1.8.7-2.6 1.2-.2 0-.4.2-.5.4l-.2.5.3.3h.5l4.6-.9 2-.2a11 11 0 0 0 2.5-.7l2.3-1.2 1.3-1 1.7-2 2-2.7a30.2 30.2 0 0 1 3.5-3.7ZM231.6 137.7v.1c0 .2-.2.3-.2.3s-.7-.1-.6-.6l.1-.5c.7-2.3 1-2.5 1-1.9l-.6 1.1-.4.8v.4c0-.2.2-.3.4-.2.2 0 .3.2.3.4l.3-2.5.4-1 .4-.7c.4-.6.8-1.2 1-1.8a15.1 15.1 0 0 1 2.2-2.9l.5-.5.3-.3h.2v.3l-.2.3-.5.6-1 1.4-.8 1.6-1 1.8-.4.7-1 2.1-.3.8v.2ZM267.6 131.6h-.2c-.3 0-.4.1-.4.2 0 0-.2 1 .5 1h.5c3.1-.2 3.4-.5 2.7-.7l-1.6.4-1 .2h-.6a.6.6 0 0 0 .2-1.1l3 .5 1.4-.3 1.1-.3 2.6-.8a20.7 20.7 0 0 0 4.4-2l.9-.4.4-.3v-.3h-.3a2 2 0 0 1-.3.1l-1 .4a24 24 0 0 1-4.3 1.5l-2.7.7-1 .3-3 .7-1 .2h-.3ZM62 156.5h.5s.5-1-.2-1.1l-.5-.2c-3-.7-3.3-.5-2.8-.1h1.7l1.1.1.5.2c-.3-.1-.6 0-.7.4 0 .2 0 .5.2.6l-2.8-1.3h-1.3l-1.2-.1h-2.7a21.1 21.1 0 0 0-4.8.6c-.3.2-.6.2-1 .2l-.5.2v.3c0 .1.1.2.2.1h.4l1.1-.1a24 24 0 0 1 4.6-.2h3.7l3 .2h1.2l.2.2ZM38.9 112.2l.3.2s.5-.5.2-.8l-.3-.2c-1.7-1.3-2-1.3-1.6-1l1 .6.6.4.2.2a.3.3 0 0 0-.5 0v.5l-1.3-1.6-.9-.5-.7-.3-1.6-.8a14 14 0 0 0-3-1l-.6-.2h-.4l-.1.2.1.1.3.1.7.3c.5 0 1 .3 1.4.5l1.4.7 1.6.8.6.3 1.8 1 .6.4h.2ZM245.8 113.9l-.1.3-.3.5-.9 1.6-1.1 2.4-1 1.7-1 1.7c-.1.1-.3.1-.4 0a.3.3 0 0 1 0-.3l1.1-1.6 1-2 1-2.2.8-1.6.3-.5.1-.2c0-.2.2-.3.4-.2.1 0 .2.2.1.4ZM302.4 120.4h-.4l-.8.3-2.3.7-3.4.7-2.5.8-2.5.8c-.1 0-.2.3-.1.4 0 .2.2.2.4.2.8-.4 1.5-.8 2.4-1l2.9-.7 3-.6 2.3-.6.6-.2h.4c.2 0 .4-.3.4-.5s-.2-.3-.4-.3ZM26 157.8h3.6l3.4.3 2.6-.1h2.6c.2-.1.3-.3.3-.4 0-.2-.2-.3-.3-.3-.9.1-1.7.3-2.6.3l-3-.2-3-.2H26.5l-.4-.1c-.2 0-.4 0-.4.2 0 .3 0 .5.2.5ZM16.7 102.2l.2.2.5.2 1.5.7 2 1.1 1.6.7 1.5.8c.2 0 .3 0 .3-.2 0-.1 0-.2-.2-.3l-1.6-.5-1.7-1-1.8-1-1.4-.8c-.2 0-.3 0-.4-.2l-.3-.1h-.3v.4ZM239.8 123l.1-.2.2-.1c.1 0 .4.2.2.5l-.2.3-.6.8-.4.6-.6.9c-.2.2-.2.5-.3.7-.1.1-.2.2-.3 0a.3.3 0 0 1-.1-.3l.4-.6.5-1 .5-.6.5-.8.1-.3Zm.4.3ZM288.9 125.4h.2l.2-.3c0-.1 0-.6-.5-.4l-.5.2-1.2.5-1 .3-1.2.6-1 .2c-.2 0-.3.2-.3.4s.2.3.4.2l1-.4c.4-.2 1-.2 1.4-.3l1-.4 1.2-.5h.3Zm-.3-.6ZM40.3 156.7H40l-.2.2c0 .1-.1.5.4.6l.5-.1 1.3-.2h1l1.4-.2h1c.2 0 .4 0 .4-.2s-.2-.4-.4-.4l-1 .2-1.5-.1-1 .1h-1.2l-.4.1Zm.1.6ZM25.6 105.7h-.4s-.2.3.1.4l.4.2.8.3.6.2.9.3.6.3c0 .1.2 0 .2 0l-.1-.4c-.2 0-.4 0-.7-.2l-.8-.5-.6-.2-.8-.3h-.2Zm-.1.5ZM227.8 157.8l.4.1 1.3.6 2 .4 3.2.4a113.2 113.2 0 0 1 17.4 3.2c2.2.7 4.4 1.5 6.6 2a.3.3 0 1 0 .2-.6 44.1 44.1 0 0 1-6.7-1.8l-2.8-.8a68.7 68.7 0 0 0-14.7-2.6 40.5 40.5 0 0 1-5-1l-1.2-.4-.5-.3-.4.1c-.2.2-.2.4 0 .6h.2ZM102.3 151.7v-.4l.3-1.4v-2l-.1-3.2a116.1 116.1 0 0 1-.1-17.7c.2-2.4.6-4.7.7-7 0-.2-.2-.3-.3-.3-.2 0-.4.1-.4.3a43.2 43.2 0 0 1-.4 7l-.4 2.9a70.8 70.8 0 0 0 .2 14.9 38.6 38.6 0 0 1 .1 5l-.3 1.4-.1.5c0 .2 0 .3.2.4h.5c0-.2.1-.3 0-.4ZM262.7 165.3h1.4l1.9-.1 1.3-.4 1.4-.2c.2 0 .3-.3.2-.4 0-.2-.2-.3-.4-.2l-1.3.4-1.2.1-2 .2-1.4-.2c-.2 0-.4.2-.4.5 0 .2.2.3.5.3ZM103.1 116l-.2-1.4-.5-1.8-.7-1.2-.5-1.4c0-.1-.2-.2-.4-.1-.1 0-.2.3-.1.4l.7 1.2.3 1.2.6 1.9v1.4c.1.2.3.4.5.3.2 0 .4-.3.3-.5ZM246.6 104.8l-.2-.1-.5-.2-.6-.3a14.2 14.2 0 0 0-3.1-1c-1.8-.4-3.6-.7-5.4-.8h-8.1c-.2 0-.4 0-.3.3 0 .1.1.3.3.3l3.7-.3h1.7l2.4.3a45.1 45.1 0 0 1 8.5 1.8l.7.4.5.2h.5v-.6ZM100.5 171.4l-.2.3-.2.4-.5.5-.6 1.2a35.9 35.9 0 0 0-2.8 6.9l-.8 4-.8 4s0 .3.2.3.4-.1.4-.3c.1-1.3.2-2.5.5-3.7 0-.6.2-1 .4-1.6l.7-2.3a46 46 0 0 1 2-5.3l.8-1.7.6-1 .5-.6.3-.5c.2-.1.2-.4 0-.5a.4.4 0 0 0-.5 0ZM224.4 101.8l-.8.1-1-.2h-.7l-.7-.2c-.1 0-.3 0-.3.3 0 .1 0 .3.3.3h.6c.3 0 .5.2.8.3l1 .1.9.1c.2 0 .4-.2.3-.4 0-.2-.2-.4-.4-.4ZM93.3 192.7l-.1.8-.4.9c0 .2 0 .5-.2.7 0 .3-.2.4-.3.6 0 .2 0 .4.2.4.1 0 .3 0 .4-.2l.1-.6.4-.7.4-.9.2-1c0-.2-.1-.3-.3-.4-.2 0-.4.2-.4.4ZM44.9 86.7l-1.6-2.4-1.2-1.3L39 79l-1.4-1.7c-.2-.4-.6-.7-.9-1a93.8 93.8 0 0 1-2.2-2.7.3.3 0 0 0-.5 0s-.1.3 0 .4l2.4 2.4.9 1.1c.5.8 1 1.7 1.7 2.5l2.7 3.5 1.2 1.3 1.5 2.4c0 .2.3.2.5.1s.2-.3 0-.5ZM28.6 68.7l-.7-.4-.4-.4-.2-.2-.5-.5-.3-.6a.3.3 0 0 0-.5 0v.5c.2 0 .4.2.5.3.2.2.2.5.3.7l.2.3 1.1 1 .6-.1v-.6Z" clip-rule="evenodd"/>
  <path fill="#c4c29e" fill-rule="evenodd" d="m220.2 150.4-.2-.9v-2.2l-.6-4.1-.4-2.7-.1-2.8c0-.2-.2-.3-.4-.3s-.3.2-.3.4c.2.9.4 1.8.4 2.7l.2 2.8.5 4.1v2.2l.1 1c.1.2.3.3.5.2.2 0 .3-.2.3-.4ZM48.2 124.2l-.5.4-1.3.7-2.3 1.6-1.6 1-1.6 1v.3h.3l1.5-1 1.6-1 2.4-1.5 1.3-.7c.2 0 .4-.2.6-.4v-.3c-.1-.1-.3-.2-.4 0ZM217.8 128.5l-.4-1v-.8l-.2-.9.2-.7c0-.2-.1-.4-.3-.4-.2 0-.3.2-.3.3v2.6l.2 1c0 .2.3.4.5.3.2 0 .3-.2.3-.4ZM34.5 133.7l-.6.5-.5.3-.5.4-.5.1c-.2.1-.2.2-.2.4.1 0 .2.1.4 0l.4-.2.7-.2.5-.4.6-.5c.1 0 .2-.2 0-.4h-.3ZM45 52.6c.2 0 .2-.4.2-.5l.5-2.8c.4-2 1.1-3.8 1.7-5.7l.7-2.6.6-2.7v-1.2c0-.2-.1-.3-.3-.3l-.2.4v1.4c0 .8-.3 1.6-.5 2.3-.2 1-.6 2-.9 2.9a94.2 94.2 0 0 0-1.7 5.4l-.5 2.8-.2.6.1.4h.5c.1 0 .2-.2 0-.4ZM48.9 34.6v-2l.1-.6.3-.8.2-.4.3-.4.1-.3c0-.1-.1-.3-.3-.3l-.2.3v.2l-.2.3-.7 1.2-.1.5-.1 1.2v1.3c0 .2.1.3.3.3.2 0 .3-.2.3-.4v-.1ZM193.6 161.6c0-.2 0-.4.2-.6l.6-1.5a61 61 0 0 0 2.1-8.2l.1-1.4.4-2.8c0-.5.3-1 .4-1.5v-.5l.1-1.2.1-3 .2-1.7c0-.2 0-.3-.2-.3-.1 0-.2 0-.2.2l-.2 1.2v3.4a16.4 16.4 0 0 1-.1 1.8l-.5 1.6-.5 2.7v1.5l-.1.5a72.6 72.6 0 0 1-2.1 7.5l-.6 1.5-.3.7c0 .1 0 .3.2.3s.3 0 .4-.2ZM198 137.2v-.4s-.2-.1-.1-.2l.1-.1-.1-.3-.3.1v.2l-.1.2v.5c0 .2.1.3.3.3.1 0 .3-.1.3-.3ZM201.6 175.5c1 1 2.1 1.7 3.3 2.4a45 45 0 0 0 5.6 2.5c2 .8 3.9 1.4 5.8 2.3 1.3.5 2.5 1.2 3.7 1.8l.4-.1c.1-.2 0-.4-.1-.5l-3.9-1.6-5.7-2.5c-1.8-.7-3.7-1.5-5.4-2.5a14 14 0 0 1-3.1-2.4.4.4 0 0 0-.5.5ZM91.2 139.6l.9-3 .3-4.8.1-4.9c0-1 .2-2.1.4-3.2l-.3-.3c-.1 0-.2.1-.2.3l-.2 3.2-.3 4.9c0 1.5 0 3.1-.3 4.6-.2 1-.5 2-1 3 0 .1 0 .3.2.3.1.1.3 0 .4 0ZM261.4 69.5c.5-1 .7-2 .9-3 .3-1.6.3-3.2.4-4.8V57l.4-3.3s0-.2-.2-.2-.3 0-.3.2l-.2 3.2c0 1.7-.2 3.3-.3 4.9 0 1.5 0 3.1-.3 4.7-.2 1-.5 2-1 2.9 0 .1 0 .3.2.4.2 0 .3 0 .4-.2ZM221.9 185.8l.5.4 1.4.8 1 .6 1.4 1 1 .7 1.5.9 1.4 1 .5-.1v-.4l-2-1-1.1-.8-.8-.7a32.3 32.3 0 0 0-2.6-1.8l-1.3-.8-.5-.4a.9.9 0 0 0-.4-.1c-.2 0-.4.1-.4.3 0 .3.2.4.4.4ZM93.3 122l.1-.5.2-1.3.2-.9.4-1.2.3-.9c0-.5 0-1 .2-1.4l.3-1.3c0-.1 0-.3-.2-.3 0 0-.2 0-.3.2 0 .5 0 1.1-.2 1.7 0 .3-.1.7-.3 1l-.2.7a20.6 20.6 0 0 0-.7 2.4l-.2 1.2-.1.4v.4l.3.2c.2 0 .3-.2.2-.4ZM263.6 52v-.6l.3-1.2c0-.3 0-.6.2-1 0-.4.2-.8.4-1.2l.2-.9.2-1.4c0-.4.2-.8.4-1.3 0 0 0-.2-.2-.3-.2 0-.3 0-.3.2l-.2 1.7-.3 1-.3.7a21.4 21.4 0 0 0-.6 2.4l-.3 1.2-.1.5v.3l.4.2.2-.4ZM262.4 128.6l1.1-1.3 1.6-2.5.6-1.2 1-2.4c.2-.8.6-1.5 1-2.3 0-.1 0-.3-.2-.4-.2 0-.3 0-.4.2l-.8 2.4-1 2-.7 1.4a33.6 33.6 0 0 1-1.6 2.4l-1 1-.2.3c-.1.1 0 .4.1.5.2.1.4 0 .5-.1ZM177.2 176l.7-1.6 1-2.8.2-1.3.2-2.6.4-2.5c0-.1 0-.3-.2-.3s-.4 0-.4.3c0 .8 0 1.6-.2 2.5 0 .8-.2 1.5-.4 2.2l-.3 1.5a44 44 0 0 1-1 2.8c0 .4-.4.7-.6 1.1l-.2.4c0 .2 0 .4.3.5.2 0 .4 0 .5-.3ZM74.1 140l-1.5-.6-3-.7-1.2-.2h-2.6l-2.5-.2c-.2 0-.3 0-.3.3 0 .1 0 .3.3.3h2.5c.8 0 1.5.2 2.3.3l1.5.2a32.1 32.1 0 0 1 2.8.7l1.2.6.4.1c.2 0 .4 0 .4-.2 0-.3 0-.5-.3-.5ZM269.8 113.9v-.7l.6-1.1.3-1c0-.3.2-.5.3-.7 0-.2 0-.4-.2-.4s-.4 0-.4.2l-.1.9-.5.7c-.1.4-.5.9-.6 1.4a2 2 0 0 0-.2.7c0 .2.2.4.4.4s.4-.2.4-.4ZM180.5 159.8l-.1-.6c0-.5.2-.9.3-1.3v-1.8c0-.2-.1-.3-.3-.3-.2 0-.3.1-.3.3l.1.9-.2.8-.3 1.5v.8c.1.2.3.3.5.2.2 0 .3-.3.3-.5ZM57.9 138h-.7L56 138h-1.8c-.2 0-.4.2-.3.4 0 .1.1.3.3.3l.9-.2.8.1 1.5.2h.8l.2-.6c-.1-.2-.3-.2-.5-.2ZM273.1 105.4c0-.2 0-.5.2-.7l.7-1 .8-1.4.8-1.4c.2-.4.6-.7.9-1a.3.3 0 0 0-.5-.4l-.7 1-1.2 1.7-.7 1.1-.7 1.1c-.2.3-.3.6-.3 1a.4.4 0 0 0 .7 0ZM181.5 150.8v-.7c0-.4.3-.8.4-1.2l.5-1.5c.1-.6.1-1.1.3-1.6l.7-1.2c0-.2 0-.4-.2-.4-.1-.1-.3 0-.4.1l-.4 1.3-.7 1.8-.4 1.3-.5 1.2v1c0 .2.2.4.4.3.2 0 .4-.2.3-.4ZM48.8 137.5H48l-1.2-.2-1.6-.4c-.5 0-1 0-1.6-.2l-1.2-.6c-.2 0-.4 0-.4.2-.1.1 0 .3.1.4l1.3.3 1.9.6 1.3.3 1.3.4h1c.2-.1.3-.3.2-.5 0-.2-.2-.4-.4-.3ZM289.3 69.6c-.4.1-.8.4-1 .7l-.7.7-.5.9-.6.4c-.2.1-.2.3 0 .5 0 .1.2.1.4 0l.5-.7.7-.6.6-.7c.2-.3.5-.4.8-.5.2 0 .3-.3.3-.5-.1-.2-.3-.3-.5-.2ZM29.4 12.8l.1.8.2.6c.1.2.3.3.3.5l.1.5c0 .1.1.2.3.2l.1-.3-.2-.5-.2-.6-.2-.5V13c0-.2 0-.3-.2-.3-.1 0-.3 0-.3.2Z" clip-rule="evenodd"/>
  <path fill="#c4c29e" fill-rule="evenodd" d="M180.5 186c-.6-.2-1.3-.3-1.9-.3-1.3 0-2.7.3-4 .2a379 379 0 0 1-34.2-4.4c-4.7-1-9-2.9-13-5.1-6.3-3.5-12.2-7.8-18.2-11.3-2.5-1.5-7.6-3.8-11.7-6-2-1-3.6-2.1-4.8-3-4.8-3.8-9.2-8-13.4-12.5-4.2-4.5-8-9.2-11.8-14.1-1-1.5-1.7-3.2-2.6-4.8l-.7-1.2c-1.3-1.7-3.1-3-4.6-4.5A85.7 85.7 0 0 1 47 92.2c-2.5-9.2-3.9-18.7-4.6-28-.3-4.8-.3-9.5-.5-14.1a112.1 112.1 0 0 0-.8-8.5l-1-3.4c0-.3-.4-.4-.6-.3-.3 0-.4.3-.4.6.4 1 .8 2.2 1 3.3.3.8.4 1.5.5 2.3l.3 6c.2 4.7.2 9.4.5 14.1.7 9.5 2 19 4.6 28.2a86.7 86.7 0 0 0 12.8 27.4c1.4 1.5 3.2 2.7 4.5 4.4 1 1.4 1.7 3.2 2.6 4.7l.8 1.2c3.7 5 7.7 9.7 12 14.1 4.1 4.5 8.6 8.7 13.5 12.6 1.1 1 2.9 2 4.8 3 4 2.3 9.1 4.7 11.7 6.2 6 3.6 11.8 8 18 11.4a49 49 0 0 0 13.4 5.3c4.1.9 8.8 1.6 13.7 2.2 7.1.9 14.5 1.5 20.7 1.9l4.1-.2c.6 0 1.1 0 1.7.2.2 0 .4-.1.5-.3 0-.2-.1-.5-.3-.5Z" clip-rule="evenodd"/>
  <path fill="#c4c29e" fill-rule="evenodd" d="m43.2 73.5-.7-2.4-.4-2.3-.4-1a46.6 46.6 0 0 0-3.5-5.7l-1.6-2.3c-1-1.3-1.9-2.5-2.7-3.8a32.5 32.5 0 0 1-4.2-9.2c-.8-2.8-.7-4.2-2.4-8.7l-.7-1.6-1.9-3.6a.5.5 0 0 0-.6-.2c-.3.1-.4.4-.2.7.5 1.2 1.2 2.3 1.8 3.5.2.5.5 1 .6 1.6 1.7 4.4 1.4 5.8 2.2 8.7a31.3 31.3 0 0 0 3 6.7l1.6 2.6 2.6 3.9 1.7 2.8 1.8 2.8a46.6 46.6 0 0 1 1.9 3.5l.5 1.8.8 2.4c0 .2.3.3.5.3s.3-.3.3-.5ZM58.6 118l-.5-1.3-.8-2-.3-1.3a80 80 0 0 1-.9-12.8l.5-2.6c.5-2 1.3-4 2-6a125.7 125.7 0 0 0 2.8-8l1.3-4.9a.5.5 0 0 0-1-.3l-1.3 4.9-.7 2-2.3 6.1a47.7 47.7 0 0 0-2.1 8.6l-.2 3a80.4 80.4 0 0 0 .8 10.2c0 .5.2 1 .4 1.5l1 2c.1.4.5 1.4.7 1.6l.4.2c.1 0 .4-.1.4-.6 0-.1 0-.3-.2-.3ZM72.7 136.3l-1-.8-1.5-.8c-3-1.8-4.4-2.3-6.5-3.5a31 31 0 0 1-2.6-1.7l-2-1.4c-2.5-1.8-5.1-3.6-7.5-5.7a35.9 35.9 0 0 1-9.5-13.5c-2.2-5-3.9-10.3-6.3-15.2a.5.5 0 0 0-.7-.2c-.2.1-.3.4-.2.7 2.4 4.9 4 10 6.1 15.1l1.7 3.8a32.7 32.7 0 0 0 8.3 10c2.4 2.1 5 4.2 7.4 6l2 1.4a27 27 0 0 0 3.6 2.3c1.7.8 3.1 1.3 5.7 2.7l1.6.7.8.7h.6v-.6ZM99.6 160.3a18.9 18.9 0 0 0-1.3-1.7l-2-2.1c-1.7-2-3.1-3.6-4.3-5.4a30.4 30.4 0 0 1-3.3-6 35.1 35.1 0 0 1-3.6-14.4 10625.3 10625.3 0 0 0-.6-9.5c-.2-2.4-.2-4.9-.3-7.4 0-.2-.2-.4-.5-.4s-.5.2-.5.5l.4 10.6c0 2.6.1 4.7.3 6.4a36.2 36.2 0 0 0 2.3 10.6l1.5 4c.8 2 1.5 3.7 2.5 5.2a46 46 0 0 0 5.2 6.5l2.3 2.1a10.6 10.6 0 0 1 1.2 1.4c.2.2.4.3.6.1.2 0 .2-.3.1-.5ZM113.7 167.8l-1.8-.5-.7-.1-1.4-.3-2.2-.3-2.4-.6h-.7l-1.5-.1a4 4 0 0 1-1-.2l-2.1-.7a.5.5 0 1 0-.3 1 60.5 60.5 0 0 0 3.3 1l1.7.2c1 0 1.8 0 2.6.2l2.5.7a13.6 13.6 0 0 0 4 .5l.4-.4c0-.2-.2-.4-.4-.4ZM93.7 163.4c-1.2-.2-2.4-.4-3.7-.8-1.2-.2-2.4-.6-3.6-1l-3.4-1-1.3-.7-3.4-1.4c-1.4-.5-2.8-.7-4.1-1l-4.1-1c-.3 0-.6.1-.6.4 0 .2 0 .5.3.6l5.8 1.4 2.3.7 3.4 1.1 1.4.6 4 1.7a23.3 23.3 0 0 0 7 1.2c.2 0 .4-.2.4-.4s-.2-.4-.4-.4ZM117.9 186.1l1.5.6 1.6.4c1.7.3 3.4.6 5 .7 1.2.2 2.3.2 3.5.2a210 210 0 0 0 33.4-4.6 158.2 158.2 0 0 0 49.5-24 210.3 210.3 0 0 0 29.2-25.3c4.6-5.1 8.7-10.8 12.4-16.6A165.2 165.2 0 0 0 269.3 85l3-9a34.7 34.7 0 0 0 1.1-5.1c0-.3-.1-.5-.4-.6-.3 0-.5.2-.6.5a36 36 0 0 1-1 5l-3 8.8A185.5 185.5 0 0 1 253 117a123.2 123.2 0 0 1-18.4 22.8 202 202 0 0 1-33.3 25.8 158 158 0 0 1-38.7 16.7 256 256 0 0 1-33.2 4.8h-3.3l-5-.7-1.5-.4-1.4-.5a.4.4 0 0 0-.3.7Z" clip-rule="evenodd"/>
  <path fill="#c4c29e" fill-rule="evenodd" d="m229.6 145.5 1.8-.6 3-.7c2.3-.8 4.7-1.5 7-2.4a62.5 62.5 0 0 0 13.8-7.5 169.9 169.9 0 0 0 10.3-7.3c5.7-4.5 11.2-9.2 17.2-13.2.2-.1.2-.5 0-.7a.5.5 0 0 0-.6-.1c-6.1 4-11.9 8.7-17.7 13.3a72.5 72.5 0 0 1-23.5 14.4l-6.8 2.5c-.3.2-1.6.4-2.9.8l-2 .7-.2.6c.1.2.4.3.6.2ZM260 106.5l.9-7.3a58.4 58.4 0 0 0-1.6-21c-.9-4.2-1.8-6.5-2.7-9.2a34.6 34.6 0 0 1-1.7-10.4c-.1-2.2 0-3.6.2-4.8l1-4.8a.5.5 0 0 0-.9-.2c-.5 2-1 3.4-1.1 4.8a48 48 0 0 0 1.4 15.7c.8 2.7 2 5 3 9a59.1 59.1 0 0 1 1.2 20.8l-.5 7.3c0 .2.1.4.3.4.3 0 .5-.1.5-.3Z" clip-rule="evenodd"/>
</svg>