<svg xmlns="http://www.w3.org/2000/svg" width="156" height="307" viewBox="0 0 156 307"  fill="none" opacity="0.5">
  <path fill="#c4c29e" fill-rule="evenodd" d="M12 .1c-.3 0-.5.2-.5.5-.2 3.6-1.3 6.6-2.1 10l-2 8.6a33.5 33.5 0 0 0-5.8-4.3l-.4-.2c-.2 0-.5 0-.6.3-.1.2 0 .4.2.6l.4.3c.6.5 1.3 1.5 1.6 2.3.8 2.4 1.5 4.7 2 7.2.1.9.6 1.6.7 2.4l.4 1v.3H6c-.2 3.2 0 6.4.8 9.2 1 3.2 1.6 6.8 2.8 10 1.2 3.4 2.8 6.5 5.4 8.7l3.4 2.4c.7.6 2.2 1.7 3.3 2.8l.4.8.5.7a71.8 71.8 0 0 0 3.6 5.5l.6 1c2.7 4 6.8 7.2 10 10.8 4 4.5 7.7 9.3 11.4 14a20 20 0 0 0-2.2-1.4l-.3-.2-.1-.4c-1.3-1-3-1.7-4.2-2.7a90.3 90.3 0 0 0-18-12.6A21 21 0 0 0 13 76.2l-3.2.2-.4-.1-.4-.1H8.4l-.2.1v.2H8c-.3 0-.5.2-.5.4 0 .3.2.5.4.5l1.3.3c1.9.4 4 1.3 5.5 2.5 1.7 1.4 3.3 3.5 5 5.4 1.7 2 3.5 3.8 5.5 4.9l3 1.8c1.1.6 2.3 1.1 3.5 1.1 3.2 0 7.7.3 11.7 1.2 1.7.4 3.3 1 4.6 1.6 1 .9 2 1.9 3 2.6l.4.5c2 2.3 4.2 4.3 5.6 7 5.4 11 12.4 21 17.4 32.3 1.3 2.9 2.5 5.8 3.5 8.8-.8-1-1.3-2.3-2-3.3-1.5-2-3-3.7-4.7-5.4l-.1-.1-.2-.3-.1-.1-.2-.2-5.3-6.2a96.8 96.8 0 0 0-25.9-24c-4.5-2.5-9.5-4-14.3-6-2-.9-4.5-1-6.5-2a49.7 49.7 0 0 0-8-2.7l-1.2-.5c-.3 0-.5 0-.6.3 0 .2 0 .4.2.5l.1.3.4.2h.5l.2.2c1 .6 2 1.7 3.3 3 4 4.6 9 12 11.4 14.6a58 58 0 0 0 12.4 9c2.5 1.4 5 2.6 7.6 3.8 2.3 1 12.2 4.2 19 7 2.5 1.1 4.6 2.1 5.7 3 1.8 2 3.8 4 5.5 6.2.9 1.1 1.4 2.7 2.4 3.8l1.2 1.2a130.7 130.7 0 0 1 3.8 13.7 181.4 181.4 0 0 1 4.8 34.3c.4 5.3.6 10.5.7 15.8v5.5l-1.1-3.6-.1-.3-.1-.2-1.6-4.7-2.7-6.5-.8-1.8-1.9-5.8-2.7-10.2s.1-.5-4-11.4A46.8 46.8 0 0 0 51 147.3c-5.9-3-11-7.4-17-9.5l-.3-.1-2-.7c-.3 0-.6.1-.6.4v.2l-.1.2c0 .2 0 .5.3.6 1.1.3 2.2.9 3.4 1.9 1.8 1.5 3.7 3.8 5.7 6.4 7.6 10.6 15.5 28 19.3 34.3.6 1 1.6 1.8 2.5 2.6.9.7 1.7 1.4 2.3 2.3.9 1.5 1.8 2.8 2.9 4.2-.8 2.3-2.3 7.8-2.5 11.4a45 45 0 0 0 1.4 14c2.2 8.5 4.1 19.4 9.9 26.8.7 1 3.5 5 5.1 7.8l.6 1 .6 1v.2s0 .2.2.3l.8 1.5 1.6 2.8c.5 1 1 2 1.6 2.8l.9 1.4c0 7.9-.3 15.9-2.2 23.5-1.4 5.6-4.2 11.4-5.2 17l-.7 3-.2.6c-.2.2-.2.5 0 .6.2.2.4.2.7 0v.2c.2.2.5.2.7 0l.4-.6.8-3.5c1-5.5 3.8-11.3 5.2-16.9 2.7-10.8 2-22.2 2.3-33.3v11-.6l-.1-.1v-8.2l.6-1a66.5 66.5 0 0 1 3-4.6c0-.3.3-.6.5-1l.9-1.3c4.2-4.7 14.3-14.4 16.6-17a43.4 43.4 0 0 0 11.4-32c0-7.4-1-14.6-1-22 0-.2-.3-.4-.5-.4-.3 0-.5.2-.5.5v.2c.1 2.1-1.1 6.2-3 11.2-4.7 12-13.2 28.5-15.8 33.6-1.6 3.3-2.6 7.4-3.5 10.7-.7 2.5-3.3 11.8-5.5 16-1 1.8-2.3 3.6-3 5V250l.4-19v-12.7l-.1-6.1.3-3c.3-3.3 1-6.6 1.7-9.9 1.2-3.3 3-8.9 4.6-12.4 1.5-3.2 3.5-6.5 5.6-10 4.8-2 10-5.4 14-8.9 2.8-2.3 5.7-5.6 7.7-8.6 2.6-4 9.1-9.6 13.3-12.1a30 30 0 0 1 17.5-4.8c.2 0 .5 0 .6-.3.2-.2 0-.5-.2-.6a177 177 0 0 0-10.2-.9 58.3 58.3 0 0 0-31.5 8.3c-1.3.8-2.3 1.3-3.7 2.4.3-6.7.8-15 1.8-22.5a68.3 68.3 0 0 1 4-15.2v-.3c.1-.2 0-.5-.2-.6h-.2c-.2 0-.4 0-.5.3v.3l-1.6 4c-2 4.2-5 7.3-7.9 11.8-3.3 5.3-6.2 11.6-8.7 17.5a63.6 63.6 0 0 0-3 27.4 84 84 0 0 1-1.6 9.7c-.1.4-.3 2-1 3.2v.2l-1 2.2-1 2.2-.3-3.8a232.3 232.3 0 0 0-2.6-17.9v-.2h.1v-.2l.3-.6.1-.5.1-.7v-3.6l-.3-2.7v-1.2l-.1-1v-2.4c.3-.8 4-13.8 4-14.3 1.2-5.8 2-9.6 1.8-13.7-.4-4-.3-8.8-.1-13 .3-8.3-7-21.4-10.7-27.6-.8-1.4-2.1-3.8-3.5-5.7-1-1.3-2.2-2.3-3.2-2.6-.3 0-.5.1-.6.4 0 .2 0 .4.2.5.2.1.2.2.3.4l.4 1.2c.3 1.4.5 3.4.6 5.8.6 9.3 0 24.2.3 28 .5 6 5.4 20.7 8 31.3a30.7 30.7 0 0 1 1.5 10.3c-.1 1.8.3 4.9.4 7.6v2.6l-.7-3.2-1.5-6.2a133.9 133.9 0 0 0-6.3-18.4l-1-2.4c-1.5-3.1-3-6.2-4.7-9.2l-6.2-11a47.2 47.2 0 0 1-2.4-9.3v-.2c-.4-2.4-.3-4.3-.5-6.2-.1-2.8-.5-5.8-.3-8.5.6-5.5 2-10.8 3-16.2.8-4 0-8.3-.5-12.3-.6-5.1-.9-10.2-1.6-15.2-.6-3.8-1.8-8.3-.1-12l.4-1.3-.1-.5v-.1c0-.3 0-.6-.3-.7-.3 0-.5 0-.6.3-.8 2.2-1.5 5-2.9 6.8a35 35 0 0 0-4.3 7.7c-.6 2.5-1.9 5-2.6 7.4-2 7.6-2 17.7.1 25.3.7 2.6 2.3 4.9 3 7.5 1 3.4 3 6.2 4 9.5a109 109 0 0 1 1.9 6v.1c.5 2.5 1 5.6 1.7 8.3-1.4-2.6-2.9-5.2-4.2-7.9-1.4-2.8-3.7-4.8-5.6-7.2-3.3-4-6.4-8.2-9.6-12.2-.8-2.2-2-4.3-2.7-6.6l-.6-2c-.1-1.8.3-4 1-6.3.6-2.5 1.4-5 1.6-6.8.2-2.2.3-4.5 0-6.8-.2-1.7-2.5-9.1-3.4-14.1l-.5-3.2.1-1c.2-.2 0-.5-.2-.6-.2-.2-.5 0-.6.2l-.2.3c-.2 1.5-1.2 4.2-2.2 6.9-1 2.8-2 5.6-2.2 7.2-.3 3.2-1.1 6.3-.8 9.6l.8 2.3c1.7 4.6 6 14.5 7 17l.4.6.2.5-2.8-3.3c-2-2.2-4.3-4.3-6.4-6.5V74c-1.2-2.2-3.1-6.9-3.7-9.7.2-1.2 0-4 0-5.3 0-.8.3-1.6.5-2.4.2-.9.4-1.7.4-2.6 0-6.6-1.3-12.7-4.5-18.5-1-1.8-2.7-3.4-3.8-4.9l-.3-.1-.8-3.8c-1.3-4.6-3.4-9-5-13.2a29 29 0 0 1-2.3-10.3l.1-.7v-.3l.1-1.5c0-.3-.2-.5-.4-.6H12Zm60.6 195.6.3 3.9c.7 3 1.8 5.7 2.5 8.3 1.2 4.3 2.8 8.4 3.8 12.8 1.7 8 .6 16.7 1.7 24.9l.4 1.7a90 90 0 0 0 1.6 3.4l.5.8c1.3 2.7 2.8 5.3 4.3 7.8l-2.2 25.3c2.6-10.8 2-22.2 2.3-33.1.2-9.6.5-19.4.5-29.4l-2.3-6.8c-.9-1.6-1.6-4.3-2.4-6.1l-.2-.3a51.6 51.6 0 0 0-8.6-11l-2.2-2.2Zm-4.4-4.8c-.8 2.5-2.1 7.4-2.3 10.7-.2 4.5.1 9.3 1.3 13.7 2.3 8.3 4.1 19.1 9.8 26.4l1.8 2.6c-3.8-8.7-6.6-17.8-8.3-26.9-1-5.3-1.9-11.4-1.2-16.4a37.3 37.3 0 0 1 1.5-7.1c-1-1-1.8-2-2.6-3Zm3.3 3.7-.3 1.4c-.5 1.8-.7 3.1-1 5-.6 5 .3 11 1.2 16.2 2.9 15.5 9.3 31.4 18 44.8L79.7 244c-.8-7.6.1-15.7-1.5-23-1-4.4-2.6-8.5-3.7-12.8-.8-2.6-1.8-5.4-2.5-8.3-.2-1-.4-3.9-.3-5l-.2-.2Zm48.5-13-1.9 5.2c-4.6 11.9-13.1 28.5-15.7 33.7-1.7 3.2-2.6 7.2-3.5 10.4-.5 1.9-2 7.5-3.7 12l.6-.9c1.2-1.5 1.6-3.7 2.7-5.3 5.3-7.7 12.4-21 17-33.8a64.9 64.9 0 0 0 4.5-21.3Zm.8 3.9a76.8 76.8 0 0 1-4.4 17.7 169.8 169.8 0 0 1-17 34c-.8 1.2-1.3 2.6-2 3.9 4.8-4.9 11-11 12.8-13a42.4 42.4 0 0 0 11.2-31.3c0-3.8-.4-7.6-.6-11.3Zm-27.2-2.2a153.2 153.2 0 0 0-4.6 10.3v.3l.6 11.7.5-2.9.7-3.4v-.3l.1-.1c.8-3.8 1.8-7.6 2.9-11.3l-.1-2.3-.1-2Zm-56.8-42.5c1.4 1.5 3 3.3 4.4 5.4 7.6 10.6 15.5 27.9 19.4 34.3.6 1 1.4 1.6 2.3 2.3 1 .8 1.9 1.6 2.5 2.6 2.6 4.4 6.4 8 10 11.8a73 73 0 0 1 6.2 7l-.7-2 .7 1.9c-4.1-9.7-9.3-19.6-13.5-29.6-6.1-14.5-18.8-24.6-31.3-33.7Zm1.3-.1c12.4 9 24.8 19.1 31 33.4 2.3 5.6 9.5 21 9.5 21s-4.5-15.4-6.3-20.3a45.9 45.9 0 0 0-21.7-26.6c-4.4-2.3-8.3-5.3-12.5-7.5Zm72.6-14-5.2 11.5a72.7 72.7 0 0 0-4.2 19.8c-1.8 18.6-6.6 29.6-6.6 29.6v.8l.9-2c2-4.3 5.2-9 7.8-13.8a35 35 0 0 0 5-14.9c.3-7.2.7-18.9 2-29l.3-2Zm1.2-5.6c-1.9 2.8-4 5.3-6 8.6-3.4 5.2-6.3 11.5-8.7 17.3-5 11.5-2.6 26.6-2.6 38.3 0 0 3.9-8.8 5.7-27.4a75 75 0 0 1 4.3-20.1c2.2-5.1 5-10.7 7.1-16.2l.2-.5Zm-18.4 58.4-.6 3 .2-.3.4-.7v-2Zm52.5-37.1h-.5a70.4 70.4 0 0 0-27.7 12.3c-1 .7-4.5 3.2-7 5.2-1 .9-1.8 1.7-2 2.2a42.8 42.8 0 0 1-6 13.4c4.4-2 9-5.2 12.6-8.3a43 43 0 0 0 7.5-8.4c2.8-4.1 9.4-9.8 13.6-12.4 2.6-1.6 6-3 9.5-4Zm-1.6-.7a57.2 57.2 0 0 0-30.7 8.1c-1.5 1-2.4 1.4-4.2 2.8l-.1 3.7v1.6l-.1.4-.2 2 1.2-1.1c2.4-2.1 6-4.6 7-5.3a73 73 0 0 1 27.1-12.2Zm-68-59a92.8 92.8 0 0 1 7.4 27c2.2 15 2.8 31.4 2.4 42.8l3-10.3c1.1-5.7 2-9.4 1.6-13.4-.3-4.1-.3-9-.1-13.2.3-8.1-6.8-21-10.5-27-.8-1.3-2-3.7-3.5-5.6l-.2-.3Zm-.6.8v.9c1 8.4.3 27.3.7 31.7.4 5.9 5.4 20.5 8 31l.8 4c.3-11.2-.3-27-2.4-41.2a92.9 92.9 0 0 0-7.1-26.4ZM14 100c0 .2.2.2.3.4 4 4.6 8.8 12 11.4 14.5 3.6 3.6 7.7 6.2 12.1 8.8 2.5 1.4 5 2.6 7.6 3.8 2.3 1 12.2 4.2 19 7.1l2 1a23 23 0 0 1-1.2-1c-1.6-1.4-3.2-3.2-4.7-4.8-3.8-4-9.1-7.4-13.7-10.5-5.6-3.8-10.8-8.7-17-11.5-5.2-2.5-10.6-5-15.8-7.8Zm.3-.9c5.3 2.7 10.6 5.3 16 7.8 6.2 2.9 11.5 7.7 17.1 11.6 4.6 3.1 10 6.5 13.8 10.6 1.4 1.5 2.9 3.1 4.4 4.4l-1-1.2A96 96 0 0 0 39 108.7c-4.5-2.6-9.5-4-14.2-6-2-1-4.5-1-6.5-2l-4-1.5Zm46.6.5c-.2-2.2-.4-4.4-.2-6.5.6-5.4 2-10.8 3.1-16.2.7-4 0-8.1-.5-12-.7-5.1-1-10.2-1.7-15.2-.3-1.8-.7-3.8-.9-5.8l-.1 1.2A150.6 150.6 0 0 0 57.8 70c0 3.6.6 7.1.8 10.6.1 2.9-.3 6.6.5 9.2.7 2.1.7 4.4 1 6.6l.9 3.3Zm-1-57.3s0 .2-.2.2a31.7 31.7 0 0 0-4.2 7.5c-.6 2.5-1.8 4.9-2.5 7.4-2 7.4-2.1 17.4 0 24.8.8 2.5 2.4 4.9 3.1 7.4.7 2.6 2 4.9 3 7.2v-.4c-.3-2.1-.3-4.3-1-6.4-.9-2.8-.5-6.6-.6-9.5-.1-3.5-.8-7-.8-10.6.2-9.3 1.3-18.5 3.2-27.6ZM14.7 78.9l.8.6c1.7 1.4 3.3 3.5 5 5.4 1.7 2 3.4 3.7 5.3 4.7l3 1.8c1 .6 2 1 3 1 3.3 0 7.9.3 11.9 1.2l.9.3-8-4.5a330 330 0 0 0-15.9-8.1l-6-2.4Zm25.2 11.3a87 87 0 0 0-17-11.7c-2.8-1.4-7-1.6-9.8-1.4h-.6a77.9 77.9 0 0 1 12.3 5 182.4 182.4 0 0 1 15 8v.1ZM37.7 44l-1 3c-1.1 2.7-2.1 5.4-2.3 7-.3 3.1-1 6.2-.7 9.4l.6 1.7c.9 2.5 2.8 7 4.5 11a99 99 0 0 1-1.2-25.6c.2-2 .1-4.4.1-6.5Zm1 1.9-.1 4.6a90 90 0 0 0 2 29.5l-1.2-5.5.3-1.4c.7-3 1.8-6.1 2-8.2a28 28 0 0 0 0-6.7c-.1-1.4-2-7.5-3-12.3ZM20 52.2v.2c-.2 4 2.5 8.4 4.9 11.6.4.5.8 1 1.1 1.7l2.2 4.1 1.4 1.9a44 44 0 0 1-2.5-7.2V63.6l-.1-.5c-.1-.1-.2-.3-.1-.4v-.3a5 5 0 0 0-.3-.5l-1-1.8C24 57 22 54.7 20 52ZM10.6 9.6l-.2 1-.2.5-.1.7-.7 2.6a149.5 149.5 0 0 0-1.8 9.3v.1c-.8 5-1 9.9.1 14.2 1 3.2 1.7 6.7 2.8 10 1.1 3.2 2.6 6.1 5.2 8.3.8.7 2.4 1.7 3.3 2.3l1.4 1.1-2.9-5.4c-7-12.3-8-30-6.8-44.8Zm10.2 30.8c-.1 3.5-.5 7-.7 10.4l.2.1c2.1 2.9 4.5 5.4 6.2 8.7-.3-2-.7-3.9-1-4.6-1.3-3.1-2.1-6.6-3-9.9-.5-1.4-1-3.2-1.7-4.7Zm-.1-8.4c.2 2.1.2 4.3.2 6.6 1.1 1.6 2 4.3 2.5 6.3 1 3.2 1.7 6.7 3 9.8l.9 3.8c0-.7.2-1.4.4-2.2.3-.8.4-1.6.4-2.3 0-6.5-1.2-12.4-4.4-18-.7-1.6-2-2.9-3-4ZM11.8 7.5c-1.6 15-.7 33.6 6.5 46.4l1.4 2.6c-.4-1.4-.7-2.7-.6-4 .2-4.4.7-9 .8-13.7v-.3c.1-4-.1-8-1.2-11.6-1.3-4.6-3.4-8.8-5-13-.8-2.2-1.5-4.3-1.9-6.4ZM4.3 19.7l1.4 5.5c0 .5.3 1 .5 1.5 0-1 .2-2 .4-3.1l-.9-1.4-1.4-2.5Zm0-2 2.2 4 .3.5.4-2H7c-.8-.9-1.8-1.8-2.8-2.5Z" clip-rule="evenodd"/>
</svg>